<svg width="44" height="43" viewBox="0 0 44 43" fill="none" xmlns="http://www.w3.org/2000/svg">
<g clip-path="url(#clip0_56_608)">
<path d="M0.563965 11.4837C0.923734 10.1501 1.68126 9.16298 3.00526 8.66105C3.38223 8.51452 3.78295 8.43873 4.18736 8.43747C15.1004 8.43747 26.0126 8.43933 36.9242 8.44306C39.9409 8.44306 42.8559 10.9862 43.3196 13.9978C43.5173 15.2856 43.4045 16.5857 43.3944 17.8802C43.3944 18.4391 42.8436 18.9232 42.2838 18.9478C41.7241 18.9724 41.1665 18.9478 40.6079 18.9578C40.2358 18.9657 40.2727 18.7052 40.2671 18.4704C40.1621 16.0547 39.0884 14.1644 37.0906 12.8386C32.8516 10.0249 27.0271 12.6631 26.3299 17.6835C26.2772 17.9713 26.2544 18.2639 26.2618 18.5565C26.2853 18.9131 26.0886 18.9623 25.7948 18.9612C24.2752 18.9522 22.7568 18.9612 21.2373 18.9612C19.9826 18.9612 18.729 18.9511 17.4743 18.9668C17.1279 18.9668 17.015 18.846 17.0128 18.5073C16.9882 15.4209 14.6933 12.3825 11.128 11.781C7.31132 11.136 3.61865 13.8547 3.08347 17.6969C3.04671 17.9162 3.02321 18.1376 3.01308 18.3598C3.01308 18.6951 2.85666 18.6951 2.61644 18.5766C2.15957 18.3497 1.75367 18.032 1.42347 17.643C1.09327 17.2541 0.845686 16.8019 0.695806 16.314L0.563965 15.9183V11.4837Z" fill="#2FCAEC"/>
<path d="M26.8251 0.102564C27.1041 0.259713 27.3573 0.458777 27.5759 0.692805C29.1714 2.3264 30.7699 3.95701 32.3714 5.58465C32.463 5.67855 32.644 5.76239 32.587 5.90771C32.53 6.05304 32.3401 5.98596 32.2105 5.98596C27.8821 5.98596 23.5537 5.98596 19.2241 5.99826C18.7962 5.99826 18.6767 5.86523 18.6834 5.44938C18.7091 3.66748 18.7057 1.88558 18.7135 0.102564H26.8251Z" fill="#2FCAEC"/>
<path d="M16.2878 0.102564C16.2945 1.95601 16.3012 3.80871 16.3079 5.66066C16.3079 5.88424 16.2129 5.99602 15.9827 5.9882C15.871 5.9882 15.7593 5.9882 15.6475 5.9882H5.07791C4.95277 5.9882 4.82764 5.9882 4.7025 5.98149C4.53379 5.9692 4.51815 5.88424 4.6187 5.76462C4.67233 5.7009 4.73043 5.64277 4.79188 5.58241C6.41792 3.94285 8.04322 2.29882 9.66777 0.650325C9.87819 0.447462 10.1063 0.263776 10.3493 0.101446L16.2878 0.102564Z" fill="#2FCAEC"/>
<path d="M24.8574 33.4042C26.3345 34.1699 27.7423 34.9033 29.1512 35.6321C30.4763 36.3163 31.8059 36.9903 33.1266 37.6834C33.4096 37.8319 33.7255 37.9065 34.045 37.9003C36.1634 37.8929 38.2821 37.8929 40.4013 37.9003C41.3342 37.9003 41.8225 38.3843 41.8247 39.3088C41.8247 40.0757 41.8247 40.8429 41.8247 41.6105C41.8247 42.478 41.3186 42.9777 40.4426 42.9777H3.56065C2.65452 42.9777 2.16291 42.5697 2.10146 41.6731C2.02807 40.7976 2.03518 39.9171 2.12268 39.0428C2.20536 38.3273 2.70703 37.9025 3.43104 37.9014C5.6202 37.8969 7.80861 37.8969 9.99627 37.9014C10.2468 37.9077 10.4949 37.8512 10.718 37.7371C13.4152 36.339 16.1138 34.9443 18.814 33.5529C18.8866 33.5149 18.9536 33.469 19.0218 33.4277C18.9805 33.26 18.8374 33.2455 18.7335 33.1929C15.7883 31.6696 12.842 30.1471 9.8946 28.6253C9.59838 28.4717 9.26841 28.3948 8.93484 28.4017C7.14717 28.4106 5.36322 28.4106 3.58299 28.4017C2.68915 28.4017 2.1238 27.8685 2.1238 27.0803C2.11371 26.7488 2.23377 26.4265 2.45826 26.1825C2.68276 25.9384 2.99385 25.792 3.3249 25.7747C3.47685 25.7624 3.63103 25.7691 3.7841 25.7691C15.9112 25.7691 28.0384 25.7691 40.1655 25.7691C40.4147 25.7691 40.6627 25.7501 40.9108 25.8317C41.1815 25.9072 41.4189 26.0718 41.5846 26.299C41.7502 26.5262 41.8344 26.8027 41.8236 27.0837C41.8286 27.3649 41.7398 27.6398 41.5713 27.8649C41.4027 28.09 41.164 28.2525 40.8929 28.3268C40.6775 28.3854 40.4545 28.4114 40.2314 28.4039C38.4616 28.4039 36.6907 28.4039 34.9209 28.4039C34.6703 28.3933 34.4211 28.4456 34.1958 28.5559C31.165 30.1255 28.1315 31.6905 25.0954 33.251C25.0351 33.2835 24.9803 33.3259 24.8574 33.4042ZM28.7009 28.4263H15.2934C15.3521 28.472 15.4133 28.5146 15.4766 28.5537C17.5391 29.6235 19.6039 30.6889 21.6631 31.7665C21.9245 31.9029 22.129 31.8481 22.3648 31.7251C24.1904 30.7764 26.0176 29.8307 27.8462 28.888C28.1043 28.756 28.3546 28.6141 28.7009 28.4263ZM27.7658 37.8891C27.6328 37.8042 27.5903 37.7773 27.5423 37.7472C25.7621 36.8268 23.983 35.9056 22.205 34.9838C22.0139 34.8843 21.8754 34.9189 21.7022 35.0083C19.9614 35.9123 18.2192 36.8141 16.4755 37.7136C16.4051 37.7494 16.2934 37.7595 16.2844 37.8891H27.7658Z" fill="#2FCAEC"/>
<path d="M10.0612 14.1197C12.6589 14.1498 14.689 16.2146 14.6343 18.8203C14.5762 21.5591 12.2366 23.4349 9.81649 23.3276C7.39643 23.2203 5.36518 21.1411 5.39535 18.6605C5.41536 17.4403 5.9174 16.2776 6.79173 15.4267C7.66606 14.5758 8.84154 14.1059 10.0612 14.1197V14.1197ZM10.0321 17.5325C9.71684 17.5306 9.4137 17.6541 9.18939 17.8758C8.96509 18.0975 8.83799 18.3992 8.83607 18.7147C8.83414 19.0302 8.95754 19.3335 9.17912 19.5579C9.40071 19.7823 9.70232 19.9095 10.0176 19.9114C10.3335 19.9079 10.6358 19.7828 10.8619 19.5622C11.0881 19.3415 11.2206 19.0423 11.2321 18.7264C11.2247 18.411 11.0956 18.1106 10.872 17.8881C10.6484 17.6656 10.3475 17.5382 10.0321 17.5325V17.5325Z" fill="#2FCAEC"/>
<path d="M33.2876 14.1185C33.8952 14.117 34.4971 14.2362 35.0583 14.4692C35.6195 14.7021 36.129 15.0443 36.557 15.4757C36.9851 15.9071 37.3234 16.4193 37.5521 16.9825C37.7809 17.5457 37.8956 18.1487 37.8897 18.7566C37.8797 21.3143 35.8149 23.3276 33.2161 23.3142C32.6126 23.3095 32.0159 23.1859 31.4602 22.9505C30.9044 22.7151 30.4005 22.3725 29.9771 21.9422C29.5537 21.512 29.2191 21.0025 28.9925 20.4428C28.7659 19.8832 28.6517 19.2844 28.6564 18.6806C28.6611 18.0768 28.7846 17.4798 29.0199 16.9238C29.2552 16.3678 29.5976 15.8635 30.0276 15.4399C30.4577 15.0163 30.9669 14.6816 31.5263 14.4548C32.0856 14.2281 32.6841 14.1138 33.2876 14.1185V14.1185ZM32.0977 18.7141C32.0936 18.8703 32.121 19.0257 32.178 19.1711C32.2351 19.3165 32.3208 19.4489 32.43 19.5606C32.5392 19.6722 32.6697 19.7608 32.8137 19.8211C32.9578 19.8813 33.1125 19.912 33.2686 19.9114C33.5836 19.9132 33.8864 19.7897 34.1104 19.5681C34.3344 19.3465 34.4612 19.0449 34.463 18.7298C34.4648 18.4146 34.3413 18.1117 34.1199 17.8876C33.8984 17.6635 33.597 17.5366 33.282 17.5348C33.1262 17.5322 32.9715 17.5609 32.8271 17.6192C32.6826 17.6775 32.5513 17.7642 32.4409 17.8742C32.3304 17.9841 32.2432 18.1151 32.1842 18.2594C32.1253 18.4037 32.0958 18.5583 32.0977 18.7141V18.7141Z" fill="#2FCAEC"/>
</g>
<defs>
<clipPath id="clip0_56_608">
<rect width="42.8718" height="42.8718" fill="white" transform="translate(0.563965 0.102564)"/>
</clipPath>
</defs>
</svg>
