<svg width="55" height="35" viewBox="0 0 55 35" fill="none" xmlns="http://www.w3.org/2000/svg">
<path d="M42.8846 22.2794C42.8846 23.1884 42.8846 24.0178 42.8846 24.8471C42.8846 26.5017 42.8846 28.1563 42.9086 29.8108C42.9086 30.1606 42.8469 30.3899 42.4384 30.3847C42.1243 30.3847 42.0929 30.5784 42.096 30.8402C42.1086 31.8308 42.2102 32.8204 42.096 33.8132C42.0101 34.5944 41.9965 34.674 41.2216 34.719C39.5363 34.8314 37.8456 34.838 36.1595 34.7389C35.4862 34.6939 35.3081 34.4907 35.1877 33.8132C35.0463 33.0142 35.1343 32.2152 35.1657 31.4172C35.1814 31.0329 35.0767 30.903 34.6746 30.9041C26.3341 30.9139 17.9915 30.9139 9.64677 30.9041C9.26664 30.9041 9.14411 31.0015 9.13364 31.3952C9.11165 32.2644 9.19438 33.1336 9.08233 34.0038C9.02683 34.4352 8.92421 34.6928 8.41842 34.7159C6.52196 34.8017 4.62759 34.8468 2.73217 34.6771C2.38555 34.6457 2.3133 34.4677 2.25989 34.1912C2.10595 33.3252 2.16356 32.455 2.19288 31.5858C2.20545 31.2214 2.20649 30.9334 1.72687 30.8988C1.38444 30.8737 1.43052 30.5847 1.43052 30.3365C1.43052 26.9227 1.43052 23.5092 1.43052 20.096C1.43052 19.2583 1.41795 18.4268 1.51429 17.5933C1.72373 15.7649 2.36147 14.1595 3.87466 13.0024C3.94377 12.95 4.00765 12.8893 4.07153 12.8306C4.43072 12.4987 4.41501 12.4034 3.96681 12.1824C3.58843 12.0047 3.17981 11.9002 2.76255 11.8746C2.43268 11.8484 2.10178 11.8274 1.77505 11.7824C0.917405 11.6662 0.380188 10.62 0.770789 9.84406C0.869225 9.64824 1.05667 9.60321 1.24098 9.55504C2.32272 9.27439 3.4139 9.31418 4.50507 9.4744C4.76477 9.5121 4.90614 9.7184 5.01505 9.95192C5.21087 10.3708 5.2004 10.8347 5.32292 11.3059C5.63707 11.0965 5.724 10.7478 5.87061 10.4546C6.63855 8.91451 7.44802 7.39573 8.29903 5.89825C9.08652 4.51177 10.1997 3.76722 11.7548 3.51694C15.8514 2.86036 19.9626 2.43415 24.1189 2.60065C24.8834 2.63102 25.6457 2.72527 26.4102 2.75668C26.8291 2.77449 26.7798 2.93157 26.6133 3.19546C26.4269 3.48762 26.1945 3.74837 26.0657 4.08033C25.9725 4.32747 25.7515 4.24683 25.5672 4.2416C23.8268 4.18924 22.0884 4.10128 20.3459 4.1662C17.7028 4.24674 15.0753 4.60404 12.5066 5.23224C11.5474 5.47205 10.8091 5.9527 10.2594 6.7915C9.33365 8.20416 8.4425 9.63148 7.82361 11.2106C7.61417 11.7426 7.6236 11.7531 8.19327 11.7541C13.3126 11.7625 18.4323 11.7688 23.5524 11.773C23.9629 11.773 24.1807 11.8044 24.2488 12.3259C24.7933 16.4309 26.9065 19.6018 30.3685 21.7632C33.7196 23.8575 37.3617 24.2293 41.1305 22.9057C41.6929 22.7067 42.2426 22.5077 42.8846 22.2794ZM5.76065 16.1638C5.48104 16.1573 5.20172 16.1858 4.92919 16.2487C3.9354 16.4078 3.52071 16.7922 3.83172 18.0216C4.07467 18.985 4.7742 19.5368 5.64546 19.8981C7.61418 20.717 9.69913 20.9788 11.8008 21.1621C12.115 21.1893 12.181 21.0762 12.1338 20.7725C11.985 19.7835 11.5051 18.8742 10.7725 18.1933C9.36926 16.8539 7.6592 16.2591 5.76065 16.1628V16.1638Z" fill="#2FCAEC"/>
<path d="M47.7666 11.2452C47.7834 12.1207 47.5142 13.4213 47.043 14.6905C46.3875 16.4613 46.5592 17.2037 47.9572 18.4897C49.6327 20.0346 51.3176 21.5705 53.012 23.0973C54.6068 24.533 54.6383 25.576 53.0968 27.0588C52.9107 27.2417 52.71 27.4091 52.4967 27.5594C51.4789 28.2537 50.5731 28.1584 49.7741 27.2222C48.22 25.4116 46.5634 23.6974 44.9685 21.9255C44.6303 21.5506 44.2721 21.1925 43.9496 20.8061C43.5077 20.2751 42.9411 20.1107 42.3118 20.2877C41.3944 20.5464 40.4991 20.8804 39.5891 21.1652C35.2956 22.5098 29.9424 20.0647 27.7339 16.1932C24.7274 10.9248 26.8961 5.01445 30.1979 2.39229C35.015 -1.43833 42.5715 -0.336695 45.9707 4.75579C47.1707 6.56219 47.7572 8.58222 47.7666 11.2452ZM36.9659 2.61638C32.3467 2.62476 28.9256 6.20405 28.9235 11.0075C28.9235 15.4968 32.8305 18.8614 36.9994 18.9127C41.5746 18.9651 45.1957 15.079 45.1675 10.5897C45.1486 6.25746 41.3986 2.608 36.9627 2.61638H36.9659Z" fill="#2FCAEC"/>
<path d="M38.3418 9.26812C37.5375 11.3541 36.7323 13.4391 35.8945 15.6089C35.2442 14.5439 34.6232 13.5522 34.0305 12.5427C33.955 12.3985 33.8413 12.2778 33.7019 12.1938C33.5625 12.1098 33.4027 12.0656 33.2399 12.0662C32.5466 12.0191 31.8565 11.928 31.1654 11.8568C31.0146 11.84 30.8345 11.8568 30.8125 11.6348C30.7874 11.3782 31.0125 11.4253 31.1382 11.4012C32.1602 11.2075 33.1844 11.0326 34.2075 10.8431C34.4284 10.8022 34.5216 10.9321 34.6201 11.0808C34.8651 11.4389 35.1133 11.7953 35.3646 12.15C35.4316 12.2453 35.4693 12.3992 35.6107 12.3908C35.7521 12.3825 35.7542 12.2107 35.7919 12.1091C36.5417 10.0587 37.2876 8.00661 38.0297 5.95272C38.0653 5.85429 38.0894 5.75271 38.1261 5.65636C38.1826 5.50871 38.2433 5.32336 38.3983 5.29613C38.6402 5.2532 38.5784 5.52442 38.6182 5.63228C39.1261 6.99363 39.6539 8.36125 40.0696 9.75716C40.2592 10.3928 40.6812 10.5101 41.1849 10.5949C41.9179 10.7248 42.6583 10.8274 43.3955 10.9436C43.5118 10.9614 43.65 10.9593 43.6521 11.1353C43.6542 11.3112 43.5275 11.3604 43.3777 11.3772L39.544 11.8128C39.2644 11.8442 39.2518 11.6034 39.1942 11.4421C38.9418 10.7237 38.7031 10.0012 38.4612 9.27964L38.3418 9.26812Z" fill="#2FCAEC"/>
</svg>
