<svg width="39" height="37" viewBox="0 0 39 37" fill="none" xmlns="http://www.w3.org/2000/svg">
<path d="M38.5079 9.95587V22.465C38.2266 23.5095 37.6618 24.3301 36.6823 24.8345C36.0548 25.1598 35.3797 25.2202 34.6955 25.2217C31.7675 25.2277 28.8392 25.2277 25.9107 25.2217C24.805 25.2217 25.0154 25.2605 25.0042 24.3406C24.9916 23.5811 24.7215 22.9649 23.6419 22.9798C21.4463 23.0096 19.2499 22.988 17.0535 22.9887C16.3709 22.9887 15.6882 22.9805 15.0063 22.9962C14.3834 23.0104 14.0633 23.3028 13.9305 23.9176C13.8738 24.1765 13.894 24.4398 13.891 24.6957C13.8843 25.2045 13.8783 25.218 13.3687 25.218C11.6938 25.218 10.0182 25.2306 8.3433 25.218C6.73182 25.2045 5.1181 25.2829 3.50737 25.1724C1.69743 25.0479 0.358263 23.6221 0.356025 21.8062C0.351051 18.0834 0.351051 14.3608 0.356025 10.6385C0.348099 10.403 0.367883 10.1674 0.414967 9.93648C0.806646 8.30187 2.1197 7.25067 3.80206 7.2462C6.24614 7.24023 8.69047 7.24172 11.135 7.25067C11.4939 7.25067 11.6245 7.14175 11.6051 6.78066C11.5797 6.31064 11.5954 5.83764 11.5998 5.36315C11.6058 4.7663 11.6289 4.71184 11.0291 4.96998C10.3785 5.24975 9.71978 4.99534 9.45642 4.4067C9.19306 3.81807 9.43404 3.16825 10.0712 2.85267C12.6095 1.58779 15.3802 0.856537 18.2121 0.704026C20.5437 0.563323 22.8824 0.812697 25.1318 1.44187C26.4229 1.80087 27.6766 2.28305 28.8755 2.88176C29.4672 3.18019 29.6902 3.81956 29.4395 4.39551C29.1889 4.97147 28.5674 5.21618 27.9422 5.00355C27.8478 4.97271 27.7556 4.93557 27.6662 4.89239C27.4028 4.7566 27.2805 4.80659 27.2931 5.12814C27.3066 5.66157 27.2931 6.195 27.2931 6.72843C27.2931 7.23948 27.2931 7.24097 27.8154 7.24097C30.2602 7.24097 32.7043 7.23724 35.1484 7.24097C36.1279 7.24097 36.9553 7.614 37.635 8.32276C38.0819 8.79352 38.3176 9.36127 38.5079 9.95587ZM19.4409 7.24694C21.1523 7.24694 22.8645 7.24097 24.576 7.25216C24.9013 7.25216 25.0132 7.14324 25.0072 6.81945C24.9908 5.96373 24.9923 5.108 25.0072 4.25227C25.0124 3.96131 24.8968 3.84343 24.6245 3.76435C23.3272 3.38521 21.9913 3.15322 20.642 3.07276C18.4847 2.93721 16.3202 3.17393 14.2431 3.77256C13.979 3.84716 13.8835 3.97399 13.8865 4.24182C13.8977 5.08487 13.8865 5.92866 13.891 6.77245C13.891 7.235 13.9044 7.24694 14.3804 7.24694H19.4409Z" fill="white"/>
<path d="M38.5081 33.6342C38.2268 34.6787 37.6621 35.4941 36.6833 36.0037C36.0909 36.3118 35.4538 36.3887 34.8077 36.3887C24.5723 36.3936 14.3366 36.3951 4.10073 36.3931C2.87272 36.3931 1.80362 36.0358 1.03444 35.0196C0.628581 34.4832 0.362985 33.8797 0.362985 33.2008C0.351794 31.0051 0.356275 28.8087 0.358513 26.6131C0.358513 26.2356 0.412229 26.2035 0.731541 26.4139C1.77154 27.0988 2.91599 27.3636 4.15296 27.3569C7.19239 27.3405 10.2318 27.3517 13.272 27.3517C13.8897 27.3517 13.8882 27.3517 13.8912 27.9866C13.8813 28.2095 13.8953 28.4328 13.933 28.6528C14.0621 29.2265 14.4381 29.5779 15.0252 29.5794C17.9781 29.5884 20.9308 29.5884 23.8832 29.5794C24.5367 29.5794 24.9441 29.1243 24.997 28.4193C25.0139 28.1958 25.0139 27.9713 24.997 27.7478C24.9724 27.433 25.1119 27.3233 25.4103 27.3487C25.5827 27.3636 25.758 27.3487 25.9326 27.3487C28.8362 27.3487 31.7391 27.333 34.642 27.3554C35.9454 27.3659 37.1503 27.101 38.2358 26.3624C38.3171 26.3079 38.3977 26.2438 38.5074 26.2594L38.5081 33.6342Z" fill="white"/>
<path d="M19.479 25.1187C20.4579 25.1187 21.4367 25.1262 22.4155 25.1135C22.7139 25.1135 22.8415 25.2008 22.8296 25.5141C22.8109 26.0095 22.8035 26.5064 22.8296 27.0003C22.8512 27.3785 22.6804 27.4651 22.3469 27.4614C21.3434 27.4502 20.34 27.4614 19.3358 27.4614C18.3943 27.4614 17.4527 27.4539 16.5112 27.4614C16.1852 27.4614 16.0405 27.3599 16.0584 27.0092C16.0837 26.5154 16.0778 26.0177 16.0584 25.5231C16.0472 25.218 16.1576 25.1098 16.4642 25.1143C17.4721 25.1269 18.4756 25.1187 19.479 25.1187Z" fill="white"/>
</svg>
