<svg width="43" height="41" viewBox="0 0 43 41" fill="none" xmlns="http://www.w3.org/2000/svg">
<path d="M42.436 1.75381V25.4661C42.2591 25.476 42.0832 25.4956 41.9073 25.4956H1.19397C0.538574 25.4956 0.538574 25.4956 0.538574 24.8555V2.37426C0.538574 1.35403 0.984247 0.905078 2.00121 0.905078C14.9999 0.905078 27.9987 0.902528 40.9974 0.89743C41.6801 0.89743 42.1553 1.13555 42.436 1.75381ZM5.59716 13.1523C5.64304 17.7139 9.11556 21.6725 14.0966 21.7271C18.6603 21.7784 22.6168 18.2316 22.6714 13.2484C22.7216 8.70541 19.1923 4.72824 14.1927 4.67362C9.64097 4.62337 5.74026 8.16689 5.59716 13.1523ZM31.315 7.09531C29.8032 7.09531 28.2914 7.09531 26.7785 7.09531C26.547 7.08839 26.3158 7.11638 26.0926 7.17833C25.8487 7.24999 25.6341 7.39768 25.48 7.59988C25.326 7.80207 25.2405 8.04818 25.2362 8.30234C25.2455 8.54876 25.3311 8.7862 25.4812 8.98187C25.6313 9.17753 25.8384 9.32177 26.074 9.39467C26.2832 9.45626 26.5004 9.48645 26.7185 9.48424C29.7836 9.48424 32.8483 9.48424 35.9126 9.48424C36.1171 9.48773 36.321 9.46124 36.5178 9.4056C36.763 9.33915 36.9803 9.19559 37.1377 8.99614C37.295 8.79669 37.3841 8.55191 37.3916 8.29797C37.388 8.04392 37.3029 7.79774 37.149 7.59562C36.995 7.39349 36.7803 7.24608 36.5363 7.17505C36.3131 7.1131 36.0819 7.08511 35.8504 7.09203C34.3378 7.09859 32.8261 7.09968 31.315 7.09531ZM31.3576 12.0108C29.8283 12.0108 28.3056 12.0108 26.7807 12.0108C26.5489 12.0046 26.3175 12.0322 26.0937 12.0927C25.8518 12.1659 25.6391 12.3135 25.486 12.5145C25.3328 12.7156 25.2469 12.9597 25.2405 13.2124C25.2487 13.4663 25.338 13.7109 25.4952 13.9104C25.6525 14.1099 25.8695 14.2538 26.1144 14.3211C26.3114 14.376 26.5151 14.4029 26.7196 14.4008C29.7846 14.4008 32.8497 14.4008 35.9148 14.4008C36.1329 14.4035 36.3502 14.3733 36.5593 14.3113C36.7952 14.239 37.0026 14.0949 37.1526 13.8991C37.3026 13.7033 37.3877 13.4655 37.396 13.2189C37.3927 12.9647 37.308 12.7182 37.1542 12.5157C37.0005 12.3132 36.7858 12.1653 36.5418 12.0938C36.3184 12.0329 36.0873 12.0049 35.8558 12.0108C34.3539 12.0108 32.8563 12.0108 31.3576 12.0108ZM31.327 16.9176C29.7977 16.9176 28.2721 16.9176 26.7501 16.9176C25.8282 16.9176 25.2373 17.3884 25.2362 18.1104C25.2351 18.8324 25.8271 19.3054 26.7469 19.3119C29.7988 19.3119 32.8501 19.3119 35.9006 19.3119C36.1326 19.3165 36.3639 19.2837 36.5855 19.2147C36.7312 19.1667 36.866 19.0902 36.9819 18.9896C37.0978 18.889 37.1925 18.7664 37.2606 18.6289C37.3287 18.4914 37.3688 18.3417 37.3786 18.1885C37.3883 18.0354 37.3675 17.8818 37.3174 17.7368C37.1415 17.2212 36.6729 16.9252 35.9858 16.923C34.4325 16.9088 32.8803 16.9121 31.327 16.9121V16.9176Z" fill="#2FCAEC"/>
<path d="M42.436 32.007C42.1542 32.6231 41.6801 32.8634 40.9996 32.8634C28.0016 32.8539 15.0029 32.8514 2.00339 32.8558C0.986434 32.8558 0.539667 32.4057 0.538574 31.3866C0.538574 30.4057 0.538574 29.4248 0.538574 28.4438C0.538574 27.89 0.538574 27.8878 1.11205 27.8878H4.95378C17.2163 27.8878 29.4788 27.8878 41.7413 27.8878C41.9718 27.8878 42.2022 27.9075 42.4338 27.9173L42.436 32.007Z" fill="#2FCAEC"/>
<path d="M21.5014 40.2137C18.231 40.2137 14.9605 40.2137 11.6901 40.2137C11.3942 40.2224 11.1052 40.1237 10.8764 39.936C10.6475 39.7483 10.4943 39.4842 10.4448 39.1924C10.3886 38.8947 10.441 38.5867 10.5926 38.3243C10.7441 38.0619 10.9847 37.8626 11.2706 37.7625C11.44 37.7112 11.6173 37.6909 11.7939 37.7024C12.789 37.7024 13.783 37.7024 14.7781 37.7024C15.3385 37.7024 15.3385 37.7024 15.3396 37.1224C15.3396 36.6462 15.356 36.1677 15.3396 35.6915C15.3254 35.355 15.4488 35.2425 15.7863 35.2447C17.4904 35.2567 19.1933 35.2447 20.8963 35.2447C22.9815 35.2447 25.0668 35.2556 27.1509 35.236C27.5693 35.236 27.7048 35.366 27.6785 35.7734C27.6479 36.2486 27.6895 36.7281 27.6654 37.2033C27.6469 37.5746 27.7747 37.7123 28.1559 37.7046C29.1772 37.685 30.1996 37.6959 31.221 37.6992C32.0457 37.6992 32.5744 38.1918 32.5766 38.9488C32.5787 39.7058 32.05 40.2115 31.2352 40.2126C27.9895 40.2155 24.7449 40.2159 21.5014 40.2137Z" fill="#2FCAEC"/>
<path d="M9.42656 12.0108C9.12617 12.0108 8.82578 11.9922 8.52758 12.0108C8.14199 12.0403 8.09064 11.8633 8.18349 11.5465C8.64445 9.99106 9.54782 8.76984 10.9329 7.9211C14.3694 5.81727 18.9069 7.55517 20.0626 11.4166C20.2352 11.9933 20.2243 12.0086 19.6158 12.0097C19.0576 12.0097 18.4984 11.9944 17.9402 12.0097C17.6431 12.0206 17.5109 11.883 17.3864 11.6383C16.7878 10.464 15.8473 9.76495 14.5179 9.61094C12.8882 9.42305 11.5686 10.3515 11.0356 11.4111C10.7953 11.8917 10.5123 12.0883 9.99785 12.0097C9.80768 11.9953 9.61668 11.9957 9.42656 12.0108Z" fill="#2FCAEC"/>
<path d="M12.9486 17.9094C12.9486 18.1956 12.9486 18.4807 12.9486 18.7669C12.9486 19.2388 12.9016 19.277 12.4625 19.1503C11.2749 18.8152 10.2159 18.13 9.4236 17.1841C8.84762 16.5092 8.42599 15.7166 8.18818 14.8618C8.07021 14.4423 8.11063 14.3932 8.55302 14.391C9.16472 14.391 9.77644 14.391 10.3881 14.391C10.489 14.3795 10.5908 14.4021 10.6773 14.4551C10.7638 14.5082 10.83 14.5886 10.8655 14.6837C11.2174 15.4753 11.8485 16.1096 12.6383 16.4653C12.7412 16.5003 12.8287 16.5698 12.886 16.662C12.9434 16.7542 12.967 16.8634 12.9529 16.9711C12.9376 17.2846 12.9486 17.5981 12.9486 17.9094Z" fill="#2FCAEC"/>
<path d="M15.3405 17.8734C15.1658 17.0618 15.3821 16.497 16.2057 16.1256C16.7748 15.8678 17.144 15.3097 17.4072 14.7253C17.4455 14.6174 17.5197 14.5261 17.6174 14.4664C17.715 14.4068 17.8302 14.3824 17.9436 14.3976C18.5411 14.4118 19.1397 14.3976 19.7383 14.403C20.1916 14.403 20.2276 14.4533 20.0922 14.9099C19.6712 16.392 18.7086 17.6619 17.3952 18.4676C16.8862 18.7828 16.3343 19.0231 15.7567 19.1809C15.4705 19.2628 15.3198 19.194 15.3405 18.8532C15.3613 18.5124 15.3405 18.2 15.3405 17.8734Z" fill="#2FCAEC"/>
<path d="M15.4007 13.2364C15.3898 13.9508 14.8404 14.4697 14.1085 14.4576C13.3952 14.4456 12.8764 13.8973 12.8884 13.1654C12.9004 12.4335 13.4477 11.9322 14.1806 11.9442C14.895 11.9562 15.4095 12.5034 15.4007 13.2364Z" fill="#2FCAEC"/>
</svg>
