<svg width="45" height="45" viewBox="0 0 45 45" fill="none" xmlns="http://www.w3.org/2000/svg">
<g clip-path="url(#clip0_56_598)">
<path d="M20.6185 0.231125H24.1911C24.2444 0.249948 24.2991 0.264104 24.3548 0.27343C26.8442 0.494941 29.2271 1.07839 31.4718 2.21239C33.1816 3.07494 34.8405 3.98625 36.2803 5.2783C37.4694 6.34826 38.613 7.44171 39.5846 8.72378C41.0316 10.6229 42.1719 12.7347 42.9646 14.9831C44.2329 18.5784 44.5243 22.2589 43.9551 26.0105C43.2908 30.3879 41.4019 34.207 38.5084 37.5479C37.4871 38.7271 36.2708 39.7066 35.0421 40.6549C33.1893 42.0857 31.0421 42.9929 28.8583 43.7826C27.2301 44.3701 25.5109 44.6492 23.7816 44.7191C20.8643 44.8366 18.0003 44.5934 15.2397 43.4946C13.0039 42.6027 10.8556 41.6039 9.00748 40.0321C7.88456 39.0797 6.80124 38.112 5.84853 36.9768C3.76049 34.4914 2.30661 31.6934 1.41063 28.5958C0.996926 27.1727 0.772933 25.7167 0.626953 24.2431V20.6084C0.702011 20.0379 0.766431 19.465 0.855082 18.8963C1.49101 14.8068 3.19076 11.1898 5.78588 7.97463C6.74864 6.78247 7.88279 5.75012 9.07308 4.80179C11.2362 3.08022 13.6865 1.8575 16.3319 1.03374C17.7272 0.600115 19.1687 0.390355 20.6185 0.231125ZM22.4169 16.8557H31.684C33.5125 16.8557 35.3407 16.8557 37.1685 16.8557C37.6597 16.8557 37.6697 16.8486 37.4717 16.3886C37.1987 15.7546 36.9469 15.1077 36.6195 14.5019C35.1455 11.7732 33.0604 9.59337 30.3944 8.00989C27.7407 6.43345 24.8312 5.77186 21.7355 5.91111C18.7674 6.04449 16.0364 6.85121 13.5896 8.56925C12.2303 9.52522 10.9891 10.5834 9.94305 11.8925C8.86602 13.2381 7.99455 14.7343 7.35679 16.3327C7.14816 16.8557 7.14639 16.8563 7.70607 16.8563L22.4169 16.8557ZM7.21022 22.5856C6.16768 22.5697 6.17536 22.5697 6.17831 23.3018C6.17831 23.8812 6.25692 24.4505 6.34084 25.0216C6.87275 28.6246 8.50512 31.6858 11.0098 34.2987C12.2415 35.5825 13.7498 36.5232 15.3 37.3716C16.482 38.018 17.7769 38.4005 19.0996 38.6796C19.4648 38.7565 19.5848 38.669 19.5724 38.2965C19.5181 37.0036 19.3418 35.7186 19.0458 34.4585C18.4382 31.8062 17.2592 29.4219 15.5748 27.2937C14.7036 26.1932 13.602 25.3278 12.4548 24.5105C10.7929 23.3259 8.92533 22.7789 7.21022 22.5856ZM38.6289 23.4352C38.6289 23.3765 38.6289 23.323 38.6289 23.2666C38.6425 22.5691 38.6407 22.5398 37.9345 22.5862C35.9487 22.7172 34.1195 23.2995 32.4676 24.4399C31.0013 25.4529 29.6852 26.5963 28.6674 28.074C28.0102 29.0288 27.3962 29.9995 26.921 31.06C25.9155 33.301 25.3469 35.7113 25.2455 38.1631C25.2183 38.7759 25.2455 38.7853 25.8655 38.6396C27.3855 38.2841 28.8453 37.797 30.1917 36.9697C31.7029 36.0408 33.1402 35.0537 34.3193 33.7005C35.3654 32.5001 36.2814 31.2328 36.9788 29.8044C37.9514 27.8123 38.5124 25.6466 38.6289 23.4352ZM25.0611 22.4657C25.0575 20.9492 23.8667 19.733 22.3962 19.7435C20.9033 19.7547 19.7302 20.9686 19.7485 22.4834C19.7662 23.9664 20.9488 25.1785 22.3921 25.1932C23.8235 25.2108 25.0646 23.9411 25.0611 22.4657Z" fill="white"/>
</g>
<defs>
<clipPath id="clip0_56_598">
<rect width="43.6064" height="44.5149" fill="white" transform="translate(0.626953 0.231125)"/>
</clipPath>
</defs>
</svg>
