<svg width="48" height="48" viewBox="0 0 48 48" fill="none" xmlns="http://www.w3.org/2000/svg">
<g clip-path="url(#clip0_56_619)">
<path d="M22.0314 0.0512848H25.8632C25.9202 0.0714733 25.979 0.0866557 26.0387 0.0966579C28.7086 0.334236 31.2644 0.960006 33.6719 2.17625C35.5057 3.10136 37.285 4.07877 38.8291 5.46454C40.1045 6.6121 41.331 7.78487 42.3731 9.15992C43.925 11.1968 45.1481 13.4618 45.9983 15.8732C47.3586 19.7293 47.6711 23.6768 47.0606 27.7005C46.3482 32.3953 44.3223 36.4915 41.2188 40.0747C40.1235 41.3395 38.819 42.39 37.5011 43.4071C35.5139 44.9416 33.2111 45.9146 30.8689 46.7616C29.1226 47.3917 27.2786 47.6911 25.4239 47.7661C22.2951 47.8921 19.2233 47.6312 16.2625 46.4528C13.8645 45.4962 11.5604 44.4248 9.57822 42.7391C8.37385 41.7176 7.21196 40.6797 6.19015 39.4622C3.95066 36.7965 2.39132 33.7956 1.43037 30.4733C0.986651 28.947 0.746411 27.3854 0.589844 25.8049V21.9066C0.670346 21.2947 0.739438 20.6803 0.834519 20.0702C1.51657 15.6842 3.3396 11.8048 6.12296 8.35644C7.15554 7.0778 8.37195 5.97057 9.64858 4.95346C11.9686 3.10703 14.5966 1.79563 17.4339 0.912112C18.9304 0.447039 20.4765 0.222064 22.0314 0.0512848ZM23.9603 17.8816H33.8995C35.8607 17.8816 37.8215 17.8816 39.7818 17.8816C40.3086 17.8816 40.3194 17.8741 40.107 17.3806C39.8142 16.7007 39.5441 16.0068 39.193 15.3571C37.6121 12.4306 35.3758 10.0926 32.5163 8.39425C29.6702 6.70348 26.5497 5.99389 23.2294 6.14324C20.0461 6.2863 17.1169 7.15153 14.4927 8.99418C13.0348 10.0195 11.7036 11.1544 10.5816 12.5585C9.4265 14.0017 8.49182 15.6064 7.8078 17.3208C7.58404 17.8816 7.58214 17.8823 8.18242 17.8823L23.9603 17.8816ZM7.6506 24.0271C6.53244 24.0101 6.54068 24.0101 6.54385 24.7953C6.54385 25.4167 6.62816 26.0273 6.71817 26.6399C7.28866 30.5041 9.03943 33.7874 11.7258 36.5898C13.0468 37.9668 14.6645 38.9757 16.3271 39.8857C17.5949 40.5788 18.9837 40.9891 20.4023 41.2884C20.794 41.371 20.9227 41.2771 20.9094 40.8776C20.8512 39.4909 20.6621 38.1127 20.3446 36.7612C19.693 33.9166 18.4284 31.3593 16.6219 29.0768C15.6875 27.8965 14.506 26.9682 13.2756 26.0916C11.4932 24.8212 9.49011 24.2345 7.6506 24.0271ZM41.3481 24.9384C41.3481 24.8754 41.3481 24.818 41.3481 24.7575C41.3627 24.0095 41.3608 23.978 40.6033 24.0278C38.4735 24.1683 36.5117 24.7928 34.74 26.016C33.1673 27.1024 31.7557 28.3288 30.6641 29.9137C29.9593 30.9377 29.3007 31.9788 28.791 33.1162C27.7126 35.5198 27.1028 38.1049 26.994 40.7345C26.9648 41.3918 26.994 41.4019 27.6589 41.2456C29.2893 40.8643 30.8549 40.3419 32.2989 39.4546C33.9197 38.4583 35.4613 37.3996 36.7259 35.9483C37.8479 34.6608 38.8304 33.3015 39.5784 31.7696C40.6214 29.6329 41.2232 27.3101 41.3481 24.9384ZM26.7962 23.8986C26.7924 22.2721 25.5152 20.9676 23.9381 20.979C22.3369 20.9909 21.0787 22.2929 21.0983 23.9175C21.1173 25.5081 22.3857 26.8081 23.9336 26.8239C25.4689 26.8428 26.8 25.481 26.7962 23.8986Z" fill="#2FCAEC"/>
</g>
<defs>
<clipPath id="clip0_56_619">
<rect width="46.7692" height="47.7436" fill="white" transform="translate(0.589844 0.0512848)"/>
</clipPath>
</defs>
</svg>
