<svg width="40" height="38" viewBox="0 0 40 38" fill="none" xmlns="http://www.w3.org/2000/svg">
<path d="M39.5079 1.42014V23.5289C39.3429 23.5381 39.179 23.5564 39.015 23.5564H1.05492C0.443848 23.5564 0.443848 23.5564 0.443848 22.9596V1.99863C0.443848 1.04739 0.859381 0.628804 1.80757 0.628804C13.9272 0.628804 26.0469 0.626426 38.1666 0.621674C38.8032 0.621674 39.2462 0.843695 39.5079 1.42014ZM5.16035 12.0478C5.20312 16.3009 8.4408 19.9918 13.085 20.0427C17.3401 20.0906 21.029 16.7836 21.0799 12.1374C21.1267 7.90163 17.8361 4.19342 13.1746 4.14249C8.93068 4.09564 5.29376 7.39953 5.16035 12.0478ZM29.139 6.40042C27.7294 6.40042 26.3199 6.40042 24.9093 6.40042C24.6934 6.39396 24.4778 6.42006 24.2697 6.47782C24.0423 6.54463 23.8422 6.68234 23.6986 6.87086C23.555 7.05938 23.4753 7.28885 23.4712 7.52582C23.4799 7.75557 23.5598 7.97695 23.6997 8.15939C23.8396 8.34182 24.0328 8.47631 24.2524 8.54428C24.4475 8.6017 24.65 8.62985 24.8533 8.62779C27.7111 8.62779 30.5686 8.62779 33.4257 8.62779C33.6163 8.63105 33.8064 8.60634 33.9899 8.55447C34.2185 8.49251 34.4212 8.35866 34.5679 8.1727C34.7146 7.98673 34.7976 7.75851 34.8047 7.52174C34.8013 7.28487 34.722 7.05534 34.5784 6.86689C34.4349 6.67843 34.2347 6.54099 34.0072 6.47476C33.7991 6.417 33.5835 6.39091 33.3676 6.39736C31.9574 6.40347 30.5478 6.40449 29.139 6.40042ZM29.1787 10.9835C27.7529 10.9835 26.3331 10.9835 24.9113 10.9835C24.6952 10.9777 24.4794 11.0034 24.2707 11.0599C24.0452 11.1281 23.847 11.2658 23.7042 11.4532C23.5614 11.6406 23.4813 11.8683 23.4753 12.1038C23.483 12.3405 23.5662 12.5686 23.7128 12.7546C23.8594 12.9406 24.0617 13.0748 24.2901 13.1375C24.4737 13.1887 24.6637 13.2138 24.8543 13.2119C27.7121 13.2119 30.5699 13.2119 33.4277 13.2119C33.6311 13.2144 33.8336 13.1862 34.0286 13.1284C34.2485 13.061 34.4419 12.9267 34.5818 12.7441C34.7217 12.5615 34.801 12.3398 34.8088 12.1099C34.8057 11.8729 34.7267 11.643 34.5833 11.4542C34.4399 11.2654 34.2398 11.1276 34.0123 11.0609C33.804 11.0041 33.5886 10.978 33.3727 10.9835C31.9723 10.9835 30.576 10.9835 29.1787 10.9835ZM29.1502 15.5584C27.7243 15.5584 26.3019 15.5584 24.8828 15.5584C24.0232 15.5584 23.4723 15.9974 23.4712 16.6706C23.4702 17.3438 24.0222 17.7848 24.8798 17.7909C27.7254 17.7909 30.5703 17.7909 33.4145 17.7909C33.6308 17.7952 33.8464 17.7646 34.0531 17.7002C34.1889 17.6554 34.3146 17.5841 34.4226 17.4903C34.5307 17.3965 34.619 17.2822 34.6825 17.154C34.746 17.0258 34.7834 16.8862 34.7925 16.7434C34.8016 16.6007 34.7822 16.4575 34.7354 16.3223C34.5715 15.8415 34.1345 15.5655 33.4939 15.5635C32.0457 15.5503 30.5984 15.5533 29.1502 15.5533V15.5584Z" fill="white"/>
<path d="M39.5079 29.6274C39.2452 30.2018 38.8032 30.4259 38.1687 30.4259C26.0497 30.4171 13.93 30.4147 1.80961 30.4188C0.86142 30.4188 0.444866 29.9992 0.443848 29.0489C0.443848 28.1344 0.443848 27.2198 0.443848 26.3052C0.443848 25.7888 0.443848 25.7868 0.97854 25.7868H4.56047C15.9937 25.7868 27.427 25.7868 38.8602 25.7868C39.0751 25.7868 39.29 25.8051 39.5059 25.8143L39.5079 29.6274Z" fill="white"/>
<path d="M19.9893 37.2791C16.94 37.2791 13.8907 37.2791 10.8415 37.2791C10.5656 37.2872 10.2962 37.1952 10.0828 37.0202C9.8694 36.8452 9.7265 36.599 9.68042 36.3269C9.628 36.0493 9.67686 35.7621 9.81814 35.5175C9.95942 35.2729 10.1837 35.087 10.4504 34.9937C10.6083 34.9459 10.7736 34.9269 10.9382 34.9377C11.866 34.9377 12.7928 34.9377 13.7206 34.9377C14.2431 34.9377 14.2431 34.9377 14.2441 34.3969C14.2441 33.9528 14.2594 33.5067 14.2441 33.0627C14.2309 32.749 14.346 32.6441 14.6607 32.6461C16.2495 32.6574 17.8373 32.6461 19.425 32.6461C21.3693 32.6461 23.3135 32.6563 25.2567 32.638C25.6468 32.638 25.7731 32.7592 25.7487 33.1391C25.7201 33.5821 25.7588 34.0292 25.7364 34.4722C25.7191 34.8185 25.8383 34.9469 26.1937 34.9397C27.146 34.9214 28.0993 34.9316 29.0515 34.9346C29.8205 34.9346 30.3134 35.394 30.3154 36.0997C30.3175 36.8055 29.8245 37.2771 29.0648 37.2781C26.0386 37.2808 23.0134 37.2812 19.9893 37.2791Z" fill="white"/>
<path d="M8.73116 10.9835C8.45108 10.9835 8.17101 10.9662 7.89297 10.9835C7.53345 11.011 7.48558 10.846 7.57215 10.5506C8.00194 9.10034 8.84421 7.9617 10.1356 7.17036C13.3397 5.2088 17.5704 6.82917 18.6479 10.4294C18.8088 10.9672 18.7986 10.9814 18.2314 10.9825C17.7109 10.9825 17.1895 10.9682 16.669 10.9825C16.392 10.9926 16.2688 10.8643 16.1527 10.6362C15.5946 9.54134 14.7177 8.88952 13.4782 8.74592C11.9587 8.57075 10.7284 9.43644 10.2313 10.4243C10.0073 10.8725 9.7435 11.0558 9.26381 10.9825C9.0865 10.969 8.90842 10.9694 8.73116 10.9835Z" fill="white"/>
<path d="M12.0146 16.4832C12.0146 16.75 12.0146 17.0158 12.0146 17.2826C12.0146 17.7226 11.9708 17.7583 11.5614 17.6401C10.4542 17.3277 9.46681 16.6888 8.72806 15.8069C8.19103 15.1776 7.79791 14.4387 7.57619 13.6416C7.46619 13.2506 7.50387 13.2047 7.91635 13.2027C8.48669 13.2027 9.05703 13.2027 9.62737 13.2027C9.72138 13.192 9.81628 13.213 9.89694 13.2625C9.9776 13.3119 10.0394 13.387 10.0724 13.4756C10.4005 14.2137 10.989 14.805 11.7254 15.1368C11.8213 15.1693 11.9029 15.2341 11.9564 15.3201C12.0098 15.4061 12.0319 15.5079 12.0187 15.6083C12.0045 15.9006 12.0146 16.1929 12.0146 16.4832Z" fill="white"/>
<path d="M14.2449 16.4496C14.082 15.6928 14.2836 15.1663 15.0516 14.82C15.5822 14.5797 15.9264 14.0592 16.1719 13.5144C16.2076 13.4138 16.2767 13.3286 16.3678 13.273C16.4588 13.2174 16.5662 13.1947 16.6719 13.2088C17.229 13.2221 17.7871 13.2088 18.3453 13.2139C18.7679 13.2139 18.8015 13.2608 18.6752 13.6865C18.2827 15.0684 17.3852 16.2524 16.1607 17.0036C15.686 17.2975 15.1715 17.5215 14.633 17.6687C14.3661 17.7451 14.2256 17.6809 14.2449 17.3631C14.2643 17.0454 14.2449 16.7541 14.2449 16.4496Z" fill="white"/>
<path d="M14.3011 12.1262C14.291 12.7922 13.7787 13.276 13.0963 13.2648C12.4312 13.2536 11.9475 12.7423 11.9587 12.06C11.9699 11.3776 12.4801 10.9101 13.1635 10.9213C13.8296 10.9325 14.3093 11.4428 14.3011 12.1262Z" fill="white"/>
</svg>
