<svg width="42" height="40" viewBox="0 0 42 40" fill="none" xmlns="http://www.w3.org/2000/svg">
<path d="M41.4357 10.9381V24.3546C41.1341 25.4748 40.5283 26.355 39.4777 26.8959C38.8048 27.2448 38.0806 27.3096 37.3469 27.3112C34.2065 27.3176 31.0658 27.3176 27.9249 27.3112C26.739 27.3112 26.9647 27.3528 26.9527 26.3662C26.9391 25.5516 26.6494 24.8907 25.4916 24.9067C23.1367 24.9387 20.781 24.9155 18.4253 24.9163C17.6931 24.9163 16.961 24.9075 16.2296 24.9243C15.5615 24.9395 15.2182 25.2532 15.0758 25.9125C15.015 26.1902 15.0366 26.4726 15.0334 26.7471C15.0262 27.2928 15.0198 27.3072 14.4732 27.3072C12.6769 27.3072 10.8797 27.3208 9.0833 27.3072C7.35493 27.2928 5.62417 27.3768 3.89661 27.2584C1.9554 27.1248 0.519097 25.5956 0.516696 23.648C0.511362 19.6552 0.511362 15.6626 0.516696 11.6703C0.508195 11.4177 0.529414 11.165 0.579913 10.9173C1 9.16417 2.40829 8.03673 4.21267 8.03193C6.83402 8.02553 9.45565 8.02713 12.0775 8.03673C12.4624 8.03673 12.6024 7.9199 12.5816 7.53262C12.5544 7.02852 12.5712 6.52121 12.576 6.0123C12.5824 5.37217 12.6072 5.31375 11.9639 5.59061C11.2662 5.89068 10.5596 5.61782 10.2772 4.98649C9.9947 4.35515 10.2531 3.6582 10.9365 3.31973C13.659 1.96312 16.6306 1.17882 19.6679 1.01525C22.1686 0.86434 24.6769 1.1318 27.0895 1.80661C28.4743 2.19165 29.8189 2.7088 31.1048 3.35094C31.7393 3.67101 31.9785 4.35675 31.7097 4.97448C31.4408 5.59221 30.7743 5.85467 30.1037 5.62662C30.0025 5.59354 29.9036 5.55371 29.8077 5.50739C29.5252 5.36176 29.394 5.41538 29.4076 5.76025C29.422 6.33237 29.4076 6.90449 29.4076 7.47661C29.4076 8.02473 29.4076 8.02633 29.9677 8.02633C32.5899 8.02633 35.2112 8.02233 37.8326 8.02633C38.8832 8.02633 39.7706 8.42641 40.4995 9.18657C40.9788 9.69148 41.2317 10.3004 41.4357 10.9381ZM20.9858 8.03273C22.8214 8.03273 24.6578 8.02633 26.4934 8.03833C26.8423 8.03833 26.9623 7.92151 26.9559 7.57423C26.9383 6.65644 26.9399 5.73864 26.9559 4.82085C26.9615 4.50878 26.8375 4.38236 26.5454 4.29754C25.1539 3.8909 23.7212 3.64208 22.2741 3.55578C19.9603 3.41041 17.6387 3.6643 15.411 4.30634C15.1278 4.38636 15.0254 4.52239 15.0286 4.80965C15.0406 5.71384 15.0286 6.61883 15.0334 7.52382C15.0334 8.01993 15.0478 8.03273 15.5583 8.03273H20.9858Z" fill="#2FCAEC"/>
<path d="M41.4357 36.3339C41.1341 37.4541 40.5284 38.3287 39.4785 38.8752C38.8432 39.2057 38.1599 39.2881 37.4669 39.2881C26.4891 39.2935 15.5111 39.2951 4.53276 39.2929C3.21568 39.2929 2.06904 38.9096 1.24406 37.8198C0.808773 37.2445 0.523912 36.5972 0.523912 35.869C0.51191 33.5141 0.516716 31.1584 0.519116 28.8035C0.519116 28.3986 0.576729 28.3642 0.919201 28.5899C2.03464 29.3244 3.26209 29.6085 4.58877 29.6013C7.84866 29.5837 11.1085 29.5957 14.3692 29.5957C15.0318 29.5957 15.0302 29.5957 15.0334 30.2766C15.0228 30.5157 15.0378 30.7553 15.0782 30.9912C15.2166 31.6065 15.6199 31.9834 16.2496 31.985C19.4167 31.9946 22.5835 31.9946 25.75 31.985C26.451 31.985 26.8879 31.4969 26.9447 30.7407C26.9628 30.501 26.9628 30.2603 26.9447 30.0206C26.9183 29.6829 27.0679 29.5653 27.388 29.5925C27.5728 29.6085 27.7609 29.5925 27.9481 29.5925C31.0624 29.5925 34.1758 29.5757 37.2893 29.5997C38.6872 29.6109 39.9794 29.3268 41.1437 28.5347C41.2309 28.4762 41.3173 28.4074 41.4349 28.4242L41.4357 36.3339Z" fill="#2FCAEC"/>
<path d="M21.0268 27.2008C22.0766 27.2008 23.1264 27.2088 24.1763 27.1952C24.4963 27.1952 24.6332 27.2888 24.6204 27.6249C24.6004 28.1562 24.5924 28.6891 24.6204 29.2188C24.6436 29.6245 24.4603 29.7173 24.1027 29.7133C23.0264 29.7013 21.9502 29.7133 20.8732 29.7133C19.8634 29.7133 18.8535 29.7053 17.8437 29.7133C17.4941 29.7133 17.3388 29.6045 17.358 29.2284C17.3852 28.6987 17.3788 28.165 17.358 27.6345C17.346 27.3072 17.4645 27.1912 17.7933 27.196C18.8744 27.2096 19.9506 27.2008 21.0268 27.2008Z" fill="#2FCAEC"/>
</svg>
