<svg width="43" height="37" viewBox="0 0 43 37" fill="none" xmlns="http://www.w3.org/2000/svg">
<g clip-path="url(#clip0_54_570)">
<path d="M0.5354 31.2307V12.6393C0.68466 12.6327 0.83392 12.6208 0.98318 12.6208H41.669C42.3227 12.6208 42.3227 12.6208 42.3227 13.2744C42.3227 18.994 42.3227 24.7141 42.3227 30.4345C42.3227 31.2612 42.4502 31.2504 41.5089 31.2504H1.1466C0.942869 31.2482 0.739135 31.2362 0.5354 31.2307ZM22.104 15.7787L16.5563 22.8865C17.9291 22.8865 19.1645 22.8865 20.3989 22.8865C20.8511 22.8865 20.8914 22.9508 20.8347 23.3854C20.6539 24.8517 20.4781 26.319 20.3074 27.7874C20.2965 27.88 20.2431 28.0053 20.4055 28.0881L26.2092 20.9094C26.0185 20.7798 25.866 20.8255 25.7222 20.8255C24.6076 20.8255 23.4942 20.8146 22.3796 20.8255C22.0702 20.8255 21.9264 20.734 21.9515 20.4051C22.003 19.7159 22.0444 19.026 22.0757 18.3354C22.116 17.4977 22.2216 16.6622 22.104 15.7787ZM35.6006 19.4617H36.6225C37.0583 19.4432 37.3731 19.1556 37.3557 18.8081C37.3383 18.4606 37.0507 18.2199 36.6116 18.2155C35.9579 18.209 35.3042 18.2025 34.6505 18.2155C34.3171 18.2221 34.1875 18.087 34.194 17.7569C34.206 17.1186 34.194 16.4791 34.194 15.8408C34.194 15.3484 33.938 15.0489 33.5556 15.0619C33.1971 15.075 32.9455 15.3833 32.9411 15.8354C32.9346 16.4203 32.9411 17.0042 32.9411 17.5881C32.9411 18.2035 32.9346 18.2101 32.3365 18.2123C31.7383 18.2144 31.138 18.2123 30.5421 18.2123C30.0801 18.2177 29.8415 18.4301 29.8383 18.819C29.8383 19.2242 30.0856 19.4563 30.5573 19.4628C31.211 19.4704 31.8647 19.4748 32.5184 19.4628C32.8354 19.4628 32.9542 19.5837 32.9542 19.8985C32.9422 20.5369 32.9477 21.1752 32.9542 21.8146C32.9542 22.3146 33.1884 22.5772 33.6079 22.5772C34.0273 22.5772 34.2082 22.3332 34.2136 21.8288C34.2136 21.2308 34.2136 20.6306 34.2136 20.0347C34.2136 19.4998 34.242 19.4759 34.7584 19.4715C35.0297 19.4606 35.3151 19.4628 35.6006 19.4617ZM9.22079 19.8713C10.2395 19.8713 11.2581 19.8713 12.2714 19.8713C12.7333 19.8713 12.9784 19.6534 12.9861 19.2689C12.9937 18.8648 12.7409 18.6229 12.2724 18.6218C10.2627 18.6175 8.25297 18.6175 6.24323 18.6218C5.78673 18.6218 5.48058 18.8713 5.46424 19.2286C5.4479 19.5859 5.76385 19.8702 6.24214 19.8724C7.23793 19.8767 8.22936 19.8713 9.22079 19.8713Z" fill="white"/>
<path d="M0.5354 32.5347C0.724971 32.526 0.914542 32.5085 1.10411 32.5085H41.5873C42.3216 32.5085 42.3216 32.5085 42.3216 33.234C42.3216 33.7787 42.3216 34.3233 42.3216 34.868C42.3162 35.5543 41.9632 35.9573 41.2833 36.0477C41.1212 36.0639 40.9581 36.0697 40.7952 36.0652C27.8717 36.0652 14.9482 36.0652 2.02473 36.0652C1.38847 36.0652 0.826293 35.9628 0.536489 35.3081L0.5354 32.5347Z" fill="white"/>
<path d="M0.535495 8.56195C0.770824 8.06413 1.18156 7.85063 1.71323 7.83647C1.88973 7.83647 2.06731 7.82775 2.24381 7.82775C15.0191 7.82775 27.7941 7.82775 40.5687 7.82775C42.0744 7.82775 42.3217 8.07503 42.3217 9.57067C42.3217 10.0456 42.313 10.5216 42.3217 10.9977C42.3217 11.2591 42.2127 11.3702 41.9567 11.3582C41.8075 11.3517 41.6582 11.3582 41.5089 11.3582H1.18592C0.968022 11.3582 0.750124 11.3408 0.532227 11.331L0.535495 8.56195Z" fill="white"/>
<path d="M9.5247 2.26676C9.5247 2.64694 9.51707 3.02929 9.5247 3.40728C9.53232 3.67635 9.42664 3.81578 9.14882 3.81469H6.74541C6.48938 3.81469 6.38588 3.68288 6.38697 3.43125C6.39278 2.63241 6.39278 1.8314 6.38697 1.0282C6.38697 0.752604 6.51008 0.633868 6.78137 0.636046C7.55599 0.636046 8.33062 0.641493 9.10415 0.636046C9.39287 0.636046 9.53014 0.744979 9.52361 1.04563C9.51816 1.45086 9.5247 1.85936 9.5247 2.26676Z" fill="white"/>
<path d="M36.435 2.25587C36.435 2.64911 36.4296 3.04345 36.435 3.43669C36.4405 3.69377 36.3261 3.8136 36.0711 3.8136H33.6677C33.4193 3.8136 33.2984 3.70467 33.3006 3.44105C33.3064 2.64221 33.3064 1.84083 33.3006 1.03692C33.3006 0.770031 33.4095 0.633866 33.6852 0.634955C34.4732 0.640765 35.2613 0.640765 36.0493 0.634955C36.3261 0.634955 36.4416 0.763495 36.4372 1.03365C36.4307 1.44105 36.435 1.84846 36.435 2.25587Z" fill="white"/>
<path d="M7.93845 6.55324C7.23246 6.55324 6.52212 6.54235 5.82049 6.55324C5.50018 6.55978 5.39123 6.43341 5.39668 6.11751C5.41629 4.91926 5.27683 5.11098 6.3685 5.10117C7.58982 5.08919 8.81222 5.10989 10.0335 5.09137C10.4105 5.09137 10.5293 5.21882 10.5205 5.58592C10.4922 6.69812 10.6295 6.52928 9.56724 6.54344C9.02467 6.55978 8.48102 6.55433 7.93845 6.55324Z" fill="white"/>
<path d="M34.9023 5.10771C35.6082 5.10771 36.3186 5.11643 37.0202 5.10771C37.3155 5.10227 37.4331 5.2112 37.4288 5.51076C37.4124 6.75259 37.5508 6.54344 36.4482 6.55433C35.2269 6.56632 34.0045 6.54671 32.7832 6.56305C32.4302 6.56305 32.3027 6.45412 32.3115 6.09464C32.3376 4.94432 32.1916 5.12732 33.2778 5.11425C33.816 5.10009 34.3597 5.10662 34.9023 5.10771Z" fill="white"/>
</g>
<defs>
<clipPath id="clip0_54_570">
<rect width="41.7895" height="35.4302" fill="white" transform="translate(0.5354 0.633865)"/>
</clipPath>
</defs>
</svg>
