<svg width="46" height="39" viewBox="0 0 46 39" fill="none" xmlns="http://www.w3.org/2000/svg">
<g clip-path="url(#clip0_56_630)">
<path d="M0.589844 32.8674V12.9275C0.74993 12.9205 0.910015 12.9076 1.0701 12.9076H44.7069C45.408 12.9076 45.408 12.9076 45.408 13.6086C45.408 19.7431 45.408 25.878 45.408 32.0133C45.408 32.9001 45.5447 32.8884 44.5351 32.8884H1.24538C1.02687 32.8861 0.808355 32.8732 0.589844 32.8674ZM23.7228 16.2946L17.7728 23.918C19.2451 23.918 20.5702 23.918 21.8941 23.918C22.379 23.918 22.4223 23.9869 22.3615 24.4531C22.1675 26.0256 21.979 27.5994 21.7959 29.1743C21.7843 29.2736 21.727 29.408 21.9011 29.4968L28.1258 21.7974C27.9213 21.6584 27.7577 21.7075 27.6034 21.7075C26.4081 21.7075 25.2138 21.6958 24.0185 21.7075C23.6866 21.7075 23.5324 21.6093 23.5592 21.2565C23.6145 20.5173 23.6589 19.7774 23.6924 19.0367C23.7357 18.1382 23.849 17.2421 23.7228 16.2946ZM38.1983 20.2447H39.2944C39.7618 20.2249 40.0995 19.9164 40.0808 19.5437C40.0621 19.171 39.7536 18.9128 39.2827 18.9082C38.5816 18.9012 37.8805 18.8941 37.1794 18.9082C36.8218 18.9152 36.6828 18.7703 36.6898 18.4163C36.7026 17.7317 36.6898 17.0458 36.6898 16.3612C36.6898 15.8331 36.4152 15.5118 36.005 15.5258C35.6206 15.5399 35.3507 15.8705 35.346 16.3554C35.339 16.9828 35.346 17.609 35.346 18.2352C35.346 18.8953 35.339 18.9023 34.6975 18.9047C34.056 18.907 33.4121 18.9047 32.7729 18.9047C32.2775 18.9105 32.0216 19.1383 32.0181 19.5554C32.0181 19.99 32.2833 20.2389 32.7893 20.2459C33.4904 20.2541 34.1915 20.2588 34.8926 20.2459C35.2326 20.2459 35.36 20.3756 35.36 20.7132C35.3472 21.3979 35.353 22.0825 35.36 22.7683C35.36 23.3046 35.6112 23.5862 36.0611 23.5862C36.511 23.5862 36.705 23.3245 36.7108 22.7835C36.7108 22.1421 36.7108 21.4984 36.7108 20.8593C36.7108 20.2856 36.7412 20.2599 37.2951 20.2552C37.586 20.2436 37.8922 20.2459 38.1983 20.2447ZM9.9052 20.684C10.9978 20.684 12.0903 20.684 13.177 20.684C13.6725 20.684 13.9354 20.4504 13.9436 20.0379C13.9517 19.6045 13.6807 19.3451 13.1782 19.3439C11.0227 19.3393 8.86717 19.3393 6.71166 19.3439C6.22206 19.3439 5.89371 19.6115 5.87618 19.9947C5.85865 20.3779 6.19752 20.6829 6.71049 20.6852C7.77851 20.6899 8.84186 20.684 9.9052 20.684Z" fill="#2FCAEC"/>
<path d="M0.589844 34.2659C0.793164 34.2565 0.996485 34.2378 1.19981 34.2378H44.6193C45.4068 34.2378 45.4068 34.2378 45.4068 35.016C45.4068 35.6001 45.4068 36.1843 45.4068 36.7685C45.401 37.5045 45.0224 37.9368 44.2933 38.0338C44.1193 38.0511 43.9445 38.0574 43.7698 38.0525C29.9089 38.0525 16.0481 38.0525 2.1872 38.0525C1.50479 38.0525 0.901835 37.9426 0.591012 37.2405L0.589844 34.2659Z" fill="#2FCAEC"/>
<path d="M0.589443 8.5544C0.841841 8.02047 1.28237 7.79148 1.8526 7.77629C2.0419 7.77629 2.23237 7.76694 2.42166 7.76694C16.1236 7.76694 29.8252 7.76694 43.5263 7.76694C45.1412 7.76694 45.4065 8.03216 45.4065 9.63628C45.4065 10.1457 45.3971 10.6562 45.4065 11.1668C45.4065 11.4472 45.2896 11.5664 45.015 11.5535C44.8549 11.5465 44.6948 11.5535 44.5347 11.5535H1.28704C1.05334 11.5535 0.819639 11.5348 0.585938 11.5243L0.589443 8.5544Z" fill="#2FCAEC"/>
<path d="M10.2315 1.80261C10.2315 2.21036 10.2233 2.62045 10.2315 3.02586C10.2397 3.31444 10.1264 3.46398 9.82839 3.46281H7.25066C6.97606 3.46281 6.86505 3.32145 6.86622 3.05156C6.87245 2.19478 6.87245 1.33567 6.86622 0.47422C6.86622 0.178632 6.99826 0.0512838 7.28922 0.0536204C8.12003 0.0536204 8.95084 0.0594621 9.78048 0.0536204C10.0901 0.0536204 10.2374 0.170454 10.2304 0.492914C10.2245 0.927533 10.2315 1.36566 10.2315 1.80261Z" fill="#2FCAEC"/>
<path d="M39.0933 1.79093C39.0933 2.2127 39.0874 2.63563 39.0933 3.0574C39.0991 3.33313 38.9764 3.46164 38.703 3.46164H36.1253C35.8588 3.46164 35.7291 3.34481 35.7315 3.06207C35.7377 2.2053 35.7377 1.3458 35.7315 0.483566C35.7315 0.197324 35.8483 0.0512831 36.144 0.0524514C36.9892 0.0586825 37.8344 0.0586825 38.6796 0.0524514C38.9764 0.0524514 39.1003 0.190315 39.0956 0.480061C39.0886 0.917017 39.0933 1.35397 39.0933 1.79093Z" fill="#2FCAEC"/>
<path d="M8.53005 6.39999C7.77286 6.39999 7.01099 6.38831 6.25847 6.39999C5.91493 6.407 5.79808 6.27148 5.80392 5.93266C5.82495 4.6475 5.67538 4.85312 6.84623 4.84261C8.15613 4.82976 9.46719 4.85195 10.7771 4.83209C11.1814 4.83209 11.3088 4.96879 11.2994 5.36252C11.269 6.55538 11.4163 6.37429 10.277 6.38948C9.69505 6.407 9.11197 6.40116 8.53005 6.39999Z" fill="#2FCAEC"/>
<path d="M37.4491 4.84962C38.2063 4.84962 38.9681 4.85897 39.7207 4.84962C40.0373 4.84378 40.1635 4.96061 40.1589 5.2819C40.1413 6.6138 40.2897 6.38948 39.1072 6.40117C37.7973 6.41402 36.4862 6.39299 35.1763 6.41051C34.7977 6.41051 34.661 6.29368 34.6704 5.90813C34.6984 4.67437 34.5418 4.87065 35.7068 4.85663C36.2841 4.84144 36.8672 4.84845 37.4491 4.84962Z" fill="#2FCAEC"/>
</g>
<defs>
<clipPath id="clip0_56_630">
<rect width="44.8205" height="38" fill="white" transform="translate(0.589844 0.0512848)"/>
</clipPath>
</defs>
</svg>
