<svg width="47" height="31" viewBox="0 0 47 31" fill="none" xmlns="http://www.w3.org/2000/svg">
<path d="M36.966 19.5102C36.966 20.2961 36.966 21.0131 36.966 21.7302C36.966 23.1606 36.966 24.5911 36.9869 26.0216C36.9869 26.324 36.9335 26.5222 36.5804 26.5177C36.3088 26.5177 36.2816 26.6852 36.2843 26.9115C36.2952 27.768 36.383 28.6236 36.2843 29.4819C36.2101 30.1573 36.1983 30.2261 35.5283 30.265C34.0713 30.3622 32.6096 30.3679 31.1518 30.2822C30.5697 30.2433 30.4157 30.0676 30.3116 29.4819C30.1894 28.7911 30.2655 28.1003 30.2926 27.4104C30.3062 27.0781 30.2157 26.9659 29.868 26.9668C22.6571 26.9752 15.4444 26.9752 8.22982 26.9668C7.90117 26.9668 7.79524 27.051 7.78619 27.3914C7.76718 28.1428 7.8387 28.8943 7.74183 29.6467C7.69384 30.0197 7.60512 30.2424 7.16783 30.2623C5.52822 30.3365 3.89041 30.3755 2.2517 30.2288C1.95203 30.2016 1.88956 30.0477 1.84338 29.8087C1.7103 29.06 1.7601 28.3076 1.78545 27.5562C1.79632 27.2411 1.79721 26.9921 1.38256 26.9622C1.0865 26.9405 1.12634 26.6906 1.12634 26.4761C1.12634 23.5246 1.12634 20.5734 1.12634 17.6225C1.12634 16.8982 1.11547 16.1794 1.19877 15.4587C1.37984 13.8779 1.93121 12.49 3.23946 11.4896C3.29921 11.4443 3.35444 11.3918 3.40967 11.3411C3.72021 11.0541 3.70663 10.9717 3.31913 10.7807C2.992 10.627 2.63871 10.5367 2.27796 10.5145C1.99277 10.4919 1.70669 10.4738 1.42421 10.4348C0.68272 10.3343 0.218261 9.42989 0.555961 8.75902C0.641065 8.58971 0.803124 8.55078 0.962468 8.50914C1.89771 8.2665 2.8411 8.3009 3.78449 8.43942C4.00902 8.47201 4.13124 8.65038 4.2254 8.85227C4.3947 9.21442 4.38564 9.61549 4.49157 10.0229C4.76318 9.84183 4.83834 9.54035 4.96509 9.28685C5.62902 7.95536 6.32886 6.64228 7.06462 5.34761C7.74545 4.14891 8.70785 3.5052 10.0523 3.28881C13.5941 2.72115 17.1486 2.35267 20.7419 2.49662C21.4029 2.52288 22.062 2.60436 22.7229 2.63152C23.085 2.64691 23.0425 2.78272 22.8985 3.01087C22.7374 3.26346 22.5364 3.4889 22.425 3.7759C22.3444 3.98957 22.1534 3.91985 21.9941 3.91532C20.4893 3.87006 18.9864 3.79401 17.4799 3.85014C15.1947 3.91977 12.9232 4.22868 10.7024 4.7718C9.87306 4.97913 9.23477 5.39469 8.75945 6.11988C7.95911 7.34122 7.18865 8.57523 6.65358 9.94051C6.47251 10.4004 6.48066 10.4095 6.97318 10.4104C11.3992 10.4176 15.8255 10.4231 20.2521 10.4267C20.607 10.4267 20.7954 10.4539 20.8542 10.9047C21.325 14.4538 23.152 17.1952 26.1451 19.0639C29.0423 20.8746 32.1912 21.196 35.4496 20.0516C35.9357 19.8796 36.4111 19.7076 36.966 19.5102ZM4.87002 14.2229C4.62828 14.2172 4.38679 14.2419 4.15117 14.2962C3.29198 14.4338 2.93344 14.7661 3.20234 15.829C3.41238 16.6619 4.01717 17.1391 4.77043 17.4514C6.47251 18.1594 8.27509 18.3857 10.0922 18.5442C10.3638 18.5677 10.4208 18.4699 10.3801 18.2074C10.2514 17.3523 9.83645 16.5662 9.20308 15.9775C7.9899 14.8195 6.51144 14.3053 4.87002 14.222V14.2229Z" fill="white"/>
<path d="M41.1868 9.97042C41.2013 10.7273 40.9686 11.8518 40.5612 12.9491C39.9944 14.48 40.1429 15.1219 41.3516 16.2337C42.8001 17.5694 44.2569 18.8973 45.7218 20.2173C47.1006 21.4586 47.1278 22.3603 45.7951 23.6423C45.6342 23.8004 45.4607 23.9452 45.2763 24.0751C44.3963 24.6753 43.6132 24.5929 42.9224 23.7835C41.5788 22.2182 40.1465 20.7361 38.7677 19.2042C38.4752 18.8801 38.1656 18.5705 37.8867 18.2364C37.5047 17.7774 37.0149 17.6352 36.4707 17.7882C35.6776 18.0118 34.9036 18.3007 34.1168 18.5469C30.4048 19.7094 25.7766 17.5954 23.8672 14.2483C21.2679 9.69337 23.1429 4.58351 25.9975 2.31648C30.1622 -0.995342 36.6953 -0.0429043 39.6341 4.35988C40.6716 5.92163 41.1786 7.66808 41.1868 9.97042ZM31.8489 2.51022C27.8553 2.51746 24.8975 5.612 24.8957 9.7649C24.8957 13.6462 28.2736 16.5551 31.8778 16.5995C35.8334 16.6448 38.9641 13.2849 38.9397 9.40366C38.9234 5.65817 35.6813 2.50298 31.8461 2.51022H31.8489Z" fill="white"/>
<path d="M33.0386 8.26109C32.3433 10.0646 31.647 11.8672 30.9227 13.7431C30.3605 12.8223 29.8236 11.9649 29.3112 11.0922C29.2459 10.9675 29.1476 10.8632 29.0271 10.7905C28.9065 10.7179 28.7684 10.6797 28.6277 10.6802C28.0283 10.6395 27.4317 10.5607 26.8341 10.4991C26.7038 10.4847 26.548 10.4992 26.529 10.3072C26.5073 10.0854 26.7019 10.1261 26.8106 10.1053C27.6942 9.93783 28.5797 9.78663 29.4642 9.62276C29.6552 9.58745 29.7358 9.69972 29.8209 9.82828C30.0328 10.1379 30.2473 10.446 30.4646 10.7527C30.5226 10.835 30.5552 10.9681 30.6774 10.9609C30.7996 10.9536 30.8014 10.8052 30.834 10.7173C31.4823 8.94464 32.1272 7.17044 32.7688 5.39472C32.7996 5.30961 32.8204 5.22179 32.8521 5.1385C32.901 5.01084 32.9535 4.85059 33.0875 4.82705C33.2966 4.78993 33.2432 5.02442 33.2776 5.11768C33.7167 6.29465 34.173 7.47705 34.5324 8.6839C34.6963 9.23345 35.0612 9.33485 35.4966 9.40819C36.1304 9.52045 36.7705 9.60918 37.4079 9.70968C37.5084 9.72507 37.6279 9.72326 37.6297 9.87536C37.6315 10.0275 37.5219 10.07 37.3925 10.0845L34.0779 10.4611C33.8362 10.4883 33.8253 10.2801 33.7756 10.1406C33.5574 9.51955 33.3509 8.89485 33.1418 8.27105L33.0386 8.26109Z" fill="white"/>
</svg>
