<svg width="41" height="41" viewBox="0 0 41 41" fill="none" xmlns="http://www.w3.org/2000/svg">
<g clip-path="url(#clip0_56_578)">
<path d="M0.443848 11.4444C0.779287 10.201 1.48559 9.28064 2.72005 8.81266C3.07152 8.67604 3.44514 8.60538 3.82221 8.6042C13.9972 8.6042 24.1715 8.60594 34.3451 8.60941C37.1578 8.60941 39.8757 10.9806 40.308 13.7885C40.4924 14.9892 40.3872 16.2014 40.3778 17.4084C40.3778 17.9295 39.8643 18.3808 39.3424 18.4037C38.8204 18.4267 38.3006 18.4037 37.7798 18.4131C37.4329 18.4204 37.4672 18.1776 37.462 17.9587C37.3641 15.7063 36.363 13.9438 34.5004 12.7077C30.548 10.0842 25.1174 12.544 24.4674 17.2249C24.4182 17.4933 24.3969 17.7661 24.4038 18.0389C24.4257 18.3714 24.2424 18.4173 23.9684 18.4162C22.5516 18.4079 21.1359 18.4162 19.7191 18.4162C18.5493 18.4162 17.3804 18.4069 16.2106 18.4215C15.8876 18.4215 15.7824 18.3089 15.7803 17.9931C15.7574 15.1153 13.6177 12.2824 10.2935 11.7217C6.73491 11.1203 3.29196 13.6551 2.79297 17.2374C2.7587 17.4419 2.73678 17.6483 2.72734 17.8555C2.72734 18.1682 2.58149 18.1682 2.35752 18.0577C1.93155 17.8461 1.55309 17.5499 1.24523 17.1872C0.937356 16.8246 0.706517 16.403 0.566773 15.9481L0.443848 15.5792V11.4444Z" fill="white"/>
<path d="M24.9288 0.832952C25.1889 0.979473 25.425 1.16508 25.6288 1.38328C27.1164 2.9064 28.6068 4.42674 30.1 5.9443C30.1854 6.03185 30.3542 6.11002 30.301 6.24552C30.2479 6.38102 30.0708 6.31848 29.95 6.31848C25.9143 6.31848 21.8786 6.31848 17.8418 6.32995C17.4429 6.32995 17.3314 6.20591 17.3376 5.81819C17.3616 4.15679 17.3585 2.49539 17.3658 0.832952H24.9288Z" fill="white"/>
<path d="M15.1043 0.832953C15.1105 2.56106 15.1168 4.28846 15.123 6.01518C15.123 6.22363 15.0345 6.32786 14.8199 6.32057C14.7157 6.32057 14.6115 6.32057 14.5073 6.32057H4.65249C4.53581 6.32057 4.41914 6.32056 4.30247 6.31431C4.14516 6.30285 4.13058 6.22363 4.22434 6.11211C4.27434 6.0527 4.32851 5.9985 4.3858 5.94222C5.90188 4.41354 7.41726 2.88069 8.93195 1.34367C9.12815 1.15453 9.34081 0.983262 9.56741 0.83191L15.1043 0.832953Z" fill="white"/>
<path d="M23.0944 31.8825C24.4716 32.5965 25.7842 33.2802 27.0978 33.9598C28.3333 34.5977 29.573 35.2262 30.8044 35.8724C31.0682 36.0108 31.3628 36.0803 31.6607 36.0746C33.6358 36.0676 35.6113 36.0676 37.5871 36.0746C38.457 36.0746 38.9122 36.5259 38.9143 37.3879C38.9143 38.1029 38.9143 38.8182 38.9143 39.5339C38.9143 40.3427 38.4424 40.8086 37.6257 40.8086H3.23787C2.39302 40.8086 1.93465 40.4282 1.87736 39.5923C1.80894 38.7759 1.81556 37.955 1.89715 37.1398C1.97424 36.4727 2.44198 36.0767 3.11703 36.0756C5.15814 36.0714 7.19856 36.0714 9.23828 36.0756C9.47186 36.0814 9.70319 36.0288 9.91125 35.9224C12.426 34.6189 14.9421 33.3184 17.4597 32.0211C17.5274 31.9857 17.5899 31.943 17.6534 31.9044C17.6149 31.7481 17.4816 31.7345 17.3847 31.6855C14.6387 30.2652 11.8916 28.8457 9.14348 27.4268C8.86729 27.2836 8.55964 27.2119 8.24863 27.2183C6.58185 27.2266 4.91854 27.2266 3.2587 27.2183C2.42531 27.2183 1.89819 26.7211 1.89819 25.9863C1.88878 25.6772 2.00072 25.3767 2.21004 25.1492C2.41935 24.9216 2.7094 24.7852 3.01806 24.7689C3.15974 24.7575 3.3035 24.7637 3.44622 24.7637C14.7532 24.7637 26.0603 24.7637 37.3673 24.7637C37.5996 24.7637 37.8309 24.746 38.0621 24.8221C38.3146 24.8925 38.5359 25.046 38.6904 25.2579C38.8448 25.4697 38.9233 25.7275 38.9132 25.9895C38.9179 26.2517 38.8351 26.508 38.678 26.7178C38.5208 26.9277 38.2983 27.0793 38.0455 27.1485C37.8446 27.2031 37.6368 27.2274 37.4288 27.2204C35.7787 27.2204 34.1275 27.2204 32.4774 27.2204C32.2437 27.2105 32.0113 27.2592 31.8013 27.3621C28.9754 28.8255 26.1471 30.2847 23.3163 31.7397C23.2601 31.77 23.209 31.8096 23.0944 31.8825ZM26.678 27.2412H14.1772C14.2319 27.2839 14.289 27.3236 14.348 27.3601C16.2711 28.3575 18.1962 29.3508 20.1161 30.3556C20.3599 30.4827 20.5505 30.4317 20.7703 30.317C22.4725 29.4325 24.1761 28.5507 25.8811 27.6717C26.1217 27.5487 26.3551 27.4163 26.678 27.2412ZM25.8061 36.0642C25.6821 35.9849 25.6425 35.9599 25.5977 35.9318C23.9379 35.0736 22.2791 34.2148 20.6214 33.3553C20.4432 33.2625 20.314 33.2948 20.1526 33.3782C18.5295 34.2211 16.9051 35.0618 15.2793 35.9005C15.2137 35.9339 15.1095 35.9433 15.1012 36.0642H25.8061Z" fill="white"/>
<path d="M9.29885 13.9021C11.7209 13.9303 13.6137 15.8554 13.5627 18.2849C13.5085 20.8385 11.3271 22.5875 9.07071 22.4874C6.8143 22.3873 4.92042 20.4487 4.94855 18.1359C4.9672 16.9982 5.4353 15.9142 6.2505 15.1208C7.0657 14.3275 8.16168 13.8893 9.29885 13.9021V13.9021ZM9.27177 17.0842C8.9778 17.0824 8.69516 17.1975 8.48602 17.4042C8.27688 17.6109 8.15838 17.8923 8.15659 18.1864C8.15479 18.4805 8.26985 18.7633 8.47644 18.9726C8.68304 19.1818 8.96425 19.3004 9.25822 19.3022C9.55271 19.2989 9.83462 19.1823 10.0455 18.9766C10.2563 18.7709 10.3799 18.4918 10.3906 18.1974C10.3837 17.9032 10.2634 17.6232 10.0549 17.4157C9.84634 17.2083 9.56577 17.0895 9.27177 17.0842V17.0842Z" fill="white"/>
<path d="M30.9544 13.9011C31.5209 13.8997 32.0821 14.0108 32.6053 14.228C33.1286 14.4452 33.6036 14.7642 34.0027 15.1665C34.4019 15.5687 34.7172 16.0462 34.9305 16.5713C35.1438 17.0965 35.2508 17.6587 35.2453 18.2255C35.2359 20.6102 33.3108 22.4874 30.8877 22.4749C30.325 22.4705 29.7687 22.3553 29.2506 22.1358C28.7324 21.9163 28.2625 21.5969 27.8677 21.1957C27.473 20.7945 27.161 20.3195 26.9498 19.7977C26.7385 19.2759 26.632 18.7176 26.6364 18.1546C26.6407 17.5917 26.7559 17.0351 26.9753 16.5166C27.1946 15.9982 27.5139 15.5281 27.9149 15.1331C28.3158 14.7381 28.7906 14.426 29.3122 14.2146C29.8337 14.0032 30.3917 13.8967 30.9544 13.9011V13.9011ZM29.8449 18.1859C29.8411 18.3315 29.8666 18.4764 29.9199 18.6119C29.9731 18.7475 30.053 18.871 30.1548 18.9751C30.2566 19.0792 30.3783 19.1618 30.5126 19.218C30.6469 19.2741 30.7911 19.3028 30.9367 19.3022C31.2303 19.3038 31.5127 19.1887 31.7215 18.9821C31.9304 18.7755 32.0486 18.4943 32.0503 18.2005C32.0519 17.9066 31.9369 17.6242 31.7304 17.4152C31.5239 17.2063 31.2428 17.0879 30.9492 17.0863C30.8039 17.0839 30.6597 17.1107 30.525 17.165C30.3903 17.2194 30.2678 17.3002 30.1649 17.4027C30.0619 17.5052 29.9806 17.6274 29.9256 17.7619C29.8707 17.8964 29.8432 18.0406 29.8449 18.1859V18.1859Z" fill="white"/>
</g>
<defs>
<clipPath id="clip0_56_578">
<rect width="39.9725" height="39.9725" fill="white" transform="translate(0.443848 0.832952)"/>
</clipPath>
</defs>
</svg>
