<svg width="262" height="262" viewBox="0 0 262 262" fill="none" xmlns="http://www.w3.org/2000/svg">
<g filter="url(#filter0_d_203_670)">
<circle cx="130.827" cy="125.827" r="97.8274" fill="white"/>
<circle cx="130.827" cy="125.827" r="97.1481" stroke="#2FCAEC" stroke-width="1.35871"/>
</g>
<g clip-path="url(#clip0_203_670)">
<path d="M127.17 77H135.064C135.181 77.0416 135.302 77.0729 135.425 77.0935C140.925 77.5829 146.191 78.872 151.15 81.3775C154.928 83.2833 158.593 85.2968 161.774 88.1515C164.401 90.5156 166.928 92.9315 169.075 95.7642C172.272 99.9603 174.791 104.626 176.543 109.594C179.345 117.538 179.989 125.67 178.731 133.959C177.264 143.63 173.09 152.068 166.697 159.45C164.441 162.055 161.753 164.22 159.038 166.315C154.945 169.476 150.201 171.48 145.376 173.225C141.778 174.523 137.98 175.14 134.159 175.295C127.713 175.554 121.385 175.017 115.286 172.589C110.346 170.618 105.599 168.411 101.516 164.939C99.0349 162.834 96.6414 160.696 94.5364 158.188C89.9229 152.697 86.7106 146.515 84.731 139.671C83.817 136.526 83.322 133.309 82.9995 130.054V122.023C83.1654 120.762 83.3077 119.497 83.5036 118.24C84.9086 109.204 88.6641 101.213 94.398 94.109C96.5251 91.4749 99.031 89.194 101.661 87.0987C106.44 83.295 111.854 80.5934 117.699 78.7733C120.782 77.8153 123.967 77.3518 127.17 77ZM131.144 113.731H151.619C155.659 113.731 159.698 113.731 163.737 113.731C164.822 113.731 164.844 113.716 164.407 112.699C163.803 111.298 163.247 109.869 162.524 108.531C159.267 102.502 154.66 97.6855 148.769 94.1869C142.906 90.7038 136.478 89.242 129.638 89.5497C123.08 89.8444 117.046 91.6268 111.64 95.4228C108.637 97.5349 105.894 99.873 103.583 102.765C101.203 105.738 99.2779 109.044 97.8688 112.576C97.4079 113.731 97.404 113.733 98.6406 113.733L131.144 113.731ZM97.545 126.391C95.2415 126.356 95.2585 126.356 95.265 127.974C95.265 129.254 95.4387 130.512 95.6241 131.774C96.7994 139.734 100.406 146.498 105.94 152.271C108.661 155.108 111.994 157.186 115.419 159.061C118.031 160.489 120.892 161.334 123.814 161.95C124.621 162.12 124.886 161.927 124.859 161.104C124.739 158.247 124.349 155.408 123.695 152.624C122.353 146.764 119.748 141.496 116.026 136.794C114.101 134.362 111.667 132.45 109.133 130.644C105.461 128.027 101.334 126.818 97.545 126.391ZM166.963 128.269C166.963 128.139 166.963 128.021 166.963 127.896C166.993 126.355 166.99 126.29 165.429 126.393C161.042 126.682 157 127.969 153.35 130.488C150.111 132.727 147.202 135.253 144.954 138.518C143.502 140.627 142.145 142.772 141.095 145.115C138.874 150.067 137.617 155.392 137.393 160.809C137.333 162.163 137.393 162.184 138.763 161.862C142.122 161.077 145.347 160 148.322 158.173C151.661 156.12 154.836 153.939 157.441 150.949C159.753 148.297 161.777 145.497 163.318 142.341C165.466 137.939 166.706 133.154 166.963 128.269ZM136.986 126.126C136.978 122.776 134.347 120.089 131.098 120.112C127.799 120.137 125.207 122.819 125.248 126.165C125.287 129.442 127.9 132.12 131.089 132.153C134.251 132.192 136.994 129.386 136.986 126.126Z" fill="#2FCAEC"/>
</g>
<defs>
<filter id="filter0_d_203_670" x="0.390862" y="0.825718" width="260.873" height="260.873" filterUnits="userSpaceOnUse" color-interpolation-filters="sRGB">
<feFlood flood-opacity="0" result="BackgroundImageFix"/>
<feColorMatrix in="SourceAlpha" type="matrix" values="0 0 0 0 0 0 0 0 0 0 0 0 0 0 0 0 0 0 127 0" result="hardAlpha"/>
<feOffset dy="5.43486"/>
<feGaussianBlur stdDeviation="16.3046"/>
<feComposite in2="hardAlpha" operator="out"/>
<feColorMatrix type="matrix" values="0 0 0 0 0 0 0 0 0 0 0 0 0 0 0 0 0 0 0.25 0"/>
<feBlend mode="normal" in2="BackgroundImageFix" result="effect1_dropShadow_203_670"/>
<feBlend mode="normal" in="SourceGraphic" in2="effect1_dropShadow_203_670" result="shape"/>
</filter>
<clipPath id="clip0_203_670">
<rect width="96.3467" height="98.3539" fill="white" transform="translate(83 77)"/>
</clipPath>
</defs>
</svg>
