<svg width="143" height="143" viewBox="0 0 143 143" fill="none" xmlns="http://www.w3.org/2000/svg">
<g filter="url(#filter0_d_201_671)">
<circle cx="71.5" cy="67.5" r="47.5" fill="white"/>
<circle cx="71.5" cy="67.5" r="47.0163" stroke="#2FCAEC" stroke-width="0.967465"/>
</g>
<path d="M91.8442 58.4642V71.9906C91.5401 73.12 90.9294 74.0074 89.8701 74.5527C89.1917 74.9044 88.4616 74.9698 87.7218 74.9714C84.5557 74.9779 81.3893 74.9779 78.2227 74.9714C77.0271 74.9714 77.2546 75.0133 77.2425 74.0187C77.2288 73.1974 76.9368 72.5311 75.7694 72.5472C73.3952 72.5795 71.0202 72.5561 68.6452 72.5569C67.9071 72.5569 67.1689 72.548 66.4316 72.5649C65.758 72.5803 65.4119 72.8965 65.2683 73.5612C65.207 73.8412 65.2288 74.126 65.2256 74.4027C65.2183 74.9528 65.2118 74.9674 64.6608 74.9674C62.8498 74.9674 61.0378 74.9811 59.2267 74.9674C57.4842 74.9528 55.7393 75.0376 53.9976 74.9182C52.0405 74.7834 50.5924 73.2418 50.59 71.2782C50.5846 67.2527 50.5846 63.2274 50.59 59.2024C50.5814 58.9477 50.6028 58.6929 50.6537 58.4433C51.0772 56.6757 52.4971 55.539 54.3162 55.5342C56.959 55.5278 59.6021 55.5294 62.2455 55.539C62.6335 55.539 62.7747 55.4213 62.7538 55.0308C62.7263 54.5226 62.7433 54.0111 62.7481 53.498C62.7546 52.8527 62.7796 52.7938 62.131 53.0729C61.4275 53.3754 60.7152 53.1003 60.4304 52.4638C60.1456 51.8273 60.4062 51.1247 61.0951 50.7834C63.8399 49.4157 66.8359 48.625 69.8981 48.46C72.4192 48.3079 74.9481 48.5776 77.3804 49.2579C78.7766 49.6461 80.1322 50.1675 81.4286 50.8149C82.0683 51.1376 82.3095 51.8289 82.0385 52.4517C81.7674 53.0745 81.0954 53.3391 80.4194 53.1092C80.3173 53.0758 80.2176 53.0357 80.1209 52.989C79.8361 52.8422 79.7038 52.8962 79.7175 53.2439C79.732 53.8207 79.7175 54.3975 79.7175 54.9743C79.7175 55.5269 79.7175 55.5286 80.2822 55.5286C82.9259 55.5286 85.5687 55.5245 88.2115 55.5286C89.2707 55.5286 90.1654 55.9319 90.9003 56.6983C91.3836 57.2074 91.6385 57.8213 91.8442 58.4642ZM71.2268 55.535C73.0774 55.535 74.9288 55.5286 76.7794 55.5407C77.1312 55.5407 77.2522 55.4229 77.2457 55.0728C77.228 54.1474 77.2296 53.2221 77.2457 52.2968C77.2514 51.9822 77.1263 51.8547 76.8319 51.7692C75.429 51.3593 73.9845 51.1084 72.5256 51.0214C70.1928 50.8748 67.8523 51.1308 65.6063 51.7781C65.3207 51.8588 65.2175 51.9959 65.2207 52.2855C65.2328 53.1971 65.2207 54.1095 65.2256 55.0219C65.2256 55.5221 65.2401 55.535 65.7548 55.535H71.2268Z" fill="#2FCAEC"/>
<path d="M91.8437 84.0679C91.5396 85.1973 90.9289 86.0791 89.8704 86.6301C89.2299 86.9633 88.541 87.0464 87.8423 87.0464C76.7746 87.0517 65.7067 87.0534 54.6384 87.0512C53.3105 87.0512 52.1545 86.6648 51.3228 85.566C50.8839 84.986 50.5967 84.3333 50.5967 83.5992C50.5846 81.225 50.5895 78.85 50.5919 76.4759C50.5919 76.0677 50.65 76.033 50.9953 76.2605C52.1198 77.001 53.3573 77.2874 54.6949 77.2802C57.9815 77.2624 61.2681 77.2745 64.5555 77.2745C65.2234 77.2745 65.2218 77.2745 65.2251 77.961C65.2144 78.2021 65.2295 78.4436 65.2702 78.6814C65.4098 79.3018 65.8164 79.6818 66.4513 79.6834C69.6443 79.6931 72.837 79.6931 76.0295 79.6834C76.7362 79.6834 77.1767 79.1913 77.2339 78.4289C77.2522 78.1873 77.2522 77.9446 77.2339 77.7029C77.2073 77.3625 77.3582 77.2439 77.6809 77.2713C77.8672 77.2874 78.0568 77.2713 78.2456 77.2713C81.3853 77.2713 84.5243 77.2544 87.6632 77.2786C89.0726 77.2898 90.3755 77.0035 91.5492 76.2048C91.6372 76.1459 91.7243 76.0765 91.8429 76.0935L91.8437 84.0679Z" fill="#2FCAEC"/>
<path d="M71.2688 74.8601C72.3272 74.8601 73.3856 74.8681 74.444 74.8544C74.7667 74.8544 74.9047 74.9488 74.8918 75.2876C74.8716 75.8233 74.8635 76.3606 74.8918 76.8946C74.9152 77.3036 74.7304 77.3972 74.3698 77.3932C73.2848 77.3811 72.1997 77.3932 71.1139 77.3932C70.0958 77.3932 69.0777 77.3851 68.0596 77.3932C67.7071 77.3932 67.5506 77.2835 67.57 76.9043C67.5974 76.3703 67.5909 75.8322 67.57 75.2973C67.5579 74.9674 67.6773 74.8504 68.0088 74.8552C69.0987 74.869 70.1837 74.8601 71.2688 74.8601Z" fill="#2FCAEC"/>
<defs>
<filter id="filter0_d_201_671" x="0.780834" y="0.650695" width="141.438" height="141.438" filterUnits="userSpaceOnUse" color-interpolation-filters="sRGB">
<feFlood flood-opacity="0" result="BackgroundImageFix"/>
<feColorMatrix in="SourceAlpha" type="matrix" values="0 0 0 0 0 0 0 0 0 0 0 0 0 0 0 0 0 0 127 0" result="hardAlpha"/>
<feOffset dy="3.86986"/>
<feGaussianBlur stdDeviation="11.6096"/>
<feComposite in2="hardAlpha" operator="out"/>
<feColorMatrix type="matrix" values="0 0 0 0 0 0 0 0 0 0 0 0 0 0 0 0 0 0 0.25 0"/>
<feBlend mode="normal" in2="BackgroundImageFix" result="effect1_dropShadow_201_671"/>
<feBlend mode="normal" in="SourceGraphic" in2="effect1_dropShadow_201_671" result="shape"/>
</filter>
</defs>
</svg>
