<svg width="138" height="138" viewBox="0 0 138 138" fill="none" xmlns="http://www.w3.org/2000/svg">
<g filter="url(#filter0_d_201_670)">
<circle cx="69" cy="65" r="46" fill="white"/>
<circle cx="69" cy="65" r="45.5307" stroke="#2FCAEC" stroke-width="0.938524"/>
</g>
<g clip-path="url(#clip0_201_670)">
<path d="M67.6304 42H71.3172C71.3722 42.0195 71.4287 42.0341 71.4862 42.0437C74.0551 42.2726 76.5142 42.8755 78.8306 44.0474C80.595 44.9387 82.307 45.8804 83.7927 47.2156C85.0198 48.3212 86.2 49.4512 87.2027 50.776C88.6959 52.7385 89.8727 54.9208 90.6907 57.2441C91.9995 60.9594 92.3002 64.7627 91.7129 68.6394C91.0273 73.1628 89.0781 77.1094 86.092 80.5618C85.0381 81.7803 83.783 82.7925 82.515 83.7725C80.6029 85.2509 78.3872 86.1884 76.1336 87.0044C74.4533 87.6116 72.6792 87.9 70.8946 87.9722C67.8841 88.0937 64.9286 87.8423 62.0797 86.7069C59.7725 85.7852 57.5555 84.753 55.6484 83.1289C54.4895 82.1446 53.3716 81.1446 52.3884 79.9716C50.2337 77.4033 48.7333 74.512 47.8087 71.311C47.3818 69.8404 47.1506 68.3359 47 66.8131V63.0571C47.0775 62.4676 47.1439 61.8756 47.2354 61.2879C47.8917 57.062 49.6457 53.3243 52.3238 50.0019C53.3173 48.7699 54.4877 47.7031 55.7161 46.7232C57.9483 44.9442 60.4769 43.6806 63.2068 42.8294C64.6468 42.3813 66.1343 42.1645 67.6304 42ZM69.4863 59.1792H79.0495C80.9366 59.1792 82.8232 59.1792 84.7094 59.1792C85.2162 59.1792 85.2266 59.1719 85.0223 58.6965C84.7405 58.0413 84.4807 57.3729 84.1428 56.7469C82.6217 53.9272 80.47 51.6746 77.7187 50.0383C74.9803 48.4093 71.9778 47.7256 68.7831 47.8695C65.7202 48.0073 62.9019 48.8409 60.3769 50.6163C58.9741 51.6042 57.6933 52.6977 56.6138 54.0504C55.5024 55.4409 54.6031 56.987 53.9449 58.6388C53.7296 59.1792 53.7278 59.1798 54.3054 59.1798L69.4863 59.1792ZM53.7937 65.1003C52.7178 65.0839 52.7257 65.0839 52.7288 65.8404C52.7288 66.4391 52.8099 67.0274 52.8965 67.6176C53.4454 71.3407 55.1299 74.5041 57.7147 77.2041C58.9857 78.5308 60.5422 79.5029 62.1419 80.3796C63.3617 81.0475 64.698 81.4428 66.063 81.7312C66.4399 81.8107 66.5637 81.7202 66.5509 81.3353C66.4949 79.9993 66.313 78.6714 66.0075 77.3693C65.3805 74.6285 64.1638 72.1647 62.4255 69.9655C61.5266 68.8283 60.3897 67.9339 59.2059 67.0893C57.4909 65.8653 55.5636 65.3 53.7937 65.1003ZM86.2165 65.9782C86.2165 65.9175 86.2165 65.8623 86.2165 65.804C86.2305 65.0833 86.2287 65.0529 85.4998 65.1009C83.4506 65.2363 81.5629 65.838 79.8583 67.0165C78.3451 68.0632 76.9869 69.2448 75.9366 70.7718C75.2584 71.7585 74.6247 72.7615 74.1344 73.8574C73.0967 76.1732 72.51 78.6639 72.4053 81.1975C72.3773 81.8307 72.4053 81.8405 73.0451 81.6899C74.6138 81.3225 76.1202 80.8192 77.5095 79.9643C79.0691 79.0044 80.5523 77.9843 81.7691 76.586C82.8486 75.3456 83.7939 74.0359 84.5136 72.5599C85.5172 70.5013 86.0962 68.2633 86.2165 65.9782ZM72.215 64.9764C72.2114 63.4093 70.9824 62.1525 69.465 62.1634C67.9244 62.1749 66.7137 63.4293 66.7326 64.9946C66.7509 66.5271 67.9714 67.7797 69.4607 67.7949C70.9379 67.8131 72.2187 66.501 72.215 64.9764Z" fill="#2FCAEC"/>
</g>
<defs>
<filter id="filter0_d_201_670" x="0.475435" y="0.229529" width="137.049" height="137.049" filterUnits="userSpaceOnUse" color-interpolation-filters="sRGB">
<feFlood flood-opacity="0" result="BackgroundImageFix"/>
<feColorMatrix in="SourceAlpha" type="matrix" values="0 0 0 0 0 0 0 0 0 0 0 0 0 0 0 0 0 0 127 0" result="hardAlpha"/>
<feOffset dy="3.75409"/>
<feGaussianBlur stdDeviation="11.2623"/>
<feComposite in2="hardAlpha" operator="out"/>
<feColorMatrix type="matrix" values="0 0 0 0 0 0 0 0 0 0 0 0 0 0 0 0 0 0 0.25 0"/>
<feBlend mode="normal" in2="BackgroundImageFix" result="effect1_dropShadow_201_670"/>
<feBlend mode="normal" in="SourceGraphic" in2="effect1_dropShadow_201_670" result="shape"/>
</filter>
<clipPath id="clip0_201_670">
<rect width="45" height="46" fill="white" transform="translate(47 42)"/>
</clipPath>
</defs>
</svg>
