<svg width="261" height="262" viewBox="0 0 261 262" fill="none" xmlns="http://www.w3.org/2000/svg">
<g filter="url(#filter0_d_203_669)">
<circle cx="130.453" cy="125.827" r="97.8274" fill="white"/>
<circle cx="130.453" cy="125.827" r="97.1481" stroke="#2FCAEC" stroke-width="1.35871"/>
</g>
<path d="M163.291 106.481L158.758 106.104C158.909 103.995 158.985 102.715 158.985 101.962L149.238 97.8192L151.052 93.6768L162.158 98.4218C162.611 98.6477 162.989 98.949 163.216 99.3256C163.518 99.8528 163.745 100.229 163.291 106.481Z" fill="#2FCAEC"/>
<path d="M178.477 135.477C178.401 132.766 178.477 130.054 178.477 127.343C178.477 123.653 177.193 121.92 173.717 120.79C169.486 119.435 165.18 118.154 160.949 116.799C159.891 116.497 158.909 115.97 158.002 115.292C154.904 112.807 151.882 110.246 148.785 107.685C146.442 105.802 144.1 103.844 141.683 102.037C139.492 100.38 136.923 99.4758 134.127 99.4758C127.101 99.4758 120.074 99.4758 113.048 99.4758C111.084 99.4758 109.27 99.9277 107.608 101.057C106.097 102.037 104.51 103.016 103.075 104.145C99.3728 107.309 95.6706 110.472 92.1196 113.786C90.9863 114.84 89.9286 115.518 88.4175 115.669C87.9642 115.669 87.5109 115.895 86.982 115.895C83.5066 116.121 80.7866 118.606 81.0889 122.824C81.24 125.385 81.3911 127.946 81.0889 130.431C80.6355 134.348 81.9199 137.21 84.8665 139.77C86.6798 141.352 88.1909 142.934 90.8352 142.632C90.9863 142.632 91.0619 142.783 91.213 142.858C91.3641 143.386 91.5152 143.913 91.7419 144.44C93.4796 149.637 98.1639 152.951 103.528 152.875C108.741 152.875 113.35 149.411 115.088 144.365C115.163 144.139 115.239 143.913 115.239 143.687C115.314 142.632 115.994 142.406 116.901 142.482C117.203 142.482 117.506 142.482 117.883 142.482C126.723 142.482 135.563 142.482 144.478 142.482C146.594 142.482 146.594 142.482 147.425 144.666C149.238 149.712 153.847 152.951 159.135 152.951C164.197 152.951 168.882 149.562 170.619 144.666C170.846 144.063 170.997 143.461 171.224 142.708C174.095 142.331 174.095 142.331 175.984 140.222C176.437 139.695 176.89 139.092 177.419 138.641C178.175 137.812 178.553 136.758 178.477 135.477ZM103.377 147.528C99.5994 147.528 96.5017 144.515 96.5017 140.749C96.5017 136.984 99.5994 133.971 103.377 133.971C107.23 133.971 110.101 136.984 110.101 140.825C110.101 144.515 107.079 147.453 103.377 147.528ZM119.999 118.832C119.999 118.832 102.395 118.832 102.244 118.757C100.582 118.682 99.8261 117.627 100.506 116.196C102.622 111.903 105.115 107.761 109.27 105.049C109.95 104.597 110.857 104.221 111.688 104.221C114.332 104.145 117.506 104.145 120.15 104.145L119.999 118.832ZM150.598 117.778C150.22 118.757 149.313 118.908 148.407 118.908C147.878 118.908 124.608 118.908 124.608 118.908V113.183C124.608 110.246 124.608 107.233 124.608 104.145C128.385 104.145 132.163 103.769 135.789 104.447C136.696 104.597 137.603 105.125 138.283 105.727C142.136 108.89 145.914 112.129 149.691 115.217C150.522 115.895 151.051 116.723 150.598 117.778ZM158.758 147.528C155.131 147.453 152.109 144.44 152.109 140.825C152.109 136.984 155.131 134.046 158.909 134.046C162.762 134.046 165.709 137.059 165.633 140.9C165.633 144.666 162.611 147.528 158.758 147.528Z" fill="#2FCAEC"/>
<path d="M150.447 155.285C144.554 162.516 137.376 168.165 129.141 172.232C121.359 168.466 114.559 163.194 108.893 156.566C107.306 157.168 105.568 157.47 103.831 157.545C110.479 165.905 118.639 172.382 128.234 176.826C128.536 176.977 128.839 177.052 129.216 177.052C129.594 177.052 129.896 176.977 130.199 176.826C139.945 172.307 148.256 165.679 154.98 157.093C153.318 156.641 151.807 156.039 150.447 155.285Z" fill="#2FCAEC"/>
<path d="M90.1561 109.418C89.0228 103.618 88.7206 98.4215 88.645 96.0113L129.142 78.7638L169.638 96.0113C169.563 98.8734 169.336 105.727 167.674 114.238C168.429 114.464 169.26 114.69 170.016 114.991C170.696 115.217 171.376 115.443 172.056 115.594C174.398 103.618 174.171 94.8816 174.171 94.505C174.171 93.6012 173.642 92.848 172.811 92.4715L130.048 74.1695C129.444 73.9435 128.839 73.9435 128.235 74.1695L85.4718 92.4715C84.6407 92.848 84.1118 93.6765 84.1118 94.505C84.1118 94.8816 84.1118 102.639 85.9251 111.451C85.9251 111.451 89.0228 111.15 90.1561 109.418Z" fill="#2FCAEC"/>
<defs>
<filter id="filter0_d_203_669" x="0.0168381" y="0.825718" width="260.873" height="260.873" filterUnits="userSpaceOnUse" color-interpolation-filters="sRGB">
<feFlood flood-opacity="0" result="BackgroundImageFix"/>
<feColorMatrix in="SourceAlpha" type="matrix" values="0 0 0 0 0 0 0 0 0 0 0 0 0 0 0 0 0 0 127 0" result="hardAlpha"/>
<feOffset dy="5.43486"/>
<feGaussianBlur stdDeviation="16.3046"/>
<feComposite in2="hardAlpha" operator="out"/>
<feColorMatrix type="matrix" values="0 0 0 0 0 0 0 0 0 0 0 0 0 0 0 0 0 0 0.25 0"/>
<feBlend mode="normal" in2="BackgroundImageFix" result="effect1_dropShadow_203_669"/>
<feBlend mode="normal" in="SourceGraphic" in2="effect1_dropShadow_203_669" result="shape"/>
</filter>
</defs>
</svg>
