<svg width="329" height="68" viewBox="0 0 329 68" fill="none" xmlns="http://www.w3.org/2000/svg">
<path d="M121.159 31.67L127.366 46.2477H123.849L122.899 44.032H113.896L112.947 46.2477H109.43L115.795 31.67H121.159ZM115.145 41.1657H121.633L118.996 34.5891H117.87L115.145 41.1657Z" fill="#171717"/>
<path d="M138.866 31.6699C139.423 31.6008 139.989 31.6496 140.527 31.8133C141.064 31.9769 141.561 32.2517 141.986 32.6197C142.41 32.9878 142.752 33.441 142.99 33.9499C143.228 34.4587 143.357 35.012 143.367 35.5737C143.399 36.0477 143.312 36.522 143.116 36.9546C142.919 37.3871 142.619 37.7645 142.242 38.0531C142.919 38.383 143.484 38.9069 143.862 39.5582C144.241 40.2095 144.418 40.9588 144.37 41.7107C144.363 42.3272 144.233 42.936 143.986 43.5009C143.739 44.0658 143.381 44.5751 142.933 44.9985C142.485 45.422 141.956 45.7508 141.378 45.9654C140.8 46.18 140.185 46.2759 139.569 46.2476H129.476V31.6699H138.866ZM132.764 37.2794H138.971C139.135 37.2704 139.296 37.2292 139.444 37.158C139.592 37.0868 139.725 36.987 139.834 36.8645C139.944 36.742 140.028 36.5991 140.082 36.444C140.136 36.2888 140.159 36.1246 140.149 35.9606C140.162 35.7726 140.132 35.5843 140.062 35.4093C139.993 35.2343 139.885 35.077 139.747 34.949C139.609 34.8209 139.444 34.7253 139.264 34.6691C139.084 34.6129 138.894 34.5975 138.708 34.6241H132.764V37.2794ZM132.764 43.2758H139.464C139.685 43.3063 139.911 43.2885 140.125 43.2234C140.339 43.1583 140.537 43.0475 140.704 42.8988C140.871 42.75 141.004 42.5667 141.093 42.3616C141.183 42.1565 141.227 41.9345 141.222 41.7107C141.23 41.4993 141.194 41.2885 141.114 41.0923C141.035 40.8961 140.915 40.719 140.762 40.5727C140.609 40.4264 140.427 40.3143 140.227 40.2437C140.027 40.1731 139.815 40.1457 139.604 40.1633H132.834L132.764 43.2758Z" fill="#171717"/>
<path d="M160.671 31.67V34.6242H154.745V46.2477H151.439V34.6242H145.513V31.67H160.671Z" fill="#171717"/>
<path d="M170.308 46.6169C168.813 46.5345 167.374 46.0157 166.17 45.1247C164.966 44.2337 164.049 43.0095 163.533 41.6034C163.017 40.1972 162.924 38.6706 163.266 37.2122C163.608 35.7538 164.369 34.4275 165.456 33.3971C166.543 32.3667 167.909 31.6773 169.383 31.414C170.858 31.1508 172.377 31.3253 173.754 31.916C175.13 32.5066 176.304 33.4876 177.129 34.7376C177.954 35.9877 178.395 37.4521 178.397 38.95C178.386 39.9897 178.167 41.0166 177.751 41.9696C177.335 42.9227 176.732 43.7824 175.978 44.4977C175.223 45.2129 174.332 45.7691 173.358 46.1332C172.384 46.4973 171.347 46.6618 170.308 46.6169ZM170.308 43.8034C171.263 43.7964 172.195 43.5069 172.985 42.9714C173.776 42.4358 174.39 41.6782 174.751 40.7939C175.112 39.9097 175.202 38.9385 175.012 38.0028C174.821 37.0671 174.358 36.2087 173.68 35.536C173.003 34.8632 172.141 34.4061 171.204 34.2223C170.267 34.0385 169.296 34.1364 168.415 34.5034C167.533 34.8704 166.78 35.4902 166.25 36.2847C165.72 37.0791 165.437 38.0127 165.437 38.9676C165.41 39.613 165.517 40.2572 165.752 40.8588C165.988 41.4604 166.346 42.0062 166.805 42.4614C167.263 42.9166 167.812 43.271 168.415 43.5021C169.018 43.7332 169.663 43.8358 170.308 43.8034Z" fill="#171717"/>
<path d="M22.438 67.9999L0 41.2009L11.8697 41.2185L21.1368 51.9803L55.3214 0H66.9097L22.438 67.9999Z" fill="#2FCAEC"/>
<path d="M63.9369 38.5456H49.412L57.9757 24.6538H69.3705L96.0816 68H80.9589L73.2568 55.1104H52.9641L45.4554 68H31.3877L45.4554 45.1399H68.0166L63.9369 38.5456Z" fill="#171717"/>
<path d="M207.833 31.67V34.6418H197.669V46.2477H194.381V31.67H207.833Z" fill="#171717"/>
<path d="M218.718 31.67L224.926 46.2477H221.409L220.459 44.032H211.456L210.506 46.2477H206.989L213.355 31.67H218.718ZM212.704 41.1657H219.193L216.555 34.5891H215.43L212.704 41.1657Z" fill="#171717"/>
<path d="M235.635 31.67C236.413 31.619 237.193 31.7295 237.925 31.9947C238.658 32.2599 239.328 32.6739 239.893 33.2108C240.458 33.7477 240.906 34.3957 241.208 35.1142C241.51 35.8326 241.66 36.6058 241.649 37.3851C241.659 38.16 241.507 38.9285 241.203 39.6414C240.899 40.3544 240.449 40.9961 239.883 41.5256C239.318 42.0551 238.647 42.4608 237.916 42.7168C237.184 42.9727 236.408 43.0733 235.635 43.0121H230.36V46.2477H227.071V31.67H235.635ZM230.36 40.0052H235.529C235.895 40.0516 236.266 40.0176 236.617 39.9056C236.969 39.7937 237.291 39.6064 237.562 39.3569C237.834 39.1074 238.047 38.8017 238.188 38.4611C238.329 38.1205 238.394 37.7533 238.378 37.3851C238.395 37.0128 238.332 36.6413 238.192 36.2956C238.053 35.9499 237.842 35.6381 237.571 35.3814C237.301 35.1246 236.979 34.9289 236.627 34.8074C236.275 34.6858 235.9 34.6414 235.529 34.677H230.36V40.0052Z" fill="#171717"/>
<path d="M253.905 31.67L260.112 46.2477H256.595L255.646 44.032H246.642L245.693 46.2477H242.176L248.541 31.67H253.905ZM247.891 41.1657H254.38L251.742 34.5891H250.617L247.891 41.1657Z" fill="#171717"/>
<path d="M265.511 31.67V37.1916H273.74V31.6348H277.046V46.2125H273.74V40.1809H265.511V46.2476H262.223V31.67H265.511Z" fill="#171717"/>
<path d="M294.315 31.67V34.6242H288.389V46.2477H285.083V34.6242H279.157V31.67H294.315Z" fill="#171717"/>
<path d="M299.696 31.67V41.7988L308.382 31.67H311.565V46.2477H308.294V36.1717L299.643 46.2477H296.425V31.67H299.696Z" fill="#171717"/>
<path d="M328.324 46.2477H325.053V43.0121H319.62L317.861 46.2477H314.344L316.578 42.2384C315.7 41.7759 314.97 41.0752 314.472 40.2167C313.974 39.3582 313.729 38.3768 313.764 37.3851C313.753 36.6058 313.903 35.8326 314.205 35.1142C314.507 34.3957 314.955 33.7477 315.52 33.2108C316.085 32.6739 316.755 32.2599 317.488 31.9947C318.221 31.7295 319 31.619 319.778 31.67H328.377L328.324 46.2477ZM319.848 34.677C319.478 34.6414 319.103 34.6858 318.751 34.8074C318.399 34.9289 318.077 35.1246 317.806 35.3814C317.536 35.6381 317.325 35.9499 317.185 36.2956C317.046 36.6413 316.983 37.0128 317 37.3851C316.984 37.7533 317.049 38.1205 317.19 38.4611C317.331 38.8017 317.544 39.1074 317.815 39.3569C318.087 39.6064 318.409 39.7937 318.76 39.9056C319.111 40.0176 319.483 40.0516 319.848 40.0052H325.053V34.7298L319.848 34.677Z" fill="#171717"/>
<path d="M115.884 55.462L119.735 64.5181H117.554L116.974 63.1465H111.4L110.819 64.5181H108.621L112.56 55.462H115.884ZM112.156 61.3528H116.182L114.547 57.2732H113.844L112.156 61.3528Z" fill="#2FCAEC"/>
<path d="M126.874 55.462C127.222 55.4175 127.575 55.4467 127.911 55.5477C128.246 55.6486 128.557 55.8191 128.822 56.048C129.087 56.2769 129.302 56.5591 129.451 56.8762C129.6 57.1934 129.681 57.5383 129.688 57.8887C129.708 58.1822 129.654 58.476 129.531 58.7433C129.408 59.0106 129.22 59.2428 128.984 59.4186C129.403 59.63 129.75 59.9589 129.985 60.3649C130.219 60.771 130.33 61.2366 130.303 61.7046C130.296 62.0856 130.214 62.4614 130.06 62.8101C129.906 63.1587 129.685 63.4733 129.408 63.7352C129.131 63.9972 128.805 64.2014 128.449 64.3358C128.092 64.4702 127.712 64.5322 127.331 64.5181H121.071V55.462H126.874ZM123.094 58.979H126.945C127.046 58.9744 127.146 58.9499 127.238 58.9068C127.33 58.8637 127.413 58.8028 127.482 58.7277C127.55 58.6526 127.603 58.5646 127.638 58.469C127.673 58.3733 127.688 58.2717 127.683 58.1701C127.689 58.0531 127.669 57.9363 127.626 57.8276C127.582 57.719 127.515 57.6212 127.43 57.5409C127.344 57.4607 127.243 57.3999 127.132 57.3628C127.021 57.3257 126.903 57.3131 126.786 57.326H123.094V58.979ZM123.094 62.7069H127.261C127.395 62.7193 127.529 62.7034 127.656 62.6602C127.783 62.6169 127.899 62.5474 127.997 62.456C128.095 62.3647 128.172 62.2536 128.224 62.1302C128.276 62.0067 128.302 61.8737 128.299 61.7398C128.307 61.6092 128.286 61.4784 128.239 61.3562C128.193 61.2341 128.12 61.1235 128.027 61.0318C127.933 60.9401 127.821 60.8695 127.698 60.8248C127.575 60.7801 127.444 60.7623 127.314 60.7726H123.094V62.7069Z" fill="#2FCAEC"/>
<path d="M140.414 55.462V57.2204H136.721V64.4477H134.681V57.2204H130.988V55.462H140.414Z" fill="#2FCAEC"/>
<path d="M146.358 64.7468C145.431 64.685 144.542 64.3535 143.801 63.793C143.059 63.2326 142.498 62.4675 142.186 61.5922C141.874 60.7168 141.825 59.7693 142.044 58.8663C142.264 57.9632 142.742 57.1441 143.421 56.5096C144.1 55.8752 144.95 55.4532 145.866 55.2955C146.782 55.1378 147.724 55.2514 148.576 55.6222C149.428 55.993 150.153 56.6049 150.662 57.3825C151.171 58.1601 151.441 59.0696 151.44 59.9989C151.432 60.6485 151.292 61.2897 151.029 61.8839C150.766 62.4781 150.386 63.0131 149.912 63.4566C149.437 63.9001 148.877 64.243 148.267 64.4647C147.656 64.6865 147.007 64.7824 146.358 64.7468ZM146.358 62.9883C146.948 62.9814 147.522 62.8002 148.009 62.4675C148.496 62.1348 148.874 61.6656 149.095 61.1187C149.316 60.5719 149.37 59.972 149.25 59.3944C149.131 58.8169 148.844 58.2875 148.424 57.873C148.005 57.4584 147.472 57.1772 146.893 57.0646C146.314 56.9521 145.715 57.0133 145.171 57.2406C144.627 57.4679 144.162 57.851 143.835 58.3418C143.508 58.8326 143.334 59.4092 143.333 59.9989C143.316 60.3992 143.382 60.7989 143.528 61.172C143.674 61.5451 143.897 61.8834 144.182 62.1651C144.467 62.4468 144.808 62.6656 145.183 62.8074C145.558 62.9492 145.958 63.0108 146.358 62.9883Z" fill="#2FCAEC"/>
<path d="M155.678 55.462L158.861 62.021L162.167 55.462H164.787V64.5181H162.782V58.1876H162.676L159.617 64.5181H157.858L154.922 58.1876H154.816V64.5181H152.847V55.462H155.678Z" fill="#2FCAEC"/>
<path d="M171.45 64.7468C170.523 64.685 169.634 64.3535 168.892 63.793C168.151 63.2326 167.59 62.4675 167.278 61.5922C166.966 60.7168 166.916 59.7693 167.136 58.8663C167.355 57.9632 167.834 57.1441 168.513 56.5096C169.192 55.8752 170.042 55.4532 170.958 55.2955C171.874 55.1378 172.816 55.2514 173.668 55.6222C174.52 55.993 175.245 56.6049 175.754 57.3825C176.263 58.1601 176.533 59.0696 176.532 59.9989C176.523 60.6485 176.384 61.2897 176.121 61.8839C175.858 62.4781 175.478 63.0131 175.003 63.4566C174.529 63.9001 173.969 64.243 173.358 64.4647C172.748 64.6865 172.099 64.7824 171.45 64.7468ZM171.45 62.9883C172.04 62.9814 172.614 62.8002 173.101 62.4675C173.588 62.1348 173.966 61.6656 174.187 61.1187C174.407 60.5719 174.462 59.972 174.342 59.3944C174.223 58.8169 173.936 58.2875 173.516 57.873C173.097 57.4584 172.564 57.1772 171.985 57.0646C171.406 56.9521 170.807 57.0133 170.263 57.2406C169.719 57.4679 169.254 57.851 168.927 58.3418C168.6 58.8326 168.425 59.4092 168.425 59.9989C168.407 60.3992 168.474 60.7989 168.62 61.172C168.766 61.5451 168.989 61.8834 169.274 62.1651C169.559 62.4468 169.9 62.6656 170.275 62.8074C170.649 62.9492 171.05 63.0108 171.45 62.9883Z" fill="#2FCAEC"/>
<path d="M185.87 55.462V57.2205H180.067V58.3986H183.813C184.22 58.3696 184.63 58.425 185.015 58.5613C185.4 58.6976 185.753 58.9119 186.052 59.1908C186.351 59.4697 186.588 59.8072 186.751 60.1822C186.913 60.5573 186.996 60.9618 186.995 61.3704C186.996 61.7836 186.913 62.1926 186.752 62.573C186.59 62.9534 186.354 63.2974 186.057 63.5846C185.76 63.8718 185.408 64.0962 185.023 64.2445C184.637 64.3928 184.226 64.4619 183.813 64.4478H178.045V55.3917L185.87 55.462ZM180.067 62.6893H183.672C183.843 62.7114 184.016 62.6945 184.18 62.6401C184.343 62.5857 184.492 62.4951 184.615 62.3751C184.739 62.255 184.834 62.1087 184.892 61.9469C184.951 61.7851 184.973 61.6121 184.956 61.4408C184.956 60.7726 184.604 60.2626 183.654 60.2626H180.138L180.067 62.6893Z" fill="#2FCAEC"/>
<path d="M190.336 55.462V61.81L195.717 55.5147H197.704V64.5708H195.664V58.2931L190.388 64.5532H188.401V55.4971L190.336 55.462Z" fill="#2FCAEC"/>
<path d="M208.994 55.462V64.5181H206.937V57.2908H203.42L202.505 62.2145C202.474 62.5483 202.378 62.8727 202.222 63.1692C202.065 63.4657 201.852 63.7285 201.594 63.9424C201.336 64.1564 201.038 64.3173 200.718 64.4161C200.397 64.5149 200.061 64.5495 199.727 64.5181H198.637V62.6541H199.621C199.725 62.6663 199.831 62.6577 199.932 62.6289C200.032 62.6 200.126 62.5515 200.208 62.4861C200.29 62.4207 200.358 62.3396 200.408 62.2477C200.458 62.1558 200.49 62.0549 200.501 61.9507L201.714 55.462H208.994Z" fill="#2FCAEC"/>
<path d="M212.616 55.462V61.81L217.997 55.5147H219.984V64.5708H217.944V58.2931L212.581 64.5532H210.576V55.4971L212.616 55.462Z" fill="#2FCAEC"/>
<path d="M234.228 58.5921C233.905 58.0919 233.455 57.6865 232.923 57.4177C232.392 57.1489 231.798 57.0262 231.204 57.0623C230.807 57.0317 230.408 57.0861 230.035 57.2219C229.661 57.3577 229.32 57.5717 229.035 57.8497C228.751 58.1276 228.529 58.4631 228.384 58.8338C228.239 59.2044 228.176 59.6016 228.197 59.9989C228.181 60.3948 228.249 60.7895 228.395 61.1575C228.542 61.5255 228.764 61.8587 229.048 62.1355C229.331 62.4123 229.669 62.6265 230.041 62.7643C230.412 62.9021 230.808 62.9605 231.204 62.9356C231.798 62.9716 232.392 62.849 232.923 62.5801C233.455 62.3113 233.905 61.906 234.228 61.4057L235.811 62.3201C235.348 63.1078 234.675 63.7516 233.868 64.18C233.061 64.6084 232.151 64.8046 231.239 64.7468C230.581 64.8034 229.919 64.7228 229.294 64.5099C228.669 64.2971 228.095 63.9566 227.608 63.5102C227.122 63.0638 226.733 62.5212 226.467 61.9167C226.202 61.3123 226.064 60.6592 226.064 59.9989C226.064 59.3386 226.202 58.6855 226.467 58.0811C226.733 57.4766 227.122 56.934 227.608 56.4876C228.095 56.0412 228.669 55.7008 229.294 55.4879C229.919 55.275 230.581 55.1944 231.239 55.2511C232.151 55.1933 233.061 55.3894 233.868 55.8178C234.675 56.2462 235.348 56.89 235.811 57.6777L234.228 58.5921Z" fill="#2FCAEC"/>
<path d="M250.898 55.462V64.5181H248.858V57.2732H244.005V64.5181H241.982V55.462H250.898Z" fill="#2FCAEC"/>
<path d="M257.879 55.462C258.358 55.4331 258.838 55.5028 259.29 55.6666C259.741 55.8304 260.154 56.0849 260.503 56.4144C260.853 56.7439 261.131 57.1414 261.32 57.5824C261.51 58.0235 261.608 58.4987 261.607 58.9789C261.608 59.459 261.51 59.9343 261.32 60.3753C261.131 60.8164 260.853 61.2139 260.503 61.5434C260.154 61.8729 259.741 62.1274 259.29 62.2912C258.838 62.455 258.358 62.5246 257.879 62.4958H254.591V64.5181H252.551V55.462H257.879ZM254.591 60.6319H257.791C258.017 60.6602 258.246 60.6389 258.462 60.5697C258.679 60.5004 258.878 60.3847 259.045 60.2307C259.213 60.0767 259.345 59.8881 259.432 59.678C259.519 59.4679 259.559 59.2413 259.549 59.0141C259.568 58.7784 259.535 58.5416 259.453 58.3198C259.371 58.0981 259.243 57.8967 259.075 57.7296C258.908 57.5624 258.707 57.4335 258.485 57.3517C258.263 57.2699 258.027 57.2371 257.791 57.2556H254.591V60.6319Z" fill="#2FCAEC"/>
<path d="M267.885 64.7468C266.958 64.685 266.069 64.3535 265.328 63.793C264.587 63.2326 264.025 62.4675 263.713 61.5922C263.401 60.7168 263.352 59.7693 263.571 58.8663C263.791 57.9632 264.27 57.1441 264.949 56.5096C265.628 55.8752 266.478 55.4532 267.393 55.2955C268.309 55.1378 269.251 55.2514 270.104 55.6222C270.956 55.993 271.681 56.6049 272.19 57.3825C272.698 58.1601 272.969 59.0696 272.967 59.9989C272.961 60.6493 272.823 61.2916 272.562 61.887C272.3 62.4824 271.92 63.0183 271.444 63.4623C270.969 63.9063 270.409 64.2491 269.797 64.4699C269.185 64.6907 268.535 64.7849 267.885 64.7468ZM267.885 62.9883C268.475 62.9814 269.05 62.8002 269.537 62.4675C270.024 62.1348 270.401 61.6656 270.622 61.1187C270.843 60.5719 270.897 59.972 270.778 59.3944C270.659 58.8169 270.371 58.2875 269.952 57.873C269.532 57.4584 269 57.1772 268.421 57.0646C267.842 56.9521 267.243 57.0133 266.698 57.2406C266.154 57.4679 265.689 57.851 265.362 58.3418C265.035 58.8326 264.861 59.4092 264.861 59.9989C264.843 60.3992 264.909 60.7989 265.055 61.172C265.202 61.5451 265.424 61.8834 265.709 62.1651C265.994 62.4468 266.335 62.6656 266.71 62.8074C267.085 62.9492 267.485 63.0108 267.885 62.9883Z" fill="#2FCAEC"/>
<path d="M282.305 55.462V57.2205H276.502V58.3986H280.265C280.672 58.3695 281.08 58.4249 281.464 58.5614C281.849 58.6978 282.201 58.9124 282.498 59.1916C282.795 59.4707 283.032 59.8085 283.192 60.1835C283.353 60.5585 283.433 60.9626 283.43 61.3704C283.433 61.7828 283.352 62.1914 283.193 62.5717C283.033 62.952 282.799 63.2962 282.503 63.5837C282.208 63.8711 281.857 64.0958 281.472 64.2443C281.088 64.3928 280.677 64.462 280.265 64.4478H274.479V55.3917L282.305 55.462ZM276.502 62.6893H280.019C280.19 62.7108 280.364 62.6938 280.528 62.6395C280.692 62.5852 280.842 62.4949 280.967 62.3752C281.092 62.2556 281.188 62.1096 281.249 61.9479C281.31 61.7863 281.334 61.613 281.32 61.4408C281.32 60.7726 280.951 60.2626 280.001 60.2626H276.484L276.502 62.6893Z" fill="#2FCAEC"/>
<path d="M292.961 55.462V57.3084H286.789V58.979H292.346V60.8254H286.789V62.5838H293.19V64.4654H284.749V55.4093L292.961 55.462Z" fill="#2FCAEC"/>
<path d="M303.072 55.462V57.3084H296.777V64.5181H294.72V55.462H303.072Z" fill="#2FCAEC"/>
<path d="M308.98 64.7468C308.053 64.685 307.164 64.3535 306.422 63.793C305.681 63.2326 305.12 62.4675 304.808 61.5922C304.496 60.7168 304.447 59.7693 304.666 58.8663C304.886 57.9632 305.364 57.1441 306.043 56.5096C306.722 55.8752 307.572 55.4532 308.488 55.2955C309.404 55.1378 310.346 55.2514 311.198 55.6222C312.05 55.993 312.775 56.6049 313.284 57.3825C313.793 58.1601 314.063 59.0696 314.062 59.9989C314.056 60.6493 313.918 61.2916 313.656 61.887C313.394 62.4824 313.014 63.0183 312.539 63.4623C312.064 63.9063 311.503 64.2491 310.891 64.4699C310.28 64.6907 309.629 64.7849 308.98 64.7468ZM308.98 62.9883C309.57 62.9814 310.144 62.8002 310.631 62.4675C311.118 62.1348 311.496 61.6656 311.717 61.1187C311.938 60.5719 311.992 59.972 311.873 59.3944C311.753 58.8169 311.466 58.2875 311.046 57.873C310.627 57.4584 310.094 57.1772 309.515 57.0646C308.936 56.9521 308.337 57.0133 307.793 57.2406C307.249 57.4679 306.784 57.851 306.457 58.3418C306.13 58.8326 305.956 59.4092 305.956 59.9989C305.938 60.3992 306.004 60.7989 306.15 61.172C306.296 61.5451 306.519 61.8834 306.804 62.1651C307.089 62.4468 307.43 62.6656 307.805 62.8074C308.18 62.9492 308.58 63.0108 308.98 62.9883Z" fill="#2FCAEC"/>
<path d="M318.301 55.462L321.484 62.021L324.789 55.462H327.41V64.5181H325.387V58.1876L322.31 64.5181H320.552L317.597 58.1876V64.5181H315.61V55.462H318.301Z" fill="#2FCAEC"/>
<path d="M186.485 29.9818H184.727V47.1972H186.485V29.9818Z" fill="#2FCAEC"/>
</svg>
