<svg width="387" height="137" viewBox="0 0 387 137" fill="none" xmlns="http://www.w3.org/2000/svg">
<path d="M186.733 59.432V64.3459H169.956V83.5362H164.489V59.432H186.733Z" fill="#2FCAEC"/>
<path d="M204.76 59.432L214.995 83.5362H209.18L207.61 79.8727H192.752L191.181 83.5362H185.366L195.863 59.432H204.76ZM194.816 75.1042H205.545L201.184 64.2586H199.294L194.816 75.1042Z" fill="#2FCAEC"/>
<path d="M232.702 59.4321C233.988 59.3476 235.277 59.5304 236.489 59.9689C237.701 60.4074 238.809 61.0921 239.743 61.9798C240.677 62.8675 241.417 63.9389 241.917 65.1268C242.417 66.3147 242.665 67.5933 242.646 68.8819C242.663 70.1621 242.411 71.4318 241.908 72.6092C241.406 73.7867 240.662 74.846 239.726 75.7194C238.789 76.5927 237.681 77.2605 236.472 77.6804C235.262 78.1002 233.978 78.2627 232.702 78.1572H223.979V83.5363H218.513V59.4321H232.702ZM223.979 73.1851H232.528C233.13 73.2614 233.741 73.2059 234.319 73.0224C234.898 72.8389 235.43 72.5319 235.878 72.1226C236.326 71.7133 236.679 71.2115 236.914 70.6519C237.149 70.0924 237.26 69.4884 237.238 68.8819C237.265 68.2652 237.16 67.6497 236.93 67.0769C236.7 66.504 236.351 65.987 235.905 65.5602C235.459 65.1335 234.927 64.807 234.344 64.6026C233.762 64.3982 233.142 64.3206 232.528 64.3751H223.979V73.1851Z" fill="#2FCAEC"/>
<path d="M262.941 59.432L273.176 83.5362H267.361L265.791 79.8727H250.933L249.363 83.5362H243.547L254.044 59.432H262.941ZM252.997 75.1042H263.726L259.365 64.2586H257.475L252.997 75.1042Z" fill="#2FCAEC"/>
<path d="M282.132 59.432V68.62H295.74V59.432H301.177V83.5362H295.74V73.505H282.132V83.5362H276.666V59.432H282.132Z" fill="#2FCAEC"/>
<path d="M329.76 59.432V64.2877H319.932V83.5362H314.495V64.2877H304.667V59.432H329.76Z" fill="#2FCAEC"/>
<path d="M338.657 59.432V76.1509L352.991 59.432H358.283V83.5362H352.875V66.8755L338.569 83.5362H333.249V59.432H338.657Z" fill="#2FCAEC"/>
<path d="M386.08 83.5363H380.643V78.1572H371.542L368.634 83.5363H362.819L366.541 76.907C365.084 76.1463 363.871 74.9893 363.043 73.5695C362.215 72.1497 361.804 70.5247 361.859 68.8819C361.841 67.5933 362.089 66.3147 362.588 65.1268C363.088 63.9389 363.828 62.8675 364.762 61.9798C365.697 61.0921 366.804 60.4074 368.016 59.9689C369.228 59.5304 370.518 59.3476 371.804 59.4321H386.08V83.5363ZM372.094 64.3751C371.479 64.3206 370.86 64.3982 370.278 64.6026C369.695 64.807 369.163 65.1335 368.717 65.5602C368.271 65.987 367.921 66.504 367.691 67.0769C367.461 67.6497 367.357 68.2652 367.384 68.8819C367.362 69.4884 367.473 70.0924 367.708 70.6519C367.943 71.2115 368.296 71.7133 368.744 72.1226C369.192 72.5319 369.724 72.8389 370.302 73.0224C370.881 73.2059 371.492 73.2614 372.094 73.1851H380.643V64.4622L372.094 64.3751Z" fill="#2FCAEC"/>
<path d="M170.217 96.3008L174.142 105.547H171.933L171.322 104.122H165.652L165.041 105.547H162.803L166.844 96.3008H170.217ZM166.408 102.32H170.508L168.85 98.1617H168.007L166.408 102.32Z" fill="#171717"/>
<path d="M181.412 96.3008C181.769 96.2516 182.132 96.2782 182.478 96.3791C182.824 96.4799 183.144 96.6526 183.419 96.8859C183.693 97.1192 183.915 97.4079 184.071 97.733C184.226 98.058 184.311 98.4123 184.32 98.7724C184.343 99.0744 184.288 99.3772 184.161 99.6521C184.033 99.9269 183.838 100.165 183.593 100.342C184.029 100.547 184.393 100.878 184.637 101.294C184.881 101.709 184.993 102.188 184.959 102.669C184.959 103.44 184.653 104.179 184.108 104.724C183.562 105.27 182.823 105.576 182.052 105.576H175.684V96.3299L181.412 96.3008ZM177.545 99.8771H181.47C181.681 99.8622 181.878 99.766 182.019 99.6086C182.16 99.4513 182.234 99.2452 182.226 99.034C182.226 98.6269 182.023 98.1908 181.296 98.1908H177.545V99.8771ZM177.545 103.657H181.79C181.927 103.669 182.065 103.653 182.195 103.608C182.325 103.564 182.445 103.493 182.546 103.4C182.647 103.307 182.728 103.194 182.783 103.068C182.838 102.942 182.866 102.806 182.866 102.669C182.87 102.535 182.847 102.402 182.797 102.278C182.747 102.154 182.671 102.042 182.576 101.949C182.48 101.856 182.365 101.784 182.24 101.738C182.115 101.691 181.982 101.672 181.848 101.68H177.545V103.657Z" fill="#171717"/>
<path d="M195.194 96.3008V98.1908H191.443V105.547H189.35V98.1908H185.599V96.3008H195.194Z" fill="#171717"/>
<path d="M201.242 105.78C200.298 105.717 199.392 105.381 198.637 104.811C197.882 104.241 197.309 103.462 196.99 102.571C196.671 101.68 196.62 100.716 196.841 99.7957C197.063 98.8758 197.549 98.0408 198.239 97.3933C198.93 96.7458 199.794 96.3141 200.726 96.1512C201.658 95.9883 202.618 96.1014 203.486 96.4765C204.355 96.8516 205.095 97.4724 205.616 98.2625C206.137 99.0527 206.416 99.9777 206.418 100.924C206.411 101.587 206.27 102.242 206.003 102.849C205.736 103.456 205.35 104.003 204.866 104.456C204.382 104.91 203.812 105.261 203.189 105.489C202.567 105.716 201.904 105.815 201.242 105.78ZM201.242 103.977C201.845 103.971 202.432 103.787 202.93 103.448C203.428 103.109 203.815 102.631 204.042 102.072C204.269 101.514 204.325 100.901 204.204 100.311C204.083 99.7204 203.79 99.1791 203.361 98.755C202.933 98.3309 202.389 98.0431 201.798 97.9276C201.207 97.8122 200.594 97.8743 200.038 98.1062C199.482 98.3381 199.007 98.7294 198.672 99.2308C198.338 99.7322 198.16 100.321 198.16 100.924C198.139 101.333 198.204 101.742 198.352 102.124C198.5 102.506 198.726 102.852 199.017 103.141C199.308 103.429 199.657 103.652 200.04 103.796C200.424 103.941 200.833 104.002 201.242 103.977Z" fill="#171717"/>
<path d="M210.721 96.3008L213.948 102.988L217.321 96.3008H219.996V105.547H217.932V99.0631L214.821 105.547H213.047L210.139 99.0631V105.547H208.104V96.3008H210.721Z" fill="#171717"/>
<path d="M226.771 105.78C225.827 105.717 224.922 105.381 224.166 104.811C223.411 104.241 222.838 103.462 222.52 102.571C222.201 101.68 222.149 100.716 222.371 99.7957C222.593 98.8758 223.079 98.0408 223.769 97.3933C224.459 96.7458 225.323 96.3141 226.255 96.1512C227.187 95.9883 228.147 96.1014 229.016 96.4765C229.885 96.8516 230.625 97.4724 231.146 98.2625C231.666 99.0527 231.945 99.9777 231.947 100.924C231.94 101.587 231.799 102.242 231.532 102.849C231.266 103.456 230.879 104.003 230.395 104.456C229.912 104.91 229.341 105.261 228.719 105.489C228.096 105.716 227.433 105.815 226.771 105.78ZM226.771 103.977C227.581 103.977 228.357 103.655 228.93 103.083C229.503 102.51 229.824 101.734 229.824 100.924C229.824 100.114 229.503 99.3377 228.93 98.7651C228.357 98.1926 227.581 97.8708 226.771 97.8708C225.962 97.8708 225.185 98.1926 224.612 98.7651C224.04 99.3377 223.718 100.114 223.718 100.924C223.718 101.734 224.04 102.51 224.612 103.083C225.185 103.655 225.962 103.977 226.771 103.977Z" fill="#171717"/>
<path d="M241.453 96.3008V98.1908H235.638V99.3537H239.447C239.857 99.3042 240.273 99.3425 240.667 99.4663C241.061 99.59 241.424 99.7963 241.733 100.071C242.041 100.347 242.287 100.684 242.454 101.062C242.622 101.439 242.707 101.848 242.704 102.261C242.704 102.684 242.619 103.102 242.454 103.491C242.289 103.879 242.047 104.231 241.743 104.524C241.439 104.817 241.079 105.046 240.685 105.197C240.29 105.348 239.869 105.417 239.447 105.402H233.632V96.1554L241.453 96.3008ZM235.638 103.657H239.302C239.474 103.679 239.649 103.663 239.814 103.609C239.978 103.555 240.129 103.465 240.255 103.345C240.38 103.225 240.477 103.078 240.539 102.916C240.6 102.754 240.624 102.58 240.61 102.407C240.61 101.709 240.261 101.186 239.302 101.186H235.638V103.657Z" fill="#171717"/>
<path d="M245.99 96.3008V102.727L251.485 96.3008H253.52V105.547H251.456V99.1502L245.961 105.547H243.925V96.3008H245.99Z" fill="#171717"/>
<path d="M264.948 96.3008V105.547H262.855V98.1908H259.336L258.406 103.192C258.333 103.89 257.985 104.53 257.44 104.972C256.895 105.413 256.196 105.62 255.498 105.547H254.394V103.628H255.411C255.621 103.646 255.831 103.584 255.998 103.455C256.165 103.325 256.277 103.138 256.313 102.93L257.534 96.3008H264.948Z" fill="#171717"/>
<path d="M268.669 96.3008V102.727L274.165 96.3008H276.2V105.547H274.107V99.1502L268.64 105.547H266.605V96.3008H268.669Z" fill="#171717"/>
<path d="M290.709 99.4992C290.372 98.991 289.907 98.5808 289.361 98.3102C288.815 98.0396 288.206 97.9181 287.598 97.9581C286.827 97.9581 286.087 98.2645 285.542 98.8098C284.997 99.3551 284.69 100.095 284.69 100.866C284.69 101.637 284.997 102.376 285.542 102.922C286.087 103.467 286.827 103.773 287.598 103.773C288.206 103.807 288.812 103.683 289.357 103.413C289.902 103.143 290.368 102.736 290.709 102.232L292.308 103.163C291.83 103.964 291.14 104.619 290.314 105.055C289.489 105.491 288.559 105.691 287.627 105.634C286.96 105.686 286.289 105.599 285.657 105.379C285.025 105.16 284.445 104.811 283.954 104.357C283.462 103.902 283.07 103.351 282.802 102.738C282.534 102.124 282.396 101.462 282.396 100.793C282.396 100.124 282.534 99.4617 282.802 98.8485C283.07 98.2352 283.462 97.6838 283.954 97.2292C284.445 96.7746 285.025 96.4265 285.657 96.2067C286.289 95.9868 286.96 95.9001 287.627 95.9518C288.56 95.8913 289.491 96.0902 290.317 96.5265C291.143 96.9627 291.832 97.6192 292.308 98.4232L290.709 99.4992Z" fill="#171717"/>
<path d="M307.574 96.3008V105.547H305.51V98.1617H300.567V105.547H298.502V96.3008H307.574Z" fill="#171717"/>
<path d="M314.785 96.3007C315.276 96.2726 315.768 96.3462 316.23 96.517C316.692 96.6878 317.113 96.9521 317.468 97.2932C317.823 97.6344 318.103 98.0452 318.292 98.4998C318.481 98.9544 318.574 99.443 318.565 99.9352C318.57 100.423 318.474 100.906 318.283 101.354C318.092 101.802 317.81 102.206 317.454 102.54C317.099 102.873 316.678 103.129 316.219 103.291C315.759 103.454 315.271 103.519 314.785 103.483H311.412V105.547H309.348V96.3007H314.785ZM311.412 101.593H314.698C314.928 101.617 315.161 101.593 315.382 101.52C315.602 101.448 315.804 101.329 315.975 101.172C316.145 101.015 316.28 100.824 316.371 100.611C316.462 100.397 316.506 100.167 316.5 99.9352C316.51 99.6999 316.469 99.4653 316.38 99.2472C316.291 99.029 316.157 98.8323 315.987 98.67C315.816 98.5077 315.613 98.3835 315.391 98.3059C315.168 98.2282 314.932 98.199 314.698 98.2198H311.412V101.593Z" fill="#171717"/>
<path d="M325.019 105.78C324.075 105.717 323.17 105.381 322.414 104.811C321.659 104.241 321.087 103.462 320.768 102.571C320.449 101.68 320.397 100.716 320.619 99.7957C320.841 98.8758 321.327 98.0408 322.017 97.3933C322.707 96.7458 323.571 96.3141 324.503 96.1512C325.436 95.9883 326.395 96.1014 327.264 96.4765C328.133 96.8516 328.873 97.4724 329.394 98.2625C329.914 99.0527 330.193 99.9777 330.195 100.924C330.188 101.587 330.047 102.242 329.78 102.849C329.514 103.456 329.127 104.003 328.643 104.456C328.16 104.91 327.59 105.261 326.967 105.489C326.344 105.716 325.681 105.815 325.019 105.78ZM325.019 103.977C325.622 103.971 326.209 103.787 326.708 103.448C327.206 103.109 327.592 102.631 327.819 102.072C328.046 101.514 328.102 100.901 327.981 100.311C327.86 99.7204 327.567 99.1791 327.139 98.755C326.711 98.3309 326.167 98.0431 325.575 97.9276C324.984 97.8122 324.371 97.8743 323.815 98.1062C323.259 98.3381 322.784 98.7294 322.45 99.2308C322.116 99.7322 321.937 100.321 321.937 100.924C321.916 101.333 321.981 101.742 322.129 102.124C322.277 102.506 322.504 102.852 322.795 103.141C323.086 103.429 323.434 103.652 323.818 103.796C324.201 103.941 324.611 104.002 325.019 103.977Z" fill="#171717"/>
<path d="M339.557 96.3008V98.1908H333.742V99.3537H337.551C337.959 99.3086 338.372 99.3504 338.762 99.4762C339.153 99.602 339.512 99.8089 339.817 100.083C340.122 100.358 340.365 100.694 340.531 101.07C340.697 101.445 340.781 101.851 340.779 102.261C340.779 102.681 340.695 103.097 340.531 103.484C340.368 103.87 340.129 104.221 339.828 104.513C339.527 104.806 339.171 105.036 338.78 105.188C338.389 105.341 337.971 105.413 337.551 105.402H331.736V96.1554L339.557 96.3008ZM333.742 103.657H337.406C337.578 103.679 337.753 103.663 337.918 103.609C338.082 103.555 338.233 103.465 338.359 103.345C338.484 103.225 338.581 103.078 338.643 102.916C338.704 102.754 338.729 102.58 338.714 102.407C338.714 101.709 338.365 101.186 337.377 101.186H333.742V103.657Z" fill="#171717"/>
<path d="M350.491 96.3008V98.1908H344.21V99.9062H349.851V101.767H344.21V103.628H350.723V105.547H342V96.3008H350.491Z" fill="#171717"/>
<path d="M360.784 96.3008V98.1908H354.358V105.547H352.265V96.3008H360.784Z" fill="#171717"/>
<path d="M366.803 105.78C365.858 105.717 364.953 105.381 364.197 104.811C363.442 104.241 362.87 103.462 362.551 102.571C362.232 101.68 362.18 100.716 362.402 99.7957C362.624 98.8758 363.11 98.0408 363.8 97.3933C364.49 96.7458 365.354 96.3141 366.287 96.1512C367.219 95.9883 368.178 96.1014 369.047 96.4765C369.916 96.8516 370.656 97.4724 371.177 98.2625C371.697 99.0527 371.976 99.9777 371.978 100.924C371.971 101.587 371.83 102.242 371.564 102.849C371.297 103.456 370.91 104.003 370.427 104.456C369.943 104.91 369.373 105.261 368.75 105.489C368.127 105.716 367.465 105.815 366.803 105.78ZM366.803 103.977C367.405 103.971 367.993 103.787 368.491 103.448C368.989 103.109 369.376 102.631 369.602 102.072C369.829 101.514 369.885 100.901 369.764 100.311C369.643 99.7204 369.35 99.1791 368.922 98.755C368.494 98.3309 367.95 98.0431 367.359 97.9276C366.767 97.8122 366.155 97.8743 365.599 98.1062C365.042 98.3381 364.567 98.7294 364.233 99.2308C363.899 99.7322 363.72 100.321 363.72 100.924C363.699 101.333 363.765 101.742 363.912 102.124C364.06 102.506 364.287 102.852 364.578 103.141C364.869 103.429 365.218 103.652 365.601 103.796C365.984 103.941 366.394 104.002 366.803 103.977Z" fill="#171717"/>
<path d="M376.281 96.3008L379.537 102.988L382.91 96.3008H385.585V105.547H383.521V99.0631L380.264 105.547H378.49L375.583 99.0631V105.547H373.547V96.3008H376.281Z" fill="#171717"/>
<path d="M70.7179 45.9697L56.0635 31.3152L59.1456 28.2331L70.3109 39.3984L101.277 0L104.708 2.7041L70.7179 45.9697Z" fill="#171717"/>
<path d="M124.655 30.0359C124.655 36.9851 124.655 43.4691 124.422 49.5751H127.33C127.504 42.9166 127.562 35.8221 127.562 28.2041V26.314L125.73 26.8085C116.632 28.8568 107.208 29.0051 98.0497 27.2445C97.8171 28.204 97.5264 29.1054 97.2065 30.1521C106.281 31.8455 115.595 31.8061 124.655 30.0359Z" fill="#2FCAEC"/>
<path d="M17.799 49.5751C17.6245 43.4691 17.5663 36.9851 17.5663 30.0359C27.4798 31.9269 37.6779 31.7388 47.5149 29.4834C47.2111 28.5284 46.9588 27.5578 46.7589 26.5758C36.7973 28.8475 26.4521 28.8475 16.4905 26.5758L14.6587 26.0815V27.9714C14.6587 35.5894 14.6587 42.6841 14.8914 49.3426L17.799 49.5751Z" fill="#2FCAEC"/>
<path d="M116.862 95.9227C109.826 112.06 96.509 123.574 71.0963 133.431C45.7708 123.574 32.3958 112.06 25.3593 95.9227H22.4517C29.6626 113.368 43.6482 125.929 70.7183 136.339L71.2127 136.542L71.736 136.339C98.8061 125.929 112.792 113.339 120.003 95.9227H116.862Z" fill="#2FCAEC"/>
<path d="M147.16 94.4399H0.353516V97.3475H147.16V94.4399Z" fill="#2FCAEC"/>
<path d="M36.4372 59.8391L46.4977 83.5362H40.8569L39.3158 79.9308H24.7776L23.2366 83.5362H17.4214L27.7434 59.8391H36.4372ZM26.6676 75.424H37.1641L32.89 64.753H31.0582L26.6676 75.424Z" fill="#171717"/>
<path d="M65.1943 59.8391C66.1 59.7294 67.0188 59.8103 67.8914 60.0767C68.7641 60.3431 69.5713 60.789 70.2613 61.3859C70.9514 61.9829 71.5089 62.7176 71.8981 63.5429C72.2873 64.3681 72.4996 65.2656 72.5214 66.1777C72.5682 66.9526 72.4229 67.727 72.0983 68.4321C71.7736 69.1372 71.2798 69.7512 70.6606 70.2194C71.7519 70.7353 72.6658 71.5629 73.2868 72.598C73.9078 73.633 74.208 74.829 74.1496 76.0346C74.1389 77.0361 73.9269 78.0251 73.5264 78.943C73.1258 79.8609 72.5448 80.6889 71.8179 81.3778C71.091 82.0668 70.2331 82.6026 69.295 82.9534C68.3569 83.3042 67.3578 83.4629 66.3572 83.42H49.9292V59.7227L65.1943 59.8391ZM55.2791 68.9691H65.3687C65.9061 68.9317 66.4076 68.6857 66.7661 68.2837C67.1246 67.8817 67.3117 67.3554 67.2877 66.8173C67.3029 66.5117 67.2509 66.2064 67.1354 65.9231C67.0199 65.6397 66.8437 65.3852 66.6192 65.1773C66.3946 64.9694 66.1272 64.8132 65.8358 64.7198C65.5444 64.6264 65.2361 64.598 64.9325 64.6366H55.2791V68.9691ZM55.2791 78.6805H66.241C66.5918 78.718 66.9466 78.6801 67.2815 78.569C67.6163 78.458 67.9235 78.2765 68.1825 78.0368C68.4414 77.7972 68.6459 77.505 68.7825 77.1797C68.919 76.8543 68.9844 76.5035 68.9741 76.1509C68.9873 75.8076 68.9279 75.4655 68.7999 75.1468C68.6718 74.828 68.478 74.5399 68.2311 74.3011C67.9841 74.0624 67.6895 73.8786 67.3666 73.7614C67.0438 73.6443 66.6998 73.5965 66.3572 73.6212H55.3374L55.2791 78.6805Z" fill="#171717"/>
<path d="M100.637 59.8391V64.6366H90.9839V83.5362H85.6338V64.6366H75.9805V59.8391H100.637Z" fill="#171717"/>
<path d="M116.135 84.1469C113.716 83.9826 111.399 83.1156 109.466 81.6522C107.533 80.1888 106.07 78.1928 105.256 75.9093C104.442 73.6259 104.313 71.1543 104.884 68.7984C105.455 66.4425 106.702 64.3046 108.472 62.6475C110.241 60.9904 112.456 59.8863 114.844 59.4705C117.232 59.0547 119.69 59.3456 121.915 60.3073C124.141 61.269 126.036 62.8597 127.37 64.884C128.704 66.9083 129.417 69.2779 129.423 71.7021C129.406 73.4036 129.044 75.084 128.36 76.6417C127.675 78.1995 126.682 79.6024 125.44 80.7656C124.198 81.9287 122.733 82.8279 121.134 83.4091C119.535 83.9903 117.834 84.2413 116.135 84.1469ZM116.135 79.5527C117.684 79.5355 119.193 79.0605 120.473 78.1875C121.752 77.3145 122.745 76.0824 123.326 74.6465C123.907 73.2105 124.05 71.6349 123.737 70.1179C123.424 68.6008 122.67 67.2101 121.568 66.1209C120.467 65.0317 119.068 64.2925 117.548 63.9966C116.027 63.7007 114.453 63.8612 113.024 64.4579C111.594 65.0545 110.373 66.0608 109.515 67.3499C108.656 68.639 108.197 70.1531 108.197 71.7021C108.151 72.7528 108.325 73.8017 108.709 74.781C109.093 75.7603 109.677 76.6482 110.425 77.3878C111.173 78.1274 112.067 78.7021 113.051 79.075C114.034 79.4479 115.085 79.6106 116.135 79.5527Z" fill="#171717"/>
<path d="M147.16 56.6407H144.252V96.0973H147.16V56.6407Z" fill="#2FCAEC"/>
</svg>
