<svg width="262" height="261" viewBox="0 0 262 261" fill="none" xmlns="http://www.w3.org/2000/svg">
<g filter="url(#filter0_d_203_666)">
<circle cx="130.659" cy="125.033" r="97.8274" fill="white"/>
<circle cx="130.659" cy="125.033" r="97.1481" stroke="#2FCAEC" stroke-width="1.35871"/>
</g>
<g clip-path="url(#clip0_203_666)">
<path d="M175 159.048C174.781 162.289 173.302 164.819 170.209 166.137C167.116 167.456 164.185 166.972 161.781 164.627C156.688 159.654 151.693 154.582 146.658 149.55C140.125 143.023 133.593 136.495 127.062 129.964C123.502 126.409 119.946 122.848 116.346 119.334C115.662 118.667 115.714 118.301 116.368 117.661C119.589 114.503 122.778 111.314 125.938 108.094C126.506 107.516 126.841 107.521 127.414 108.094C142.466 123.201 157.53 138.292 172.605 153.369C174.161 154.929 174.889 156.814 175 159.048Z" fill="#2FCAEC"/>
<path d="M89.275 151.989C89.0437 145.134 94.2504 138.116 102.316 137.149C103.687 136.949 105.082 136.988 106.44 137.262C107.137 137.425 107.629 137.23 108.14 136.711C111.479 133.323 114.87 129.984 118.209 126.593C118.81 125.983 119.171 125.902 119.816 126.559C122.972 129.784 126.161 132.976 129.383 136.135C130 136.741 129.961 137.083 129.368 137.668C125.98 141.007 122.638 144.395 119.253 147.737C119.013 147.941 118.832 148.205 118.73 148.502C118.627 148.8 118.606 149.119 118.669 149.427C119.966 157.963 114.486 165.421 105.931 166.617C103.547 166.965 101.113 166.684 98.8714 165.8C97.395 165.212 97.0874 164.002 98.207 162.848C100.305 160.692 102.433 158.565 104.59 156.467C105.156 155.918 105.141 155.412 105.082 154.688C104.915 152.193 103.591 151.061 101.182 150.832C100.466 150.766 99.9983 150.82 99.4914 151.347C97.4639 153.443 95.4019 155.503 93.3399 157.567C91.9964 158.911 90.8129 158.66 90.1411 156.881C89.5334 155.264 89.1692 153.593 89.275 151.989Z" fill="#2FCAEC"/>
<path d="M171.907 98.7267C172.153 105.479 167.065 112.555 158.922 113.584C157.553 113.789 156.159 113.755 154.801 113.485C154.481 113.397 154.142 113.402 153.825 113.502C153.508 113.602 153.226 113.791 153.014 114.046C150.662 116.465 148.243 118.818 145.879 121.229C145.318 121.8 144.966 121.911 144.338 121.271C141.14 118.006 137.909 114.772 134.646 111.569C134.095 111.027 134.107 110.695 134.646 110.164C137.077 107.779 139.457 105.343 141.89 102.961C142.142 102.74 142.33 102.454 142.433 102.134C142.535 101.814 142.549 101.473 142.473 101.146C141.098 92.8902 147.065 84.9818 155.391 84.0911C157.719 83.7994 160.082 84.1051 162.259 84.9793C163.849 85.6412 164.102 86.8223 162.882 88.0477C160.757 90.1802 158.621 92.2955 156.472 94.3936C156.019 94.8341 155.876 95.245 156.066 95.8527C156.306 96.6449 156.504 97.4489 156.661 98.2617C156.685 98.5182 156.796 98.759 156.974 98.9446C157.153 99.1301 157.39 99.2494 157.645 99.2828C158.726 99.4944 159.86 100.092 160.844 99.9177C161.828 99.743 162.478 98.52 163.263 97.7523C164.825 96.2341 166.339 94.6667 167.894 93.1436C169.245 91.8198 170.468 92.1028 171.093 93.8818C171.687 95.4256 171.964 97.0734 171.907 98.7267Z" fill="#2FCAEC"/>
<path d="M105.668 117.255L94.5728 106.182C94.6761 106.109 94.8606 106.315 95.0649 106.337C95.3715 106.382 95.6844 106.332 95.9612 106.192C96.2381 106.053 96.4655 105.833 96.6126 105.56C96.9768 104.957 96.8587 104.386 96.4404 103.855C96.4227 103.83 96.4029 103.807 96.3813 103.786C94.3981 102.12 95.0797 101.079 96.5585 99.6397C100.099 96.1948 103.47 92.563 107.112 89.2288C114.13 82.8067 123.879 82.3392 131.671 87.8312C133.134 88.843 134.485 90.0068 135.702 91.3031C136.592 92.2677 136.794 93.1191 136.29 93.8375C135.785 94.556 135.06 94.6643 133.792 94.182C130.805 93.0379 127.752 92.5974 124.599 93.3823C123.335 93.6948 122.139 94.1771 121.256 95.1958C120.488 96.0792 120.535 96.8666 121.376 97.6958C122.752 99.054 124.137 100.402 125.49 101.785C126.541 102.856 126.553 103.67 125.505 104.726C121.304 108.948 117.092 113.159 112.87 117.358C111.849 118.372 111.044 118.343 109.993 117.358C109.526 116.918 109.071 116.46 108.623 115.995C108.025 115.373 107.393 114.826 106.457 115.257C105.709 115.582 105.51 116.197 105.668 117.255Z" fill="#2FCAEC"/>
<path d="M99.6593 125.752C98.4905 125.663 97.398 125.326 96.5245 124.455C93.4438 121.377 90.3435 118.303 87.2923 115.205C85.5478 113.429 85.5699 110.798 87.2923 108.987C88.0477 108.185 88.8499 107.42 89.6004 106.611C89.9916 106.187 90.2992 106.131 90.7347 106.566C95.5427 111.392 100.359 116.209 105.183 121.015C105.626 121.453 105.552 121.768 105.139 122.157C104.31 122.932 103.51 123.734 102.678 124.524C101.847 125.314 100.816 125.653 99.6593 125.752Z" fill="#2FCAEC"/>
</g>
<defs>
<filter id="filter0_d_203_666" x="0.222893" y="0.0317726" width="260.873" height="260.873" filterUnits="userSpaceOnUse" color-interpolation-filters="sRGB">
<feFlood flood-opacity="0" result="BackgroundImageFix"/>
<feColorMatrix in="SourceAlpha" type="matrix" values="0 0 0 0 0 0 0 0 0 0 0 0 0 0 0 0 0 0 127 0" result="hardAlpha"/>
<feOffset dy="5.43486"/>
<feGaussianBlur stdDeviation="16.3046"/>
<feComposite in2="hardAlpha" operator="out"/>
<feColorMatrix type="matrix" values="0 0 0 0 0 0 0 0 0 0 0 0 0 0 0 0 0 0 0.25 0"/>
<feBlend mode="normal" in2="BackgroundImageFix" result="effect1_dropShadow_203_666"/>
<feBlend mode="normal" in="SourceGraphic" in2="effect1_dropShadow_203_666" result="shape"/>
</filter>
<clipPath id="clip0_203_666">
<rect width="89" height="82.8534" fill="white" transform="translate(86 84)"/>
</clipPath>
</defs>
</svg>
