<svg width="142" height="141" viewBox="0 0 142 141" fill="none" xmlns="http://www.w3.org/2000/svg">
<g filter="url(#filter0_d_201_667)">
<circle cx="71" cy="67" r="47" fill="white"/>
<circle cx="71" cy="67" r="46.5203" stroke="#2FCAEC" stroke-width="0.959466"/>
</g>
<g clip-path="url(#clip0_201_667)">
<path d="M93.0003 83.2319C92.8945 84.7964 92.18 86.0176 90.6857 86.6543C89.1913 87.2911 87.7754 87.0571 86.6139 85.925C84.153 83.5241 81.7397 81.0758 79.3074 78.6465C76.1506 75.4953 72.9947 72.3433 69.8395 69.1906C68.1193 67.474 66.4014 65.7551 64.6622 64.0587C64.3317 63.7368 64.3566 63.5598 64.6729 63.2509C66.2286 61.7264 67.7698 60.1869 69.2962 58.6322C69.5708 58.3531 69.7325 58.3555 70.0095 58.6322C77.282 65.9254 84.56 73.2113 91.8436 80.4902C92.5949 81.2433 92.9468 82.1533 93.0003 83.2319Z" fill="#2FCAEC"/>
<path d="M51.582 79.8237C51.4703 76.5142 53.9859 73.1262 57.8828 72.6593C58.5452 72.5629 59.2192 72.5814 59.8753 72.714C60.2118 72.7924 60.4495 72.6985 60.6968 72.4479C62.31 70.8121 63.9482 69.2001 65.5615 67.5631C65.8516 67.2685 66.0263 67.2293 66.3378 67.5465C67.8627 69.1035 69.4034 70.6446 70.96 72.1699C71.2584 72.4621 71.2393 72.6272 70.9528 72.91C69.3158 74.522 67.7014 76.1578 66.0656 77.771C65.9498 77.8694 65.8626 77.997 65.813 78.1405C65.7634 78.2841 65.7534 78.4383 65.7838 78.5871C66.4103 82.708 63.7628 86.3086 59.6292 86.886C58.4773 87.054 57.3015 86.918 56.2185 86.4916C55.5052 86.2077 55.3566 85.6232 55.8975 85.0661C56.9112 84.0254 57.9391 82.9987 58.9813 81.9858C59.2547 81.7209 59.2476 81.4761 59.2191 81.1269C59.1382 79.9223 58.4986 79.3759 57.3348 79.2654C56.9888 79.2333 56.7629 79.2595 56.518 79.5137C55.5385 80.5258 54.5422 81.5201 53.546 82.5168C52.8969 83.1654 52.325 83.0442 52.0005 82.1853C51.7069 81.4049 51.5309 80.5983 51.582 79.8237Z" fill="#2FCAEC"/>
<path d="M91.5056 54.1098C91.6245 57.3695 89.166 60.786 85.2322 61.2825C84.5706 61.3814 83.897 61.3653 83.2409 61.235C83.0862 61.1922 82.9224 61.195 82.7693 61.243C82.6162 61.2911 82.4802 61.3823 82.3778 61.5059C81.2413 62.6736 80.0726 63.8093 78.9302 64.9734C78.6591 65.249 78.4891 65.3025 78.186 64.9936C76.6405 63.4176 75.0796 61.8563 73.5032 60.3096C73.2369 60.0483 73.2428 59.8879 73.5032 59.6313C74.6777 58.4802 75.8273 57.3041 77.0031 56.1542C77.125 56.0472 77.2155 55.9091 77.2651 55.7548C77.3148 55.6004 77.3216 55.4355 77.2848 55.2775C76.6203 51.292 79.5032 47.474 83.5262 47.044C84.6507 46.9032 85.7926 47.0508 86.8442 47.4728C87.6122 47.7924 87.7347 48.3626 87.145 48.9542C86.1186 49.9837 85.0863 51.0049 84.0481 52.0179C83.8294 52.2305 83.7604 52.4289 83.8519 52.7223C83.9679 53.1047 84.064 53.4929 84.1396 53.8853C84.1513 54.0091 84.2046 54.1254 84.291 54.215C84.3774 54.3045 84.4917 54.3621 84.6152 54.3783C85.1371 54.4804 85.6851 54.7691 86.1607 54.6848C86.6362 54.6004 86.95 54.01 87.3293 53.6394C88.0842 52.9064 88.8153 52.1497 89.5667 51.4144C90.2193 50.7753 90.8102 50.9119 91.1121 51.7708C91.3993 52.5161 91.5332 53.3116 91.5056 54.1098Z" fill="#2FCAEC"/>
<path d="M59.503 63.0549L54.1426 57.7092C54.1925 57.6736 54.2817 57.7734 54.3803 57.7841C54.5285 57.8057 54.6797 57.7812 54.8134 57.7141C54.9472 57.6469 55.057 57.5403 55.1281 57.4087C55.3041 57.1176 55.247 56.842 55.0449 56.5854C55.0363 56.5736 55.0268 56.5625 55.0164 56.5522C54.0582 55.748 54.3875 55.2455 55.102 54.5505C56.8127 52.8874 58.4414 51.134 60.2009 49.5244C63.5914 46.4239 68.3016 46.1982 72.0666 48.8496C72.7731 49.3381 73.4258 49.9 74.0139 50.5258C74.4442 50.9915 74.5417 51.4025 74.298 51.7494C74.0543 52.0963 73.7036 52.1485 73.0913 51.9157C71.6481 51.3633 70.1728 51.1507 68.6499 51.5296C68.0388 51.6805 67.4611 51.9133 67.0343 52.4051C66.6633 52.8316 66.6859 53.2117 67.0925 53.6121C67.7571 54.2678 68.4264 54.9188 69.0802 55.5864C69.5879 56.1031 69.5938 56.4964 69.0874 57.006C67.0576 59.0445 65.0228 61.0774 62.9827 63.1048C62.4894 63.5942 62.1006 63.58 61.593 63.1048C61.3671 62.8922 61.1472 62.6712 60.9308 62.4467C60.6419 62.1461 60.3364 61.8824 59.8846 62.0903C59.5232 62.2471 59.4269 62.5441 59.503 63.0549Z" fill="#2FCAEC"/>
<path d="M56.6032 67.4076C56.0385 67.3648 55.5107 67.2021 55.0886 66.7816C53.6002 65.2955 52.1023 63.8117 50.6282 62.3161C49.7853 61.4585 49.796 60.1886 50.6282 59.3142C50.9931 58.927 51.3807 58.5575 51.7433 58.1667C51.9323 57.9624 52.0809 57.9351 52.2913 58.1453C54.6143 60.4752 56.9412 62.8004 59.2721 65.1208C59.4861 65.3323 59.4505 65.4844 59.2507 65.672C58.8501 66.0462 58.4637 66.4335 58.0619 66.8148C57.6601 67.1962 57.162 67.3601 56.6032 67.4076Z" fill="#2FCAEC"/>
</g>
<defs>
<filter id="filter0_d_201_667" x="0.972809" y="0.810674" width="140.054" height="140.054" filterUnits="userSpaceOnUse" color-interpolation-filters="sRGB">
<feFlood flood-opacity="0" result="BackgroundImageFix"/>
<feColorMatrix in="SourceAlpha" type="matrix" values="0 0 0 0 0 0 0 0 0 0 0 0 0 0 0 0 0 0 127 0" result="hardAlpha"/>
<feOffset dy="3.83787"/>
<feGaussianBlur stdDeviation="11.5136"/>
<feComposite in2="hardAlpha" operator="out"/>
<feColorMatrix type="matrix" values="0 0 0 0 0 0 0 0 0 0 0 0 0 0 0 0 0 0 0.25 0"/>
<feBlend mode="normal" in2="BackgroundImageFix" result="effect1_dropShadow_201_667"/>
<feBlend mode="normal" in="SourceGraphic" in2="effect1_dropShadow_201_667" result="shape"/>
</filter>
<clipPath id="clip0_201_667">
<rect width="43" height="40" fill="white" transform="translate(50 47)"/>
</clipPath>
</defs>
</svg>
