<svg width="71" height="45" viewBox="0 0 71 45" fill="none" xmlns="http://www.w3.org/2000/svg">
<path d="M0 0L71 0.00012207L55.5851 45L0 44.9999L0 0Z" fill="#2FCAEC"/>
<path d="M46 21.7901C46 20.1766 44.6726 18.6976 42.9469 18.6976H38.1681V18.5632C39.2301 15.8741 40.4248 13.0506 39.4956 9.68922C38.9646 7.67242 37.2389 6.8657 35.9115 7.00015C34.8496 7.1346 34.1858 7.94133 34.1858 8.8825C34.1858 14.9329 30.3363 19.7733 26.6195 21.2523V20.8489C26.6195 19.7733 25.6903 18.8321 24.6283 18.8321H17.9912C16.9292 18.8321 16 19.6388 16 20.8489V36.9833C16 38.059 16.9292 39.0001 17.9912 39.0001H24.6283C25.6903 39.0001 26.6195 38.059 26.6195 36.9833V36.58C28.0796 37.2523 30.7345 38.3279 32.5929 38.3279H39.6283H40.4248H40.6903C40.823 38.3279 40.823 38.3279 40.9557 38.3279C42.1504 38.059 43.0796 36.9833 43.0796 35.6388C43.0796 34.9665 42.8142 34.4287 42.5487 33.8909C43.6106 33.3531 44.2743 32.4119 44.2743 31.2018C44.2743 30.5296 44.0088 29.8573 43.6106 29.3195C43.8761 29.185 44.1416 29.0506 44.2743 28.9161C44.2743 28.9161 44.4071 28.9161 44.4071 28.7817C44.9381 28.2438 45.3363 27.4371 45.3363 26.4959C45.3363 25.6892 45.0708 24.8825 44.4071 24.3447C45.469 23.9413 46 22.8657 46 21.7901ZM25.292 36.9833C25.292 37.3867 25.0265 37.6556 24.6283 37.6556H17.9912C17.5929 37.6556 17.3274 37.3867 17.3274 36.9833V20.8489C17.3274 20.4455 17.5929 20.1766 17.9912 20.1766H24.6283C25.0265 20.1766 25.292 20.4455 25.292 20.8489V36.9833Z" fill="white"/>
<path d="M23.1683 34.1597C22.5046 34.1597 21.9736 34.6975 21.9736 35.3698C21.9736 36.042 22.5046 36.5798 23.1683 36.5798C23.832 36.5798 24.363 36.042 24.363 35.3698C24.363 34.6975 23.9648 34.1597 23.1683 34.1597ZM23.1683 35.5042V35.3698V35.5042Z" fill="white"/>
</svg>
