<svg width="262" height="262" viewBox="0 0 262 262" fill="none" xmlns="http://www.w3.org/2000/svg">
<g filter="url(#filter0_d_203_671)">
<circle cx="130.75" cy="125.827" r="97.8274" fill="white"/>
<circle cx="130.75" cy="125.827" r="97.1481" stroke="#2FCAEC" stroke-width="1.35871"/>
</g>
<g clip-path="url(#clip0_203_671)">
<path d="M71.4214 112.089C72.1918 109.675 73.6176 107.836 76.0375 106.898C76.6277 106.665 76.7053 106.236 76.7022 105.696C76.7022 103.372 76.755 101.036 76.6805 98.7218C76.6339 97.2711 77.2303 95.9696 77.4695 94.5903C77.7429 93.0216 79.6036 92.5215 81.0046 93.5031C82.8125 94.7674 84.5645 96.1124 86.3351 97.4327L125.475 126.602C126.609 127.446 126.6 127.45 125.444 128.176C123.262 129.493 121.671 131.6 121.002 134.06C120.779 134.855 120.381 135.122 119.549 135.2C117.56 135.374 116.349 135.017 115.569 132.765C114.398 129.385 111.565 127.537 108.055 126.903C107.298 126.77 106.608 126.387 106.095 125.816C98.0513 117.532 90.0058 109.248 81.9582 100.965C81.6476 100.654 81.3898 100.343 81.1226 100.033C80.638 100.278 80.812 100.629 80.812 100.896C80.812 103.105 80.812 105.314 80.812 107.519C80.812 109.607 80.3305 110.15 78.2368 110.495C76.8731 110.716 75.7175 111.759 75.4845 112.98C75.1739 114.611 75.7703 116.024 77.0905 116.773C77.582 117.051 78.1355 117.2 78.6999 117.208C79.2644 117.215 79.8217 117.081 80.3203 116.816C80.819 116.551 81.2429 116.165 81.5531 115.694C81.8632 115.222 82.0496 114.68 82.0949 114.117C82.1166 113.884 82.0949 113.651 82.1415 113.421C82.3279 112.138 83.1852 111.337 84.2818 111.411C85.3783 111.486 86.1456 112.362 86.1736 113.645C86.2361 115.367 85.692 117.057 84.6361 118.42C83.5802 119.782 82.0795 120.731 80.3957 121.1C78.7542 121.466 77.0372 121.266 75.5236 120.533C74.01 119.8 72.7887 118.577 72.0582 117.062C71.8252 116.574 71.6513 116.058 71.4369 115.558L71.4214 112.089Z" fill="#2FCAEC"/>
<path d="M112.345 138.543H139.318C140.899 138.543 140.905 138.543 140.905 136.927V106.932C140.905 103.26 142.368 101.816 146.071 101.813C148.589 101.813 151.108 101.813 153.629 101.813C155.182 101.813 155.203 101.835 155.207 103.366C155.207 108.168 155.207 112.974 155.207 117.78C155.207 122.585 158.403 126.527 163.119 127.478C163.844 127.596 164.58 127.643 165.315 127.617C171.863 127.617 178.414 127.642 184.963 127.617C185.972 127.617 186.497 127.928 186.845 128.891C187.709 131.255 188.613 133.61 189.622 135.915C190.321 137.551 190.64 139.325 190.554 141.102C190.48 143.587 190.507 146.072 190.554 148.542C190.573 149.651 190.066 150.049 189.001 150.08C186.081 150.157 186.078 150.179 185.025 147.505C183.577 143.842 179.539 140.108 173.531 140.515C169.21 140.81 165.11 144.081 163.724 148.592C163.566 149.101 163.724 149.909 162.957 150.014C162.006 150.148 161.009 150.244 160.081 149.946C159.534 149.769 159.705 149.151 159.705 148.704C159.705 143.395 159.705 138.086 159.686 132.777C159.686 132.224 159.997 131.42 159.375 131.174C158.491 130.863 157.528 130.855 156.639 131.149C156.101 131.305 156.328 131.954 156.328 132.392C156.316 137.627 156.316 142.859 156.328 148.089C156.328 150.073 156.328 150.077 154.365 150.077C141.629 150.077 128.868 150.061 116.119 150.101C114.976 150.101 114.432 149.837 114.094 148.651C112.646 143.597 108.35 140.484 103.097 140.528C97.9996 140.568 93.7997 143.833 92.3957 148.915C92.1627 149.754 91.8023 150.136 90.8829 150.105C88.9476 150.046 87.0092 150.086 85.0708 150.086C84.4495 150.086 83.8842 150.002 83.8904 149.179C83.9153 146.197 83.5798 143.215 83.8127 140.232C83.9401 138.589 83.9712 138.586 85.5958 138.586L112.345 138.543ZM166.358 134.343C166.629 134.343 166.899 134.343 167.172 134.343C169.701 134.293 169.443 134.809 169.48 131.954C169.48 131.177 169.151 130.935 168.43 130.954C167.309 130.982 166.188 130.954 165.063 130.954C163.345 130.954 163.345 130.954 163.345 132.662C163.345 134.371 163.345 134.337 164.964 134.34L166.358 134.343Z" fill="#2FCAEC"/>
<path d="M174.24 124.228C171.298 124.228 168.353 124.179 165.414 124.244C161.513 124.328 158.602 121.249 158.717 117.662C158.872 112.865 158.782 108.063 158.736 103.264C158.736 102.164 159.046 101.748 160.18 101.782C162.665 101.859 165.132 101.692 167.58 102.214C173.525 103.484 177.803 106.895 180.282 112.406C181.853 115.897 183.118 119.522 184.556 123.073C184.916 123.961 184.711 124.25 183.764 124.241C180.589 124.228 177.414 124.228 174.24 124.228Z" fill="#2FCAEC"/>
<path d="M182.408 151.788C182.399 153.863 181.568 155.849 180.096 157.311C178.624 158.774 176.633 159.592 174.558 159.588C172.502 159.549 170.543 158.706 169.102 157.239C167.661 155.772 166.853 153.798 166.851 151.741C166.849 149.685 167.653 147.71 169.091 146.24C170.529 144.77 172.487 143.922 174.543 143.879C175.58 143.877 176.608 144.08 177.566 144.477C178.524 144.874 179.394 145.457 180.125 146.193C180.857 146.928 181.435 147.802 181.827 148.762C182.219 149.722 182.416 150.751 182.408 151.788Z" fill="#2FCAEC"/>
<path d="M103.302 143.879C104.346 143.859 105.385 144.046 106.356 144.432C107.327 144.817 108.211 145.392 108.957 146.124C109.704 146.855 110.296 147.728 110.701 148.691C111.105 149.655 111.314 150.689 111.314 151.734C111.314 152.779 111.105 153.813 110.701 154.776C110.296 155.74 109.704 156.612 108.957 157.344C108.211 158.075 107.327 158.65 106.356 159.036C105.385 159.421 104.346 159.609 103.302 159.588C98.9527 159.588 95.5171 156.072 95.5357 151.611C95.5496 149.559 96.3734 147.595 97.8277 146.147C99.2821 144.699 101.249 143.884 103.302 143.879Z" fill="#2FCAEC"/>
<path d="M130.831 135.163C129.011 135.163 127.191 135.147 125.37 135.163C124.438 135.163 124.317 134.796 124.643 134.013C125.603 131.69 128.101 130.127 130.881 130.146C133.552 130.165 136 131.802 136.923 134.128C137.233 134.952 136.96 135.172 136.177 135.163C134.397 135.154 132.614 135.166 130.831 135.163Z" fill="#2FCAEC"/>
<path d="M106.439 135.163C104.697 135.163 102.954 135.147 101.214 135.163C100.233 135.163 100.087 134.775 100.453 133.942C101.423 131.746 104.026 130.121 106.542 130.18C109.151 130.245 111.608 131.892 112.509 134.119C112.82 134.924 112.578 135.172 111.779 135.163C109.999 135.15 108.219 135.163 106.439 135.163Z" fill="#2FCAEC"/>
</g>
<defs>
<filter id="filter0_d_203_671" x="0.313713" y="0.825718" width="260.874" height="260.873" filterUnits="userSpaceOnUse" color-interpolation-filters="sRGB">
<feFlood flood-opacity="0" result="BackgroundImageFix"/>
<feColorMatrix in="SourceAlpha" type="matrix" values="0 0 0 0 0 0 0 0 0 0 0 0 0 0 0 0 0 0 127 0" result="hardAlpha"/>
<feOffset dy="5.43486"/>
<feGaussianBlur stdDeviation="16.3046"/>
<feComposite in2="hardAlpha" operator="out"/>
<feColorMatrix type="matrix" values="0 0 0 0 0 0 0 0 0 0 0 0 0 0 0 0 0 0 0.25 0"/>
<feBlend mode="normal" in2="BackgroundImageFix" result="effect1_dropShadow_203_671"/>
<feBlend mode="normal" in="SourceGraphic" in2="effect1_dropShadow_203_671" result="shape"/>
</filter>
<clipPath id="clip0_203_671">
<rect width="119.158" height="66.5914" fill="white" transform="translate(71.4209 93)"/>
</clipPath>
</defs>
</svg>
