<svg width="143" height="143" viewBox="0 0 143 143" fill="none" xmlns="http://www.w3.org/2000/svg">
<g filter="url(#filter0_d_201_672)">
<circle cx="71.5" cy="67.5" r="47.5" fill="white"/>
<circle cx="71.5" cy="67.5" r="47.0163" stroke="#2FCAEC" stroke-width="0.967465"/>
</g>
<g clip-path="url(#clip0_201_672)">
<path d="M42 61.1726C42.375 60.0127 43.069 59.129 44.2469 58.6782C44.5342 58.5662 44.572 58.3602 44.5705 58.1005C44.5705 56.9839 44.5962 55.8614 44.5599 54.7493C44.5372 54.0522 44.8275 53.4267 44.9439 52.7639C45.077 52.0101 45.9827 51.7698 46.6646 52.2415C47.5446 52.849 48.3974 53.4954 49.2593 54.1298L68.3109 68.1467C68.8627 68.5527 68.8582 68.5542 68.2957 68.9035C67.2333 69.5361 66.4588 70.5487 66.1335 71.7308C66.0247 72.1129 65.8311 72.2413 65.4259 72.2786C64.4582 72.3622 63.8685 72.1905 63.489 71.1083C62.9189 69.4842 61.54 68.596 59.8314 68.2915C59.4631 68.2275 59.1272 68.0436 58.8773 67.769C54.9621 63.7884 51.046 59.8077 47.1288 55.827C46.9776 55.6778 46.8521 55.5285 46.7221 55.3792C46.4862 55.4971 46.5709 55.6658 46.5709 55.7942C46.5709 56.8555 46.5709 57.9169 46.5709 58.9767C46.5709 59.9799 46.3365 60.2411 45.3174 60.4068C44.6536 60.5128 44.0911 61.0143 43.9777 61.601C43.8265 62.3847 44.1168 63.0639 44.7595 63.4236C44.9987 63.5571 45.2681 63.629 45.5428 63.6326C45.8176 63.6362 46.0888 63.5715 46.3316 63.4443C46.5743 63.3171 46.7806 63.1316 46.9316 62.905C47.0826 62.6783 47.1733 62.4177 47.1953 62.1473C47.2059 62.0354 47.1953 61.9234 47.218 61.813C47.3087 61.1965 47.7261 60.8113 48.2598 60.8471C48.7936 60.883 49.167 61.3039 49.1806 61.9204C49.2111 62.7482 48.9462 63.5603 48.4323 64.215C47.9183 64.8698 47.1878 65.3256 46.3683 65.503C45.5693 65.6789 44.7335 65.5829 43.9967 65.2306C43.26 64.8783 42.6655 64.2904 42.31 63.5625C42.1966 63.3281 42.1119 63.0803 42.0076 62.84L42 61.1726Z" fill="#2FCAEC"/>
<path d="M61.9195 73.8852H75.0485C75.8181 73.8852 75.8211 73.8852 75.8211 73.1089V58.695C75.8211 56.9305 76.5333 56.2364 78.3356 56.2349C79.5614 56.2349 80.7876 56.2349 82.0144 56.2349C82.7704 56.2349 82.781 56.2454 82.7825 56.9813C82.7825 59.2891 82.7825 61.5984 82.7825 63.9076C82.7825 66.2169 84.3384 68.1112 86.6337 68.568C86.9869 68.6248 87.3449 68.6473 87.7026 68.6352C90.89 68.6352 94.0789 68.6471 97.2662 68.6352C97.7577 68.6352 98.0132 68.7844 98.1825 69.2472C98.6029 70.3832 99.0429 71.5147 99.5343 72.6223C99.8744 73.4087 100.03 74.2611 99.9879 75.1152C99.9516 76.3094 99.9652 77.5036 99.9879 78.6903C99.997 79.2232 99.7505 79.4143 99.2319 79.4292C97.8106 79.4665 97.8091 79.477 97.2965 78.1917C96.5919 76.4318 94.6262 74.6375 91.702 74.833C89.5987 74.9749 87.6029 76.5467 86.9285 78.7142C86.8514 78.959 86.9285 79.3471 86.555 79.3979C86.0923 79.4621 85.607 79.5083 85.1549 79.365C84.8888 79.2799 84.9719 78.9829 84.9719 78.7679C84.9719 76.2168 84.9719 73.6657 84.9628 71.1146C84.9628 70.8489 85.1141 70.4623 84.8116 70.3444C84.3812 70.1949 83.9127 70.1907 83.4795 70.3324C83.218 70.4071 83.3283 70.719 83.3283 70.9295C83.3223 73.4453 83.3223 75.9596 83.3283 78.4724C83.3283 79.4262 83.3283 79.4277 82.3727 79.4277C76.1734 79.4277 69.962 79.4203 63.7566 79.4397C63.2002 79.4397 62.9356 79.3128 62.7708 78.7426C62.0662 76.3139 59.975 74.8181 57.4182 74.839C54.9369 74.8584 52.8927 76.4273 52.2092 78.8694C52.0958 79.2725 51.9204 79.4561 51.4729 79.4412C50.5309 79.4128 49.5874 79.4322 48.6439 79.4322C48.3415 79.4322 48.0663 79.3919 48.0693 78.9963C48.0814 77.5633 47.9181 76.1302 48.0315 74.6972C48.0935 73.9075 48.1086 73.9061 48.8994 73.9061L61.9195 73.8852ZM88.2107 71.867C88.3422 71.867 88.4738 71.867 88.6068 71.867C89.8376 71.8431 89.7121 72.0909 89.7303 70.719C89.7303 70.3459 89.57 70.2294 89.2192 70.2384C88.6734 70.2518 88.1275 70.2384 87.5802 70.2384C86.744 70.2384 86.744 70.2384 86.744 71.0594C86.744 71.8804 86.744 71.864 87.5318 71.8655L88.2107 71.867Z" fill="#2FCAEC"/>
<path d="M92.0484 67.0064C90.6165 67.0064 89.1831 66.9826 87.7527 67.0139C85.8536 67.0542 84.4369 65.5749 84.4928 63.8508C84.5684 61.546 84.5246 59.2382 84.5019 56.9319C84.5019 56.4035 84.6531 56.2034 85.205 56.2199C86.4146 56.2572 87.6152 56.1766 88.8066 56.4274C91.7007 57.0379 93.7827 58.6769 94.9893 61.3251C95.7544 63.0029 96.3698 64.7449 97.0699 66.4511C97.2453 66.8781 97.1455 67.0169 96.6843 67.0124C95.139 67.0064 93.5937 67.0064 92.0484 67.0064Z" fill="#2FCAEC"/>
<path d="M96.0238 80.2501C96.0194 81.247 95.6147 82.2015 94.8984 82.9042C94.1821 83.6069 93.2127 84.0004 92.2029 83.9984C91.2021 83.9798 90.2486 83.5744 89.5471 82.8694C88.8456 82.1644 88.4522 81.2159 88.4512 80.2277C88.4502 79.2394 88.8417 78.2902 89.5418 77.5838C90.2419 76.8774 91.1946 76.4702 92.1954 76.4496C92.7003 76.4484 93.2004 76.546 93.6668 76.7369C94.1332 76.9277 94.5567 77.2079 94.9127 77.5614C95.2687 77.9148 95.5503 78.3344 95.741 78.7959C95.9317 79.2574 96.0278 79.7517 96.0238 80.2501Z" fill="#2FCAEC"/>
<path d="M57.5184 76.4497C58.0269 76.4397 58.5322 76.5299 59.0049 76.7151C59.4776 76.9003 59.9082 77.1767 60.2713 77.5282C60.6345 77.8797 60.923 78.2992 61.12 78.7621C61.3169 79.225 61.4184 79.722 61.4184 80.2241C61.4184 80.7261 61.3169 81.2232 61.12 81.6861C60.923 82.149 60.6345 82.5684 60.2713 82.9199C59.9082 83.2714 59.4776 83.5478 59.0049 83.733C58.5322 83.9182 58.0269 84.0085 57.5184 83.9985C55.4016 83.9985 53.7292 82.3087 53.7383 80.1651C53.7451 79.1789 54.146 78.2353 54.854 77.5395C55.5619 76.8437 56.5195 76.452 57.5184 76.4497Z" fill="#2FCAEC"/>
<path d="M70.9189 72.2609C70.0328 72.2609 69.1468 72.2534 68.2607 72.2609C67.8071 72.2609 67.7481 72.0848 67.9069 71.7086C68.3741 70.592 69.5898 69.8412 70.943 69.8501C72.2434 69.8591 73.4349 70.6457 73.8839 71.7638C74.0351 72.1594 73.9021 72.2654 73.521 72.2609C72.6547 72.2564 71.7868 72.2624 70.9189 72.2609Z" fill="#2FCAEC"/>
<path d="M59.0462 72.261C58.1979 72.261 57.3497 72.2536 56.5029 72.261C56.0251 72.261 55.9541 72.0744 56.1325 71.6744C56.6042 70.619 57.8713 69.8383 59.0961 69.8667C60.3662 69.898 61.5622 70.6892 62.0007 71.7595C62.1519 72.1461 62.0339 72.2655 61.6453 72.261C60.779 72.255 59.9126 72.261 59.0462 72.261Z" fill="#2FCAEC"/>
</g>
<defs>
<filter id="filter0_d_201_672" x="0.780834" y="0.650695" width="141.438" height="141.438" filterUnits="userSpaceOnUse" color-interpolation-filters="sRGB">
<feFlood flood-opacity="0" result="BackgroundImageFix"/>
<feColorMatrix in="SourceAlpha" type="matrix" values="0 0 0 0 0 0 0 0 0 0 0 0 0 0 0 0 0 0 127 0" result="hardAlpha"/>
<feOffset dy="3.86986"/>
<feGaussianBlur stdDeviation="11.6096"/>
<feComposite in2="hardAlpha" operator="out"/>
<feColorMatrix type="matrix" values="0 0 0 0 0 0 0 0 0 0 0 0 0 0 0 0 0 0 0.25 0"/>
<feBlend mode="normal" in2="BackgroundImageFix" result="effect1_dropShadow_201_672"/>
<feBlend mode="normal" in="SourceGraphic" in2="effect1_dropShadow_201_672" result="shape"/>
</filter>
<clipPath id="clip0_201_672">
<rect width="58" height="32" fill="white" transform="translate(42 52)"/>
</clipPath>
</defs>
</svg>
