<svg width="262" height="261" viewBox="0 0 262 261" fill="none" xmlns="http://www.w3.org/2000/svg">
<g filter="url(#filter0_d_203_668)">
<circle cx="130.956" cy="125.033" r="97.8274" fill="white"/>
<circle cx="130.956" cy="125.033" r="97.1481" stroke="#2FCAEC" stroke-width="1.35871"/>
</g>
<path d="M174 105.95V133.817C173.373 136.143 172.115 137.972 169.933 139.095C168.535 139.82 167.031 139.954 165.507 139.958C158.984 139.971 152.461 139.971 145.937 139.958C143.474 139.958 143.943 140.044 143.918 137.995C143.889 136.303 143.288 134.93 140.883 134.963C135.992 135.03 131.099 134.982 126.206 134.983C124.685 134.983 123.164 134.965 121.645 135C120.257 135.032 119.544 135.683 119.248 137.053C119.122 137.629 119.167 138.216 119.16 138.786C119.145 139.92 119.132 139.949 117.997 139.949C114.266 139.949 110.533 139.978 106.802 139.949C103.212 139.92 99.6169 140.094 96.0286 139.848C91.9966 139.571 89.0133 136.394 89.0083 132.349C88.9972 124.056 88.9972 115.763 89.0083 107.471C88.9907 106.946 89.0347 106.421 89.1396 105.907C90.0122 102.265 92.9373 99.9234 96.6851 99.9134C102.13 99.9001 107.575 99.9035 113.021 99.9234C113.82 99.9234 114.111 99.6808 114.068 98.8763C114.012 97.8293 114.046 96.7756 114.056 95.7185C114.07 94.3889 114.121 94.2676 112.785 94.8427C111.336 95.4659 109.868 94.8992 109.281 93.5879C108.695 92.2765 109.232 90.8289 110.651 90.1259C116.306 87.3081 122.478 85.6791 128.787 85.3393C133.981 85.0259 139.191 85.5814 144.202 86.983C147.078 87.7828 149.871 88.8569 152.542 90.1907C153.86 90.8555 154.357 92.2799 153.798 93.5629C153.24 94.846 151.855 95.3911 150.463 94.9175C150.252 94.8487 150.047 94.766 149.848 94.6698C149.261 94.3673 148.988 94.4787 149.017 95.195C149.047 96.3833 149.017 97.5717 149.017 98.76C149.017 99.8985 149.017 99.9018 150.18 99.9018C155.626 99.9018 161.071 99.8935 166.516 99.9018C168.698 99.9018 170.541 100.733 172.055 102.312C173.051 103.36 173.576 104.625 174 105.95ZM131.524 99.9151C135.337 99.9151 139.151 99.9018 142.964 99.9267C143.688 99.9267 143.938 99.6841 143.924 98.9628C143.888 97.0565 143.891 95.1501 143.924 93.2438C143.936 92.5956 143.678 92.333 143.072 92.1569C140.182 91.3122 137.206 90.7954 134.2 90.6162C129.394 90.3142 124.572 90.8416 119.945 92.1751C119.357 92.3413 119.144 92.6239 119.15 93.2205C119.175 95.0986 119.15 96.9783 119.16 98.8581C119.16 99.8885 119.19 99.9151 120.251 99.9151H131.524Z" fill="#2FCAEC"/>
<path d="M173.999 158.698C173.373 161.025 172.114 162.842 169.934 163.977C168.614 164.663 167.195 164.835 165.756 164.835C142.954 164.846 120.152 164.849 97.3492 164.845C94.6135 164.845 92.2319 164.048 90.5184 161.785C89.6142 160.59 89.0225 159.245 89.0225 157.733C88.9976 152.842 89.0076 147.949 89.0126 143.057C89.0126 142.216 89.1322 142.145 89.8436 142.614C92.1604 144.139 94.7099 144.729 97.4655 144.714C104.237 144.678 111.008 144.703 117.78 144.703C119.156 144.703 119.153 144.703 119.16 146.117C119.138 146.614 119.169 147.111 119.253 147.601C119.54 148.879 120.378 149.662 121.686 149.665C128.264 149.685 134.842 149.685 141.419 149.665C142.875 149.665 143.782 148.652 143.9 147.081C143.938 146.583 143.938 146.083 143.9 145.585C143.845 144.884 144.156 144.64 144.821 144.696C145.205 144.729 145.595 144.696 145.984 144.696C152.453 144.696 158.92 144.661 165.387 144.711C168.29 144.734 170.974 144.144 173.393 142.499C173.574 142.378 173.753 142.235 173.997 142.27L173.999 158.698Z" fill="#2FCAEC"/>
<path d="M131.61 139.728C133.79 139.728 135.971 139.745 138.152 139.717C138.816 139.717 139.101 139.911 139.074 140.609C139.032 141.713 139.016 142.82 139.074 143.92C139.122 144.763 138.742 144.955 137.999 144.947C135.763 144.922 133.528 144.947 131.291 144.947C129.193 144.947 127.096 144.93 124.998 144.947C124.272 144.947 123.95 144.721 123.99 143.94C124.046 142.84 124.033 141.731 123.99 140.629C123.965 139.949 124.211 139.708 124.894 139.718C127.139 139.747 129.375 139.728 131.61 139.728Z" fill="#2FCAEC"/>
<defs>
<filter id="filter0_d_203_668" x="0.519768" y="0.0317726" width="260.874" height="260.873" filterUnits="userSpaceOnUse" color-interpolation-filters="sRGB">
<feFlood flood-opacity="0" result="BackgroundImageFix"/>
<feColorMatrix in="SourceAlpha" type="matrix" values="0 0 0 0 0 0 0 0 0 0 0 0 0 0 0 0 0 0 127 0" result="hardAlpha"/>
<feOffset dy="5.43486"/>
<feGaussianBlur stdDeviation="16.3046"/>
<feComposite in2="hardAlpha" operator="out"/>
<feColorMatrix type="matrix" values="0 0 0 0 0 0 0 0 0 0 0 0 0 0 0 0 0 0 0.25 0"/>
<feBlend mode="normal" in2="BackgroundImageFix" result="effect1_dropShadow_203_668"/>
<feBlend mode="normal" in="SourceGraphic" in2="effect1_dropShadow_203_668" result="shape"/>
</filter>
</defs>
</svg>
