<svg width="142" height="141" viewBox="0 0 142 141" fill="none" xmlns="http://www.w3.org/2000/svg">
<g filter="url(#filter0_d_201_668)">
<circle cx="71" cy="67" r="47" fill="white"/>
<circle cx="71" cy="67" r="46.5203" stroke="#2FCAEC" stroke-width="0.959466"/>
</g>
<path d="M87.4728 57.6092L85.2906 57.4279C85.3633 56.4128 85.3997 55.7964 85.3997 55.4339L80.708 53.4398L81.5809 51.4457L86.9272 53.7298C87.1455 53.8386 87.3273 53.9836 87.4364 54.1649C87.5819 54.4187 87.691 54.6 87.4728 57.6092Z" fill="#2FCAEC"/>
<path d="M94.7828 71.5676C94.7464 70.2624 94.7828 68.9572 94.7828 67.6519C94.7828 65.8754 94.1645 65.0415 92.4915 64.4977C90.4548 63.8451 88.3817 63.2287 86.345 62.5761C85.8358 62.4311 85.363 62.1773 84.9266 61.851C83.4354 60.6545 81.9806 59.4218 80.4894 58.1891C79.362 57.2827 78.2345 56.3401 77.0707 55.4699C76.016 54.6723 74.7794 54.2372 73.4337 54.2372C70.0513 54.2372 66.6689 54.2372 63.2866 54.2372C62.3409 54.2372 61.4681 54.4548 60.6679 54.9986C59.9405 55.4699 59.1768 55.9413 58.4857 56.4851C56.7036 58.0079 54.9215 59.5306 53.2121 61.1259C52.6666 61.6335 52.1574 61.9598 51.43 62.0323C51.2118 62.0323 50.9936 62.141 50.739 62.141C49.066 62.2498 47.7567 63.4463 47.9022 65.4766C47.9749 66.7093 48.0476 67.942 47.9022 69.1384C47.6839 71.0237 48.3022 72.4015 49.7206 73.6342C50.5935 74.3955 51.3209 75.1569 52.5938 75.0119C52.6666 75.0119 52.703 75.0844 52.7757 75.1207C52.8484 75.3744 52.9212 75.6282 53.0303 75.882C53.8668 78.3837 56.1217 79.9789 58.704 79.9427C61.2135 79.9427 63.432 78.2749 64.2685 75.8458C64.3049 75.737 64.3413 75.6282 64.3413 75.5195C64.3776 75.0119 64.705 74.9031 65.1414 74.9394C65.2869 74.9394 65.4324 74.9394 65.6142 74.9394C69.8695 74.9394 74.1247 74.9394 78.4164 74.9394C79.4347 74.9394 79.4347 74.9394 79.8348 75.9908C80.7077 78.4199 82.9262 79.979 85.4721 79.979C87.9089 79.979 90.1638 78.3474 91.0003 75.9908C91.1094 75.7008 91.1821 75.4107 91.2913 75.0481C92.6733 74.8669 92.6733 74.8669 93.5826 73.8517C93.8008 73.5979 94.019 73.3079 94.2736 73.0903C94.6373 72.6915 94.8191 72.1839 94.7828 71.5676ZM58.6312 77.3685C56.8127 77.3685 55.3216 75.9183 55.3216 74.1055C55.3216 72.2927 56.8127 70.8425 58.6312 70.8425C60.4861 70.8425 61.8681 72.2927 61.8681 74.1417C61.8681 75.9183 60.4133 77.3323 58.6312 77.3685ZM66.6326 63.555C66.6326 63.555 58.1584 63.555 58.0857 63.5188C57.2855 63.4825 56.9218 62.9749 57.2492 62.2861C58.2675 60.2195 59.4677 58.2254 61.4681 56.9202C61.7954 56.7026 62.2318 56.5214 62.6319 56.5214C63.9048 56.4851 65.4324 56.4851 66.7053 56.4851L66.6326 63.555ZM81.3623 63.0474C81.1805 63.5188 80.744 63.5913 80.3076 63.5913C80.053 63.5913 68.8511 63.5913 68.8511 63.5913V60.8358C68.8511 59.4218 68.8511 57.9716 68.8511 56.4851C70.6696 56.4851 72.4881 56.3038 74.2338 56.6301C74.6703 56.7026 75.1067 56.9564 75.434 57.2465C77.2889 58.7692 79.1074 60.3282 80.9259 61.8147C81.3259 62.141 81.5805 62.5398 81.3623 63.0474ZM85.2902 77.3685C83.5445 77.3323 82.0897 75.882 82.0897 74.1417C82.0897 72.2927 83.5445 70.8787 85.363 70.8787C87.2178 70.8787 88.6363 72.329 88.5999 74.178C88.5999 75.9908 87.1451 77.3685 85.2902 77.3685Z" fill="#2FCAEC"/>
<path d="M81.2897 81.1028C78.4529 84.5834 74.9978 87.3025 71.0335 89.2604C67.2874 87.4476 64.0141 84.9097 61.2864 81.7191C60.5226 82.0092 59.6861 82.1542 58.8496 82.1905C62.0501 86.2149 65.9781 89.3329 70.597 91.472C70.7425 91.5445 70.888 91.5808 71.0698 91.5808C71.2517 91.5808 71.3972 91.5445 71.5426 91.472C76.2343 89.2966 80.235 86.1061 83.4719 81.9729C82.6718 81.7554 81.9444 81.4653 81.2897 81.1028Z" fill="#2FCAEC"/>
<path d="M52.267 59.023C51.7215 56.2313 51.576 53.7297 51.5396 52.5695L71.0338 44.2669L90.528 52.5695C90.4916 53.9472 90.3825 57.2465 89.5824 61.3434C89.9461 61.4522 90.3461 61.561 90.7098 61.706C91.0371 61.8148 91.3645 61.9235 91.6918 61.996C92.8193 56.2313 92.7102 52.0257 92.7102 51.8444C92.7102 51.4093 92.4556 51.0467 92.0555 50.8655L71.4702 42.0553C71.1793 41.9465 70.8883 41.9465 70.5973 42.0553L50.0121 50.8655C49.612 51.0467 49.3574 51.4456 49.3574 51.8444C49.3574 52.0257 49.3574 55.76 50.2303 60.002C50.2303 60.002 51.7215 59.8569 52.267 59.023Z" fill="#2FCAEC"/>
<defs>
<filter id="filter0_d_201_668" x="0.972809" y="0.810674" width="140.054" height="140.054" filterUnits="userSpaceOnUse" color-interpolation-filters="sRGB">
<feFlood flood-opacity="0" result="BackgroundImageFix"/>
<feColorMatrix in="SourceAlpha" type="matrix" values="0 0 0 0 0 0 0 0 0 0 0 0 0 0 0 0 0 0 127 0" result="hardAlpha"/>
<feOffset dy="3.83787"/>
<feGaussianBlur stdDeviation="11.5136"/>
<feComposite in2="hardAlpha" operator="out"/>
<feColorMatrix type="matrix" values="0 0 0 0 0 0 0 0 0 0 0 0 0 0 0 0 0 0 0.25 0"/>
<feBlend mode="normal" in2="BackgroundImageFix" result="effect1_dropShadow_201_668"/>
<feBlend mode="normal" in="SourceGraphic" in2="effect1_dropShadow_201_668" result="shape"/>
</filter>
</defs>
</svg>
